<?xml version="1.0" encoding="UTF-8" ?>
<svg version="1.1" width="32" height="34" xmlns="http://www.w3.org/2000/svg" shape-rendering="crispEdges">
<rect x="10" y="0" width="3" height="1" fill="#E8A87C" />
<rect x="9" y="1" width="1" height="2" fill="#E8A87C" />
<rect x="10" y="1" width="3" height="2" fill="#252540" />
<rect x="13" y="1" width="1" height="2" fill="#E8A87C" />
<rect x="8" y="2" width="1" height="1" fill="#E8A87C" />
<rect x="14" y="2" width="1" height="1" fill="#E8A87C" />
<rect x="7" y="3" width="1" height="13" fill="#E8A87C" />
<rect x="8" y="3" width="2" height="16" fill="#252540" />
<rect x="10" y="3" width="3" height="25" fill="#E8A87C" />
<rect x="13" y="3" width="2" height="14" fill="#252540" />
<rect x="15" y="3" width="1" height="6" fill="#E8A87C" />
<rect x="16" y="8" width="1" height="1" fill="#E8A87C" />
<rect x="15" y="9" width="2" height="2" fill="#252540" />
<rect x="17" y="9" width="1" height="2" fill="#E8A87C" />
<rect x="18" y="10" width="3" height="1" fill="#E8A87C" />
<rect x="15" y="11" width="2" height="20" fill="#E8A87C" />
<rect x="17" y="11" width="4" height="2" fill="#252540" />
<rect x="21" y="11" width="1" height="2" fill="#E8A87C" />
<rect x="22" y="12" width="3" height="1" fill="#E8A87C" />
<rect x="3" y="13" width="3" height="1" fill="#E8A87C" />
<rect x="17" y="13" width="2" height="4" fill="#252540" />
<rect x="19" y="13" width="2" height="18" fill="#E8A87C" />
<rect x="21" y="13" width="4" height="2" fill="#252540" />
<rect x="2" y="14" width="1" height="2" fill="#E8A87C" />
<rect x="3" y="14" width="3" height="2" fill="#252540" />
<rect x="6" y="14" width="1" height="2" fill="#E8A87C" />
<rect x="25" y="14" width="2" height="1" fill="#E8A87C" />
<rect x="1" y="15" width="1" height="1" fill="#E8A87C" />
<rect x="21" y="15" width="2" height="4" fill="#252540" />
<rect x="23" y="15" width="2" height="14" fill="#E8A87C" />
<rect x="25" y="15" width="2" height="2" fill="#252540" />
<rect x="27" y="15" width="1" height="2" fill="#E8A87C" />
<rect x="0" y="16" width="1" height="3" fill="#E8A87C" />
<rect x="1" y="16" width="2" height="3" fill="#252540" />
<rect x="3" y="16" width="3" height="3" fill="#E8A87C" />
<rect x="6" y="16" width="2" height="2" fill="#252540" />
<rect x="28" y="16" width="1" height="1" fill="#E8A87C" />
<rect x="13" y="17" width="2" height="14" fill="#E8A87C" />
<rect x="17" y="17" width="2" height="14" fill="#E8A87C" />
<rect x="25" y="17" width="2" height="8" fill="#E8A87C" />
<rect x="27" y="17" width="2" height="8" fill="#252540" />
<rect x="29" y="17" width="1" height="8" fill="#E8A87C" />
<rect x="6" y="18" width="2" height="5" fill="#E8A87C" />
<rect x="1" y="19" width="2" height="1" fill="#E8A87C" />
<rect x="3" y="19" width="2" height="4" fill="#252540" />
<rect x="5" y="19" width="1" height="4" fill="#E8A87C" />
<rect x="8" y="19" width="2" height="6" fill="#E8A87C" />
<rect x="21" y="19" width="2" height="12" fill="#E8A87C" />
<rect x="2" y="20" width="1" height="3" fill="#E8A87C" />
<rect x="3" y="23" width="2" height="1" fill="#E8A87C" />
<rect x="5" y="23" width="2" height="2" fill="#252540" />
<rect x="7" y="23" width="1" height="2" fill="#E8A87C" />
<rect x="4" y="24" width="1" height="1" fill="#E8A87C" />
<rect x="6" y="25" width="1" height="3" fill="#E8A87C" />
<rect x="7" y="25" width="2" height="3" fill="#252540" />
<rect x="9" y="25" width="1" height="3" fill="#E8A87C" />
<rect x="25" y="25" width="2" height="4" fill="#252540" />
<rect x="27" y="25" width="2" height="1" fill="#E8A87C" />
<rect x="27" y="26" width="1" height="3" fill="#E8A87C" />
<rect x="7" y="28" width="2" height="1" fill="#E8A87C" />
<rect x="9" y="28" width="2" height="3" fill="#252540" />
<rect x="11" y="28" width="2" height="3" fill="#E8A87C" />
<rect x="8" y="29" width="1" height="2" fill="#E8A87C" />
<rect x="23" y="29" width="2" height="2" fill="#252540" />
<rect x="25" y="29" width="2" height="1" fill="#E8A87C" />
<rect x="25" y="30" width="1" height="1" fill="#E8A87C" />
<rect x="9" y="31" width="2" height="1" fill="#E8A87C" />
<rect x="11" y="31" width="12" height="2" fill="#252540" />
<rect x="23" y="31" width="2" height="1" fill="#E8A87C" />
<rect x="10" y="32" width="1" height="1" fill="#E8A87C" />
<rect x="23" y="32" width="1" height="1" fill="#E8A87C" />
<rect x="11" y="33" width="12" height="1" fill="#E8A87C" />
</svg>