<?xml version="1.0" encoding="UTF-8" ?>
<svg version="1.1" width="32" height="34" xmlns="http://www.w3.org/2000/svg" shape-rendering="crispEdges">
<rect x="7" y="0" width="1" height="1" fill="#E8A87C" />
<rect x="6" y="1" width="1" height="32" fill="#E8A87C" />
<rect x="7" y="1" width="1" height="32" fill="#252540" />
<rect x="8" y="1" width="1" height="1" fill="#E8A87C" />
<rect x="8" y="2" width="1" height="30" fill="#252540" />
<rect x="9" y="2" width="1" height="1" fill="#E8A87C" />
<rect x="9" y="3" width="1" height="3" fill="#252540" />
<rect x="10" y="3" width="1" height="1" fill="#E8A87C" />
<rect x="10" y="4" width="1" height="3" fill="#252540" />
<rect x="11" y="4" width="1" height="1" fill="#E8A87C" />
<rect x="11" y="5" width="1" height="3" fill="#252540" />
<rect x="12" y="5" width="1" height="1" fill="#E8A87C" />
<rect x="9" y="6" width="1" height="22" fill="#E8A87C" />
<rect x="12" y="6" width="1" height="3" fill="#252540" />
<rect x="13" y="6" width="1" height="1" fill="#E8A87C" />
<rect x="10" y="7" width="1" height="20" fill="#E8A87C" />
<rect x="13" y="7" width="1" height="3" fill="#252540" />
<rect x="14" y="7" width="1" height="1" fill="#E8A87C" />
<rect x="11" y="8" width="1" height="18" fill="#E8A87C" />
<rect x="14" y="8" width="1" height="3" fill="#252540" />
<rect x="15" y="8" width="1" height="1" fill="#E8A87C" />
<rect x="12" y="9" width="1" height="16" fill="#E8A87C" />
<rect x="15" y="9" width="1" height="3" fill="#252540" />
<rect x="16" y="9" width="1" height="1" fill="#E8A87C" />
<rect x="13" y="10" width="1" height="14" fill="#E8A87C" />
<rect x="16" y="10" width="1" height="3" fill="#252540" />
<rect x="17" y="10" width="1" height="1" fill="#E8A87C" />
<rect x="14" y="11" width="1" height="12" fill="#E8A87C" />
<rect x="17" y="11" width="1" height="3" fill="#252540" />
<rect x="18" y="11" width="1" height="1" fill="#E8A87C" />
<rect x="15" y="12" width="1" height="10" fill="#E8A87C" />
<rect x="18" y="12" width="1" height="3" fill="#252540" />
<rect x="19" y="12" width="1" height="1" fill="#E8A87C" />
<rect x="16" y="13" width="1" height="9" fill="#E8A87C" />
<rect x="19" y="13" width="1" height="3" fill="#252540" />
<rect x="20" y="13" width="1" height="1" fill="#E8A87C" />
<rect x="17" y="14" width="1" height="8" fill="#E8A87C" />
<rect x="20" y="14" width="1" height="3" fill="#252540" />
<rect x="21" y="14" width="1" height="1" fill="#E8A87C" />
<rect x="18" y="15" width="1" height="7" fill="#E8A87C" />
<rect x="21" y="15" width="1" height="3" fill="#252540" />
<rect x="22" y="15" width="1" height="1" fill="#E8A87C" />
<rect x="19" y="16" width="1" height="6" fill="#E8A87C" />
<rect x="22" y="16" width="1" height="3" fill="#252540" />
<rect x="23" y="16" width="1" height="1" fill="#E8A87C" />
<rect x="20" y="17" width="1" height="5" fill="#E8A87C" />
<rect x="23" y="17" width="1" height="3" fill="#252540" />
<rect x="24" y="17" width="1" height="1" fill="#E8A87C" />
<rect x="21" y="18" width="1" height="4" fill="#E8A87C" />
<rect x="24" y="18" width="1" height="3" fill="#252540" />
<rect x="25" y="18" width="1" height="1" fill="#E8A87C" />
<rect x="22" y="19" width="1" height="3" fill="#E8A87C" />
<rect x="25" y="19" width="1" height="5" fill="#252540" />
<rect x="26" y="19" width="1" height="1" fill="#E8A87C" />
<rect x="23" y="20" width="1" height="2" fill="#E8A87C" />
<rect x="26" y="20" width="1" height="4" fill="#252540" />
<rect x="27" y="20" width="1" height="1" fill="#E8A87C" />
<rect x="24" y="21" width="1" height="1" fill="#E8A87C" />
<rect x="27" y="21" width="1" height="3" fill="#252540" />
<rect x="28" y="21" width="1" height="1" fill="#E8A87C" />
<rect x="15" y="22" width="10" height="2" fill="#252540" />
<rect x="28" y="22" width="1" height="2" fill="#252540" />
<rect x="29" y="22" width="1" height="1" fill="#E8A87C" />
<rect x="14" y="23" width="1" height="3" fill="#252540" />
<rect x="29" y="23" width="1" height="1" fill="#252540" />
<rect x="30" y="23" width="1" height="1" fill="#E8A87C" />
<rect x="13" y="24" width="1" height="3" fill="#252540" />
<rect x="15" y="24" width="1" height="1" fill="#252540" />
<rect x="16" y="24" width="14" height="1" fill="#E8A87C" />
<rect x="12" y="25" width="1" height="3" fill="#252540" />
<rect x="15" y="25" width="1" height="1" fill="#E8A87C" />
<rect x="11" y="26" width="1" height="3" fill="#252540" />
<rect x="14" y="26" width="1" height="1" fill="#E8A87C" />
<rect x="10" y="27" width="1" height="3" fill="#252540" />
<rect x="13" y="27" width="1" height="1" fill="#E8A87C" />
<rect x="9" y="28" width="1" height="3" fill="#252540" />
<rect x="12" y="28" width="1" height="1" fill="#E8A87C" />
<rect x="11" y="29" width="1" height="1" fill="#E8A87C" />
<rect x="10" y="30" width="1" height="1" fill="#E8A87C" />
<rect x="9" y="31" width="1" height="1" fill="#E8A87C" />
<rect x="8" y="32" width="1" height="1" fill="#E8A87C" />
<rect x="7" y="33" width="1" height="1" fill="#E8A87C" />
</svg>