<?xml version="1.0" encoding="UTF-8" ?>
<svg version="1.1" width="320" height="180" xmlns="http://www.w3.org/2000/svg" shape-rendering="crispEdges">
<rect x="62" y="24" width="12" height="2" fill="#A77C68" />
<rect x="94" y="24" width="13" height="2" fill="#A77C68" />
<rect x="132" y="24" width="13" height="2" fill="#A77C68" />
<rect x="176" y="24" width="13" height="2" fill="#A77C68" />
<rect x="218" y="24" width="13" height="2" fill="#A77C68" />
<rect x="252" y="24" width="12" height="2" fill="#A77C68" />
<rect x="264" y="25" width="1" height="5" fill="#A77C68" />
<rect x="62" y="26" width="2" height="4" fill="#A77C68" />
<rect x="64" y="26" width="4" height="4" fill="#F2E9D8" />
<rect x="68" y="26" width="1" height="4" fill="#A77C68" />
<rect x="69" y="26" width="4" height="4" fill="#F2E9D8" />
<rect x="73" y="26" width="1" height="4" fill="#A77C68" />
<rect x="94" y="26" width="3" height="4" fill="#A77C68" />
<rect x="97" y="26" width="4" height="4" fill="#F2E9D8" />
<rect x="101" y="26" width="1" height="4" fill="#A77C68" />
<rect x="102" y="26" width="4" height="4" fill="#F2E9D8" />
<rect x="106" y="26" width="1" height="4" fill="#A77C68" />
<rect x="132" y="26" width="3" height="4" fill="#A77C68" />
<rect x="135" y="26" width="4" height="4" fill="#F2E9D8" />
<rect x="139" y="26" width="1" height="4" fill="#A77C68" />
<rect x="140" y="26" width="4" height="4" fill="#F2E9D8" />
<rect x="144" y="26" width="1" height="4" fill="#A77C68" />
<rect x="176" y="26" width="2" height="4" fill="#A77C68" />
<rect x="178" y="26" width="4" height="4" fill="#F2E9D8" />
<rect x="182" y="26" width="1" height="4" fill="#A77C68" />
<rect x="183" y="26" width="4" height="4" fill="#F2E9D8" />
<rect x="187" y="26" width="2" height="4" fill="#A77C68" />
<rect x="218" y="26" width="2" height="4" fill="#A77C68" />
<rect x="220" y="26" width="4" height="4" fill="#F2E9D8" />
<rect x="224" y="26" width="1" height="4" fill="#A77C68" />
<rect x="225" y="26" width="4" height="4" fill="#F2E9D8" />
<rect x="229" y="26" width="2" height="4" fill="#A77C68" />
<rect x="252" y="26" width="1" height="4" fill="#A77C68" />
<rect x="253" y="26" width="4" height="4" fill="#F2E9D8" />
<rect x="257" y="26" width="1" height="4" fill="#A77C68" />
<rect x="258" y="26" width="4" height="4" fill="#F2E9D8" />
<rect x="262" y="26" width="2" height="4" fill="#A77C68" />
<rect x="39" y="30" width="242" height="4" fill="#E8A87C" />
<rect x="39" y="34" width="3" height="85" fill="#E8A87C" />
<rect x="42" y="34" width="237" height="1" fill="#665054" />
<rect x="279" y="34" width="2" height="85" fill="#E8A87C" />
<rect x="42" y="35" width="6" height="82" fill="#665054" />
<rect x="48" y="35" width="224" height="80" fill="#252540" />
<rect x="272" y="35" width="7" height="82" fill="#665054" />
<rect x="33" y="84" width="6" height="7" fill="#A77C68" />
<rect x="33" y="91" width="1" height="4" fill="#A77C68" />
<rect x="35" y="91" width="2" height="4" fill="#A77C68" />
<rect x="34" y="93" width="1" height="2" fill="#A77C68" />
<rect x="37" y="93" width="2" height="2" fill="#A77C68" />
<rect x="281" y="96" width="4" height="15" fill="#665054" />
<rect x="285" y="97" width="1" height="14" fill="#665054" />
<rect x="284" y="111" width="1" height="1" fill="#665054" />
<rect x="283" y="112" width="1" height="1" fill="#665054" />
<rect x="282" y="113" width="1" height="1" fill="#665054" />
<rect x="281" y="114" width="1" height="1" fill="#665054" />
<rect x="48" y="115" width="224" height="2" fill="#665054" />
<rect x="42" y="117" width="237" height="2" fill="#E8A87C" />
<rect x="42" y="119" width="242" height="2" fill="#A77C68" />
<rect x="35" y="121" width="1" height="9" fill="#A77C68" />
<rect x="42" y="121" width="239" height="3" fill="#A77C68" />
<rect x="38" y="123" width="4" height="1" fill="#A77C68" />
<rect x="281" y="123" width="1" height="7" fill="#A77C68" />
<rect x="283" y="123" width="1" height="6" fill="#A77C68" />
<rect x="287" y="123" width="1" height="6" fill="#A77C68" />
<rect x="38" y="124" width="243" height="4" fill="#E8A87C" />
<rect x="36" y="128" width="245" height="2" fill="#A77C68" />
<rect x="282" y="128" width="1" height="1" fill="#A77C68" />
<rect x="284" y="128" width="3" height="1" fill="#A77C68" />
<rect x="288" y="128" width="1" height="1" fill="#A77C68" />
<rect x="62" y="130" width="1" height="21" fill="#A77C68" />
<rect x="68" y="130" width="1" height="21" fill="#A77C68" />
<rect x="101" y="130" width="1" height="50" fill="#A77C68" />
<rect x="109" y="130" width="12" height="5" fill="#A77C68" />
<rect x="154" y="130" width="7" height="21" fill="#A77C68" />
<rect x="192" y="130" width="12" height="13" fill="#A77C68" />
<rect x="209" y="130" width="1" height="50" fill="#A77C68" />
<rect x="245" y="130" width="1" height="21" fill="#A77C68" />
<rect x="251" y="130" width="1" height="21" fill="#A77C68" />
<rect x="121" y="132" width="12" height="2" fill="#A77C68" />
<rect x="133" y="133" width="1" height="47" fill="#A77C68" />
<rect x="132" y="134" width="1" height="46" fill="#A77C68" />
<rect x="109" y="135" width="1" height="5" fill="#665054" />
<rect x="110" y="135" width="11" height="2" fill="#A77C68" />
<rect x="121" y="136" width="11" height="1" fill="#A77C68" />
<rect x="134" y="136" width="1" height="3" fill="#A77C68" />
<rect x="102" y="137" width="7" height="2" fill="#A77C68" />
<rect x="110" y="137" width="1" height="3" fill="#665054" />
<rect x="111" y="137" width="10" height="2" fill="#A77C68" />
<rect x="122" y="137" width="1" height="2" fill="#A77C68" />
<rect x="127" y="137" width="1" height="2" fill="#A77C68" />
<rect x="111" y="139" width="1" height="1" fill="#665054" />
<rect x="112" y="139" width="9" height="2" fill="#A77C68" />
<rect x="53" y="140" width="9" height="1" fill="#A77C68" />
<rect x="63" y="140" width="5" height="11" fill="#A77C68" />
<rect x="69" y="140" width="32" height="1" fill="#A77C68" />
<rect x="102" y="140" width="10" height="1" fill="#A77C68" />
<rect x="121" y="140" width="11" height="1" fill="#A77C68" />
<rect x="134" y="140" width="20" height="1" fill="#A77C68" />
<rect x="161" y="140" width="31" height="1" fill="#A77C68" />
<rect x="204" y="140" width="5" height="1" fill="#A77C68" />
<rect x="210" y="140" width="35" height="1" fill="#A77C68" />
<rect x="246" y="140" width="5" height="11" fill="#A77C68" />
<rect x="252" y="140" width="9" height="1" fill="#A77C68" />
<rect x="52" y="141" width="1" height="3" fill="#A77C68" />
<rect x="54" y="141" width="1" height="4" fill="#A77C68" />
<rect x="57" y="141" width="1" height="10" fill="#A77C68" />
<rect x="61" y="141" width="1" height="10" fill="#A77C68" />
<rect x="69" y="141" width="1" height="10" fill="#A77C68" />
<rect x="74" y="141" width="1" height="10" fill="#A77C68" />
<rect x="84" y="141" width="1" height="10" fill="#A77C68" />
<rect x="93" y="141" width="1" height="10" fill="#A77C68" />
<rect x="105" y="141" width="1" height="10" fill="#A77C68" />
<rect x="109" y="141" width="4" height="39" fill="#665054" />
<rect x="113" y="141" width="8" height="39" fill="#A77C68" />
<rect x="146" y="141" width="1" height="10" fill="#A77C68" />
<rect x="165" y="141" width="1" height="10" fill="#A77C68" />
<rect x="175" y="141" width="1" height="10" fill="#A77C68" />
<rect x="184" y="141" width="1" height="10" fill="#A77C68" />
<rect x="220" y="141" width="1" height="10" fill="#A77C68" />
<rect x="228" y="141" width="1" height="10" fill="#A77C68" />
<rect x="237" y="141" width="1" height="10" fill="#A77C68" />
<rect x="252" y="141" width="1" height="10" fill="#A77C68" />
<rect x="255" y="141" width="1" height="10" fill="#A77C68" />
<rect x="258" y="141" width="1" height="4" fill="#A77C68" />
<rect x="261" y="141" width="1" height="3" fill="#A77C68" />
<rect x="192" y="143" width="1" height="37" fill="#665054" />
<rect x="193" y="143" width="11" height="3" fill="#A77C68" />
<rect x="53" y="144" width="1" height="1" fill="#A77C68" />
<rect x="55" y="144" width="2" height="1" fill="#A77C68" />
<rect x="58" y="144" width="3" height="1" fill="#A77C68" />
<rect x="70" y="144" width="4" height="1" fill="#A77C68" />
<rect x="75" y="144" width="9" height="1" fill="#A77C68" />
<rect x="85" y="144" width="8" height="1" fill="#A77C68" />
<rect x="94" y="144" width="7" height="1" fill="#A77C68" />
<rect x="102" y="144" width="3" height="1" fill="#A77C68" />
<rect x="106" y="144" width="3" height="1" fill="#A77C68" />
<rect x="121" y="144" width="11" height="1" fill="#A77C68" />
<rect x="134" y="144" width="12" height="1" fill="#A77C68" />
<rect x="147" y="144" width="7" height="1" fill="#A77C68" />
<rect x="161" y="144" width="4" height="1" fill="#A77C68" />
<rect x="166" y="144" width="9" height="1" fill="#A77C68" />
<rect x="176" y="144" width="8" height="1" fill="#A77C68" />
<rect x="185" y="144" width="7" height="1" fill="#A77C68" />
<rect x="204" y="144" width="5" height="1" fill="#A77C68" />
<rect x="210" y="144" width="10" height="1" fill="#A77C68" />
<rect x="221" y="144" width="7" height="1" fill="#A77C68" />
<rect x="229" y="144" width="8" height="1" fill="#A77C68" />
<rect x="238" y="144" width="7" height="1" fill="#A77C68" />
<rect x="253" y="144" width="2" height="1" fill="#A77C68" />
<rect x="256" y="144" width="2" height="1" fill="#A77C68" />
<rect x="259" y="144" width="2" height="1" fill="#A77C68" />
<rect x="193" y="146" width="1" height="34" fill="#665054" />
<rect x="194" y="146" width="10" height="34" fill="#A77C68" />
<rect x="55" y="147" width="2" height="4" fill="#A77C68" />
<rect x="58" y="147" width="3" height="4" fill="#A77C68" />
<rect x="70" y="147" width="4" height="4" fill="#A77C68" />
<rect x="75" y="147" width="9" height="4" fill="#A77C68" />
<rect x="85" y="147" width="8" height="4" fill="#A77C68" />
<rect x="94" y="147" width="7" height="4" fill="#A77C68" />
<rect x="102" y="147" width="3" height="4" fill="#A77C68" />
<rect x="106" y="147" width="3" height="4" fill="#A77C68" />
<rect x="121" y="147" width="11" height="4" fill="#A77C68" />
<rect x="134" y="147" width="12" height="4" fill="#A77C68" />
<rect x="147" y="147" width="7" height="4" fill="#A77C68" />
<rect x="161" y="147" width="4" height="4" fill="#A77C68" />
<rect x="166" y="147" width="9" height="4" fill="#A77C68" />
<rect x="176" y="147" width="8" height="4" fill="#A77C68" />
<rect x="185" y="147" width="7" height="4" fill="#A77C68" />
<rect x="204" y="147" width="5" height="4" fill="#A77C68" />
<rect x="210" y="147" width="10" height="4" fill="#A77C68" />
<rect x="221" y="147" width="7" height="4" fill="#A77C68" />
<rect x="229" y="147" width="8" height="4" fill="#A77C68" />
<rect x="238" y="147" width="7" height="4" fill="#A77C68" />
<rect x="253" y="147" width="2" height="4" fill="#A77C68" />
<rect x="256" y="147" width="4" height="4" fill="#A77C68" />
<rect x="102" y="151" width="1" height="29" fill="#A77C68" />
</svg>