<?xml version="1.0" encoding="UTF-8" ?>
<svg version="1.1" width="480" height="270" xmlns="http://www.w3.org/2000/svg" shape-rendering="crispEdges">
<rect x="366" y="32" width="1" height="1" fill="#E8A87C" />
<rect x="367" y="32" width="1" height="1" fill="#A77C68" />
<rect x="368" y="32" width="1" height="1" fill="#E8A87C" />
<rect x="369" y="32" width="1" height="1" fill="#A77C68" />
<rect x="364" y="33" width="2" height="1" fill="#E8A87C" />
<rect x="366" y="33" width="1" height="1" fill="#A77C68" />
<rect x="367" y="33" width="1" height="1" fill="#E8A87C" />
<rect x="368" y="33" width="1" height="1" fill="#A77C68" />
<rect x="363" y="34" width="2" height="1" fill="#E8A87C" />
<rect x="365" y="34" width="1" height="1" fill="#A77C68" />
<rect x="366" y="34" width="1" height="1" fill="#E8A87C" />
<rect x="367" y="34" width="1" height="1" fill="#A77C68" />
<rect x="362" y="35" width="1" height="1" fill="#EDBD9C" />
<rect x="363" y="35" width="1" height="4" fill="#E8A87C" />
<rect x="364" y="35" width="1" height="1" fill="#A77C68" />
<rect x="365" y="35" width="1" height="1" fill="#E8A87C" />
<rect x="366" y="35" width="1" height="3" fill="#A77C68" />
<rect x="367" y="35" width="1" height="1" fill="#665054" />
<rect x="361" y="36" width="1" height="1" fill="#EDBD9C" />
<rect x="362" y="36" width="1" height="3" fill="#E8A87C" />
<rect x="364" y="36" width="1" height="2" fill="#E8A87C" />
<rect x="365" y="36" width="1" height="2" fill="#A77C68" />
<rect x="360" y="37" width="1" height="1" fill="#EDBD9C" />
<rect x="361" y="37" width="1" height="5" fill="#E8A87C" />
<rect x="359" y="38" width="1" height="2" fill="#EDBD9C" />
<rect x="360" y="38" width="1" height="7" fill="#E8A87C" />
<rect x="364" y="38" width="1" height="1" fill="#A77C68" />
<rect x="365" y="38" width="2" height="1" fill="#665054" />
<rect x="358" y="39" width="1" height="2" fill="#EDBD9C" />
<rect x="362" y="39" width="2" height="5" fill="#A77C68" />
<rect x="364" y="39" width="2" height="5" fill="#665054" />
<rect x="359" y="40" width="1" height="4" fill="#E8A87C" />
<rect x="357" y="41" width="1" height="7" fill="#EDBD9C" />
<rect x="358" y="41" width="1" height="1" fill="#E8A87C" />
<rect x="358" y="42" width="1" height="2" fill="#EDBD9C" />
<rect x="361" y="42" width="1" height="2" fill="#A77C68" />
<rect x="356" y="43" width="1" height="11" fill="#EDBD9C" />
<rect x="358" y="44" width="1" height="8" fill="#E8A87C" />
<rect x="359" y="44" width="1" height="2" fill="#A77C68" />
<rect x="361" y="44" width="2" height="1" fill="#E8A87C" />
<rect x="363" y="44" width="2" height="7" fill="#A77C68" />
<rect x="365" y="44" width="1" height="1" fill="#665054" />
<rect x="360" y="45" width="2" height="2" fill="#A77C68" />
<rect x="362" y="45" width="1" height="1" fill="#E8A87C" />
<rect x="365" y="45" width="1" height="1" fill="#A77C68" />
<rect x="366" y="45" width="1" height="1" fill="#665054" />
<rect x="359" y="46" width="1" height="6" fill="#E8A87C" />
<rect x="362" y="46" width="1" height="1" fill="#A77C68" />
<rect x="365" y="46" width="1" height="1" fill="#665054" />
<rect x="366" y="46" width="1" height="1" fill="#A77C68" />
<rect x="360" y="47" width="1" height="5" fill="#E8A87C" />
<rect x="361" y="47" width="1" height="3" fill="#A77C68" />
<rect x="362" y="47" width="1" height="1" fill="#E8A87C" />
<rect x="365" y="47" width="1" height="1" fill="#A77C68" />
<rect x="366" y="47" width="1" height="1" fill="#665054" />
<rect x="357" y="48" width="1" height="1" fill="#E8A87C" />
<rect x="362" y="48" width="1" height="1" fill="#A77C68" />
<rect x="365" y="48" width="1" height="1" fill="#665054" />
<rect x="366" y="48" width="1" height="1" fill="#A77C68" />
<rect x="357" y="49" width="1" height="1" fill="#EDBD9C" />
<rect x="362" y="49" width="1" height="1" fill="#E8A87C" />
<rect x="365" y="49" width="1" height="4" fill="#A77C68" />
<rect x="366" y="49" width="1" height="1" fill="#665054" />
<rect x="367" y="49" width="1" height="1" fill="#A77C68" />
<rect x="357" y="50" width="1" height="1" fill="#E8A87C" />
<rect x="361" y="50" width="1" height="2" fill="#E8A87C" />
<rect x="362" y="50" width="1" height="1" fill="#A77C68" />
<rect x="366" y="50" width="1" height="1" fill="#A77C68" />
<rect x="367" y="50" width="1" height="1" fill="#665054" />
<rect x="394" y="50" width="1" height="1" fill="#A77C68" />
<rect x="357" y="51" width="1" height="1" fill="#EDBD9C" />
<rect x="362" y="51" width="2" height="1" fill="#E8A87C" />
<rect x="364" y="51" width="1" height="1" fill="#A77C68" />
<rect x="366" y="51" width="1" height="1" fill="#665054" />
<rect x="367" y="51" width="1" height="1" fill="#A77C68" />
<rect x="368" y="51" width="1" height="1" fill="#665054" />
<rect x="393" y="51" width="1" height="1" fill="#A77C68" />
<rect x="394" y="51" width="1" height="2" fill="#E8A87C" />
<rect x="357" y="52" width="1" height="1" fill="#E8A87C" />
<rect x="358" y="52" width="1" height="1" fill="#EDBD9C" />
<rect x="359" y="52" width="4" height="1" fill="#A77C68" />
<rect x="363" y="52" width="2" height="1" fill="#E8A87C" />
<rect x="366" y="52" width="1" height="7" fill="#A77C68" />
<rect x="367" y="52" width="1" height="1" fill="#665054" />
<rect x="368" y="52" width="1" height="1" fill="#A77C68" />
<rect x="369" y="52" width="1" height="1" fill="#665054" />
<rect x="392" y="52" width="1" height="2" fill="#A77C68" />
<rect x="393" y="52" width="1" height="2" fill="#E8A87C" />
<rect x="357" y="53" width="1" height="1" fill="#EDBD9C" />
<rect x="358" y="53" width="1" height="1" fill="#A77C68" />
<rect x="359" y="53" width="1" height="1" fill="#E8A87C" />
<rect x="360" y="53" width="1" height="3" fill="#A77C68" />
<rect x="361" y="53" width="1" height="1" fill="#E8A87C" />
<rect x="362" y="53" width="2" height="1" fill="#A77C68" />
<rect x="364" y="53" width="2" height="2" fill="#E8A87C" />
<rect x="367" y="53" width="1" height="2" fill="#A77C68" />
<rect x="368" y="53" width="1" height="1" fill="#665054" />
<rect x="369" y="53" width="1" height="1" fill="#A77C68" />
<rect x="370" y="53" width="1" height="1" fill="#665054" />
<rect x="391" y="53" width="1" height="1" fill="#665054" />
<rect x="394" y="53" width="1" height="1" fill="#A77C68" />
<rect x="357" y="54" width="1" height="1" fill="#E8A87C" />
<rect x="358" y="54" width="1" height="1" fill="#EDBD9C" />
<rect x="359" y="54" width="1" height="1" fill="#A77C68" />
<rect x="361" y="54" width="1" height="1" fill="#A77C68" />
<rect x="362" y="54" width="1" height="1" fill="#E8A87C" />
<rect x="363" y="54" width="1" height="1" fill="#A77C68" />
<rect x="368" y="54" width="1" height="5" fill="#A77C68" />
<rect x="369" y="54" width="1" height="3" fill="#665054" />
<rect x="370" y="54" width="2" height="1" fill="#A77C68" />
<rect x="390" y="54" width="1" height="1" fill="#665054" />
<rect x="391" y="54" width="1" height="1" fill="#A77C68" />
<rect x="392" y="54" width="1" height="1" fill="#E8A87C" />
<rect x="393" y="54" width="1" height="1" fill="#A77C68" />
<rect x="394" y="54" width="1" height="1" fill="#E8A87C" />
<rect x="357" y="55" width="1" height="2" fill="#EDBD9C" />
<rect x="358" y="55" width="1" height="2" fill="#E8A87C" />
<rect x="359" y="55" width="1" height="2" fill="#EDBD9C" />
<rect x="361" y="55" width="1" height="1" fill="#E8A87C" />
<rect x="362" y="55" width="1" height="1" fill="#A77C68" />
<rect x="363" y="55" width="1" height="1" fill="#E8A87C" />
<rect x="364" y="55" width="1" height="1" fill="#A77C68" />
<rect x="365" y="55" width="1" height="1" fill="#E8A87C" />
<rect x="367" y="55" width="1" height="4" fill="#E8A87C" />
<rect x="370" y="55" width="1" height="3" fill="#665054" />
<rect x="371" y="55" width="2" height="1" fill="#A77C68" />
<rect x="389" y="55" width="1" height="1" fill="#665054" />
<rect x="390" y="55" width="1" height="1" fill="#A77C68" />
<rect x="391" y="55" width="1" height="1" fill="#E8A87C" />
<rect x="392" y="55" width="1" height="1" fill="#A77C68" />
<rect x="393" y="55" width="1" height="1" fill="#E8A87C" />
<rect x="394" y="55" width="1" height="1" fill="#A77C68" />
<rect x="360" y="56" width="1" height="1" fill="#E8A87C" />
<rect x="361" y="56" width="1" height="1" fill="#A77C68" />
<rect x="362" y="56" width="1" height="1" fill="#E8A87C" />
<rect x="363" y="56" width="1" height="2" fill="#A77C68" />
<rect x="364" y="56" width="1" height="1" fill="#E8A87C" />
<rect x="365" y="56" width="1" height="2" fill="#A77C68" />
<rect x="371" y="56" width="1" height="3" fill="#665054" />
<rect x="372" y="56" width="2" height="1" fill="#A77C68" />
<rect x="374" y="56" width="1" height="4" fill="#665054" />
<rect x="375" y="56" width="1" height="1" fill="#A77C68" />
<rect x="387" y="56" width="1" height="1" fill="#A77C68" />
<rect x="388" y="56" width="1" height="1" fill="#665054" />
<rect x="389" y="56" width="1" height="1" fill="#A77C68" />
<rect x="390" y="56" width="1" height="1" fill="#E8A87C" />
<rect x="391" y="56" width="1" height="1" fill="#A77C68" />
<rect x="392" y="56" width="1" height="1" fill="#E8A87C" />
<rect x="393" y="56" width="1" height="1" fill="#A77C68" />
<rect x="394" y="56" width="1" height="1" fill="#E8A87C" />
<rect x="358" y="57" width="1" height="2" fill="#EDBD9C" />
<rect x="359" y="57" width="1" height="1" fill="#E8A87C" />
<rect x="360" y="57" width="1" height="1" fill="#EDBD9C" />
<rect x="361" y="57" width="1" height="1" fill="#E8A87C" />
<rect x="362" y="57" width="1" height="1" fill="#A77C68" />
<rect x="364" y="57" width="1" height="1" fill="#A77C68" />
<rect x="369" y="57" width="1" height="3" fill="#A77C68" />
<rect x="372" y="57" width="2" height="2" fill="#665054" />
<rect x="375" y="57" width="1" height="1" fill="#665054" />
<rect x="376" y="57" width="2" height="1" fill="#A77C68" />
<rect x="385" y="57" width="2" height="1" fill="#A77C68" />
<rect x="387" y="57" width="1" height="1" fill="#665054" />
<rect x="388" y="57" width="1" height="1" fill="#A77C68" />
<rect x="389" y="57" width="1" height="1" fill="#E8A87C" />
<rect x="390" y="57" width="1" height="1" fill="#A77C68" />
<rect x="391" y="57" width="1" height="1" fill="#E8A87C" />
<rect x="392" y="57" width="1" height="1" fill="#A77C68" />
<rect x="393" y="57" width="1" height="2" fill="#E8A87C" />
<rect x="359" y="58" width="1" height="3" fill="#EDBD9C" />
<rect x="360" y="58" width="1" height="1" fill="#E8A87C" />
<rect x="361" y="58" width="1" height="1" fill="#EDBD9C" />
<rect x="362" y="58" width="4" height="1" fill="#E8A87C" />
<rect x="370" y="58" width="1" height="3" fill="#A77C68" />
<rect x="375" y="58" width="1" height="5" fill="#A77C68" />
<rect x="376" y="58" width="1" height="1" fill="#665054" />
<rect x="377" y="58" width="1" height="1" fill="#A77C68" />
<rect x="378" y="58" width="1" height="1" fill="#665054" />
<rect x="379" y="58" width="1" height="1" fill="#A77C68" />
<rect x="380" y="58" width="1" height="1" fill="#665054" />
<rect x="381" y="58" width="1" height="1" fill="#A77C68" />
<rect x="382" y="58" width="1" height="1" fill="#665054" />
<rect x="383" y="58" width="1" height="1" fill="#A77C68" />
<rect x="384" y="58" width="1" height="1" fill="#665054" />
<rect x="385" y="58" width="1" height="1" fill="#A77C68" />
<rect x="386" y="58" width="1" height="1" fill="#665054" />
<rect x="387" y="58" width="1" height="1" fill="#A77C68" />
<rect x="388" y="58" width="1" height="1" fill="#E8A87C" />
<rect x="389" y="58" width="1" height="1" fill="#A77C68" />
<rect x="390" y="58" width="1" height="1" fill="#E8A87C" />
<rect x="391" y="58" width="1" height="1" fill="#A77C68" />
<rect x="392" y="58" width="1" height="3" fill="#E8A87C" />
<rect x="360" y="59" width="1" height="1" fill="#EDBD9C" />
<rect x="361" y="59" width="1" height="1" fill="#E8A87C" />
<rect x="362" y="59" width="1" height="1" fill="#EDBD9C" />
<rect x="363" y="59" width="4" height="1" fill="#E8A87C" />
<rect x="367" y="59" width="1" height="1" fill="#A77C68" />
<rect x="368" y="59" width="1" height="1" fill="#E8A87C" />
<rect x="371" y="59" width="3" height="3" fill="#A77C68" />
<rect x="376" y="59" width="1" height="3" fill="#A77C68" />
<rect x="377" y="59" width="1" height="1" fill="#665054" />
<rect x="378" y="59" width="1" height="3" fill="#A77C68" />
<rect x="379" y="59" width="1" height="1" fill="#665054" />
<rect x="380" y="59" width="1" height="3" fill="#A77C68" />
<rect x="381" y="59" width="1" height="1" fill="#665054" />
<rect x="382" y="59" width="1" height="3" fill="#A77C68" />
<rect x="383" y="59" width="1" height="1" fill="#665054" />
<rect x="384" y="59" width="1" height="3" fill="#A77C68" />
<rect x="385" y="59" width="1" height="1" fill="#665054" />
<rect x="386" y="59" width="1" height="1" fill="#A77C68" />
<rect x="387" y="59" width="1" height="1" fill="#45283C" />
<rect x="388" y="59" width="1" height="1" fill="#A77C68" />
<rect x="389" y="59" width="1" height="1" fill="#E8A87C" />
<rect x="390" y="59" width="1" height="1" fill="#A77C68" />
<rect x="391" y="59" width="1" height="3" fill="#E8A87C" />
<rect x="360" y="60" width="1" height="1" fill="#E8A87C" />
<rect x="361" y="60" width="1" height="1" fill="#EDBD9C" />
<rect x="362" y="60" width="1" height="1" fill="#E8A87C" />
<rect x="363" y="60" width="1" height="1" fill="#EDBD9C" />
<rect x="364" y="60" width="4" height="1" fill="#E8A87C" />
<rect x="368" y="60" width="1" height="1" fill="#A77C68" />
<rect x="369" y="60" width="1" height="1" fill="#E8A87C" />
<rect x="374" y="60" width="1" height="3" fill="#A77C68" />
<rect x="377" y="60" width="1" height="3" fill="#A77C68" />
<rect x="379" y="60" width="1" height="3" fill="#A77C68" />
<rect x="381" y="60" width="1" height="3" fill="#A77C68" />
<rect x="383" y="60" width="1" height="1" fill="#A77C68" />
<rect x="385" y="60" width="1" height="1" fill="#A77C68" />
<rect x="386" y="60" width="1" height="1" fill="#E8A87C" />
<rect x="387" y="60" width="1" height="1" fill="#A77C68" />
<rect x="388" y="60" width="1" height="1" fill="#E8A87C" />
<rect x="389" y="60" width="1" height="1" fill="#A77C68" />
<rect x="390" y="60" width="1" height="3" fill="#E8A87C" />
<rect x="360" y="61" width="1" height="1" fill="#EDBD9C" />
<rect x="361" y="61" width="1" height="1" fill="#E8A87C" />
<rect x="362" y="61" width="1" height="1" fill="#EDBD9C" />
<rect x="363" y="61" width="1" height="1" fill="#E8A87C" />
<rect x="364" y="61" width="1" height="1" fill="#EDBD9C" />
<rect x="365" y="61" width="4" height="1" fill="#E8A87C" />
<rect x="369" y="61" width="1" height="1" fill="#A77C68" />
<rect x="370" y="61" width="1" height="1" fill="#E8A87C" />
<rect x="383" y="61" width="1" height="1" fill="#E8A87C" />
<rect x="385" y="61" width="1" height="1" fill="#E8A87C" />
<rect x="386" y="61" width="1" height="1" fill="#A77C68" />
<rect x="387" y="61" width="1" height="1" fill="#E8A87C" />
<rect x="388" y="61" width="1" height="1" fill="#A77C68" />
<rect x="389" y="61" width="1" height="3" fill="#E8A87C" />
<rect x="361" y="62" width="1" height="1" fill="#EDBD9C" />
<rect x="362" y="62" width="1" height="1" fill="#E8A87C" />
<rect x="363" y="62" width="1" height="1" fill="#EDBD9C" />
<rect x="364" y="62" width="1" height="1" fill="#E8A87C" />
<rect x="365" y="62" width="1" height="1" fill="#EDBD9C" />
<rect x="366" y="62" width="4" height="1" fill="#E8A87C" />
<rect x="370" y="62" width="1" height="1" fill="#A77C68" />
<rect x="371" y="62" width="1" height="4" fill="#E8A87C" />
<rect x="372" y="62" width="1" height="1" fill="#A77C68" />
<rect x="373" y="62" width="1" height="1" fill="#E8A87C" />
<rect x="376" y="62" width="1" height="1" fill="#E8A87C" />
<rect x="378" y="62" width="1" height="1" fill="#E8A87C" />
<rect x="380" y="62" width="1" height="1" fill="#E8A87C" />
<rect x="382" y="62" width="1" height="1" fill="#E8A87C" />
<rect x="383" y="62" width="1" height="1" fill="#A77C68" />
<rect x="384" y="62" width="1" height="1" fill="#E8A87C" />
<rect x="385" y="62" width="1" height="1" fill="#A77C68" />
<rect x="386" y="62" width="1" height="4" fill="#E8A87C" />
<rect x="387" y="62" width="1" height="1" fill="#A77C68" />
<rect x="388" y="62" width="1" height="2" fill="#E8A87C" />
<rect x="362" y="63" width="1" height="1" fill="#EDBD9C" />
<rect x="363" y="63" width="1" height="1" fill="#E8A87C" />
<rect x="364" y="63" width="1" height="1" fill="#EDBD9C" />
<rect x="365" y="63" width="1" height="1" fill="#E8A87C" />
<rect x="366" y="63" width="1" height="1" fill="#EDBD9C" />
<rect x="367" y="63" width="4" height="1" fill="#E8A87C" />
<rect x="372" y="63" width="1" height="1" fill="#E8A87C" />
<rect x="373" y="63" width="1" height="1" fill="#EDBD9C" />
<rect x="374" y="63" width="2" height="1" fill="#E8A87C" />
<rect x="376" y="63" width="1" height="1" fill="#A77C68" />
<rect x="377" y="63" width="1" height="5" fill="#E8A87C" />
<rect x="378" y="63" width="1" height="1" fill="#A77C68" />
<rect x="379" y="63" width="1" height="5" fill="#E8A87C" />
<rect x="380" y="63" width="1" height="1" fill="#A77C68" />
<rect x="381" y="63" width="1" height="5" fill="#E8A87C" />
<rect x="382" y="63" width="1" height="1" fill="#A77C68" />
<rect x="383" y="63" width="1" height="4" fill="#E8A87C" />
<rect x="384" y="63" width="1" height="1" fill="#A77C68" />
<rect x="385" y="63" width="1" height="3" fill="#E8A87C" />
<rect x="387" y="63" width="1" height="2" fill="#E8A87C" />
<rect x="363" y="64" width="1" height="1" fill="#EDBD9C" />
<rect x="364" y="64" width="1" height="1" fill="#E8A87C" />
<rect x="365" y="64" width="1" height="1" fill="#EDBD9C" />
<rect x="366" y="64" width="1" height="1" fill="#E8A87C" />
<rect x="367" y="64" width="1" height="1" fill="#EDBD9C" />
<rect x="368" y="64" width="3" height="1" fill="#E8A87C" />
<rect x="372" y="64" width="2" height="1" fill="#A77C68" />
<rect x="374" y="64" width="1" height="1" fill="#EDBD9C" />
<rect x="375" y="64" width="2" height="3" fill="#E8A87C" />
<rect x="378" y="64" width="1" height="3" fill="#E8A87C" />
<rect x="380" y="64" width="1" height="3" fill="#E8A87C" />
<rect x="382" y="64" width="1" height="4" fill="#E8A87C" />
<rect x="384" y="64" width="1" height="3" fill="#E8A87C" />
<rect x="388" y="64" width="1" height="1" fill="#EDBD9C" />
<rect x="364" y="65" width="1" height="1" fill="#EDBD9C" />
<rect x="365" y="65" width="1" height="1" fill="#E8A87C" />
<rect x="366" y="65" width="1" height="2" fill="#EDBD9C" />
<rect x="367" y="65" width="1" height="1" fill="#E8A87C" />
<rect x="368" y="65" width="1" height="1" fill="#EDBD9C" />
<rect x="369" y="65" width="1" height="1" fill="#E8A87C" />
<rect x="370" y="65" width="1" height="1" fill="#EDBD9C" />
<rect x="372" y="65" width="1" height="2" fill="#E8A87C" />
<rect x="373" y="65" width="2" height="1" fill="#A77C68" />
<rect x="387" y="65" width="1" height="1" fill="#EDBD9C" />
<rect x="365" y="66" width="1" height="1" fill="#EDBD9C" />
<rect x="367" y="66" width="1" height="2" fill="#EDBD9C" />
<rect x="368" y="66" width="1" height="1" fill="#E8A87C" />
<rect x="369" y="66" width="1" height="1" fill="#EDBD9C" />
<rect x="370" y="66" width="1" height="1" fill="#E8A87C" />
<rect x="371" y="66" width="1" height="1" fill="#EDBD9C" />
<rect x="373" y="66" width="1" height="1" fill="#EDBD9C" />
<rect x="374" y="66" width="1" height="3" fill="#E8A87C" />
<rect x="385" y="66" width="2" height="1" fill="#EDBD9C" />
<rect x="368" y="67" width="1" height="1" fill="#EDBD9C" />
<rect x="369" y="67" width="1" height="1" fill="#E8A87C" />
<rect x="370" y="67" width="1" height="2" fill="#EDBD9C" />
<rect x="371" y="67" width="1" height="1" fill="#E8A87C" />
<rect x="372" y="67" width="1" height="1" fill="#EDBD9C" />
<rect x="373" y="67" width="1" height="1" fill="#E8A87C" />
<rect x="375" y="67" width="1" height="1" fill="#E8A87C" />
<rect x="376" y="67" width="1" height="1" fill="#EDBD9C" />
<rect x="378" y="67" width="1" height="1" fill="#EDBD9C" />
<rect x="380" y="67" width="1" height="1" fill="#EDBD9C" />
<rect x="383" y="67" width="2" height="1" fill="#EDBD9C" />
<rect x="369" y="68" width="1" height="1" fill="#EDBD9C" />
<rect x="371" y="68" width="1" height="1" fill="#EDBD9C" />
<rect x="372" y="68" width="1" height="1" fill="#E8A87C" />
<rect x="373" y="68" width="1" height="2" fill="#EDBD9C" />
<rect x="375" y="68" width="1" height="2" fill="#EDBD9C" />
<rect x="376" y="68" width="1" height="1" fill="#E8A87C" />
<rect x="377" y="68" width="1" height="2" fill="#EDBD9C" />
<rect x="378" y="68" width="1" height="1" fill="#E8A87C" />
<rect x="379" y="68" width="1" height="2" fill="#EDBD9C" />
<rect x="380" y="68" width="1" height="1" fill="#E8A87C" />
<rect x="381" y="68" width="2" height="1" fill="#EDBD9C" />
<rect x="372" y="69" width="1" height="1" fill="#EDBD9C" />
<rect x="374" y="69" width="1" height="1" fill="#EDBD9C" />
<rect x="376" y="69" width="1" height="1" fill="#EDBD9C" />
<rect x="378" y="69" width="1" height="1" fill="#EDBD9C" />
</svg>