<?xml version="1.0" encoding="UTF-8" ?>
<svg version="1.1" width="320" height="180" xmlns="http://www.w3.org/2000/svg" shape-rendering="crispEdges">
<rect x="243" y="30" width="1" height="1" fill="#E8A87C" />
<rect x="244" y="30" width="1" height="1" fill="#A77C68" />
<rect x="245" y="30" width="1" height="1" fill="#E8A87C" />
<rect x="246" y="30" width="1" height="1" fill="#A77C68" />
<rect x="241" y="31" width="2" height="1" fill="#E8A87C" />
<rect x="243" y="31" width="1" height="1" fill="#A77C68" />
<rect x="244" y="31" width="1" height="1" fill="#E8A87C" />
<rect x="245" y="31" width="1" height="1" fill="#A77C68" />
<rect x="240" y="32" width="2" height="1" fill="#E8A87C" />
<rect x="242" y="32" width="1" height="1" fill="#A77C68" />
<rect x="243" y="32" width="1" height="1" fill="#E8A87C" />
<rect x="244" y="32" width="1" height="1" fill="#A77C68" />
<rect x="239" y="33" width="1" height="1" fill="#EDBD9C" />
<rect x="240" y="33" width="1" height="4" fill="#E8A87C" />
<rect x="241" y="33" width="1" height="1" fill="#A77C68" />
<rect x="242" y="33" width="1" height="1" fill="#E8A87C" />
<rect x="243" y="33" width="1" height="3" fill="#A77C68" />
<rect x="244" y="33" width="1" height="1" fill="#665054" />
<rect x="238" y="34" width="1" height="1" fill="#EDBD9C" />
<rect x="239" y="34" width="1" height="3" fill="#E8A87C" />
<rect x="241" y="34" width="1" height="2" fill="#E8A87C" />
<rect x="242" y="34" width="1" height="2" fill="#A77C68" />
<rect x="237" y="35" width="1" height="1" fill="#EDBD9C" />
<rect x="238" y="35" width="1" height="5" fill="#E8A87C" />
<rect x="236" y="36" width="1" height="2" fill="#EDBD9C" />
<rect x="237" y="36" width="1" height="7" fill="#E8A87C" />
<rect x="241" y="36" width="1" height="1" fill="#A77C68" />
<rect x="242" y="36" width="2" height="1" fill="#665054" />
<rect x="235" y="37" width="1" height="2" fill="#EDBD9C" />
<rect x="239" y="37" width="2" height="5" fill="#A77C68" />
<rect x="241" y="37" width="2" height="5" fill="#665054" />
<rect x="236" y="38" width="1" height="4" fill="#E8A87C" />
<rect x="234" y="39" width="1" height="7" fill="#EDBD9C" />
<rect x="235" y="39" width="1" height="1" fill="#E8A87C" />
<rect x="235" y="40" width="1" height="2" fill="#EDBD9C" />
<rect x="238" y="40" width="1" height="2" fill="#A77C68" />
<rect x="233" y="41" width="1" height="11" fill="#EDBD9C" />
<rect x="235" y="42" width="1" height="8" fill="#E8A87C" />
<rect x="236" y="42" width="1" height="2" fill="#A77C68" />
<rect x="238" y="42" width="2" height="1" fill="#E8A87C" />
<rect x="240" y="42" width="2" height="7" fill="#A77C68" />
<rect x="242" y="42" width="1" height="1" fill="#665054" />
<rect x="237" y="43" width="2" height="2" fill="#A77C68" />
<rect x="239" y="43" width="1" height="1" fill="#E8A87C" />
<rect x="242" y="43" width="1" height="1" fill="#A77C68" />
<rect x="243" y="43" width="1" height="1" fill="#665054" />
<rect x="236" y="44" width="1" height="6" fill="#E8A87C" />
<rect x="239" y="44" width="1" height="1" fill="#A77C68" />
<rect x="242" y="44" width="1" height="1" fill="#665054" />
<rect x="243" y="44" width="1" height="1" fill="#A77C68" />
<rect x="237" y="45" width="1" height="5" fill="#E8A87C" />
<rect x="238" y="45" width="1" height="3" fill="#A77C68" />
<rect x="239" y="45" width="1" height="1" fill="#E8A87C" />
<rect x="242" y="45" width="1" height="1" fill="#A77C68" />
<rect x="243" y="45" width="1" height="1" fill="#665054" />
<rect x="234" y="46" width="1" height="1" fill="#E8A87C" />
<rect x="239" y="46" width="1" height="1" fill="#A77C68" />
<rect x="242" y="46" width="1" height="1" fill="#665054" />
<rect x="243" y="46" width="1" height="1" fill="#A77C68" />
<rect x="234" y="47" width="1" height="1" fill="#EDBD9C" />
<rect x="239" y="47" width="1" height="1" fill="#E8A87C" />
<rect x="242" y="47" width="1" height="4" fill="#A77C68" />
<rect x="243" y="47" width="1" height="1" fill="#665054" />
<rect x="244" y="47" width="1" height="1" fill="#A77C68" />
<rect x="234" y="48" width="1" height="1" fill="#E8A87C" />
<rect x="238" y="48" width="1" height="2" fill="#E8A87C" />
<rect x="239" y="48" width="1" height="1" fill="#A77C68" />
<rect x="243" y="48" width="1" height="1" fill="#A77C68" />
<rect x="244" y="48" width="1" height="1" fill="#665054" />
<rect x="271" y="48" width="1" height="1" fill="#A77C68" />
<rect x="234" y="49" width="1" height="1" fill="#EDBD9C" />
<rect x="239" y="49" width="2" height="1" fill="#E8A87C" />
<rect x="241" y="49" width="1" height="1" fill="#A77C68" />
<rect x="243" y="49" width="1" height="1" fill="#665054" />
<rect x="244" y="49" width="1" height="1" fill="#A77C68" />
<rect x="245" y="49" width="1" height="1" fill="#665054" />
<rect x="270" y="49" width="1" height="1" fill="#A77C68" />
<rect x="271" y="49" width="1" height="2" fill="#E8A87C" />
<rect x="234" y="50" width="1" height="1" fill="#E8A87C" />
<rect x="235" y="50" width="1" height="1" fill="#EDBD9C" />
<rect x="236" y="50" width="4" height="1" fill="#A77C68" />
<rect x="240" y="50" width="2" height="1" fill="#E8A87C" />
<rect x="243" y="50" width="1" height="7" fill="#A77C68" />
<rect x="244" y="50" width="1" height="1" fill="#665054" />
<rect x="245" y="50" width="1" height="1" fill="#A77C68" />
<rect x="246" y="50" width="1" height="1" fill="#665054" />
<rect x="269" y="50" width="1" height="2" fill="#A77C68" />
<rect x="270" y="50" width="1" height="2" fill="#E8A87C" />
<rect x="234" y="51" width="1" height="1" fill="#EDBD9C" />
<rect x="235" y="51" width="1" height="1" fill="#A77C68" />
<rect x="236" y="51" width="1" height="1" fill="#E8A87C" />
<rect x="237" y="51" width="1" height="3" fill="#A77C68" />
<rect x="238" y="51" width="1" height="1" fill="#E8A87C" />
<rect x="239" y="51" width="2" height="1" fill="#A77C68" />
<rect x="241" y="51" width="2" height="2" fill="#E8A87C" />
<rect x="244" y="51" width="1" height="2" fill="#A77C68" />
<rect x="245" y="51" width="1" height="1" fill="#665054" />
<rect x="246" y="51" width="1" height="1" fill="#A77C68" />
<rect x="247" y="51" width="1" height="1" fill="#665054" />
<rect x="268" y="51" width="1" height="1" fill="#665054" />
<rect x="271" y="51" width="1" height="1" fill="#A77C68" />
<rect x="234" y="52" width="1" height="1" fill="#E8A87C" />
<rect x="235" y="52" width="1" height="1" fill="#EDBD9C" />
<rect x="236" y="52" width="1" height="1" fill="#A77C68" />
<rect x="238" y="52" width="1" height="1" fill="#A77C68" />
<rect x="239" y="52" width="1" height="1" fill="#E8A87C" />
<rect x="240" y="52" width="1" height="1" fill="#A77C68" />
<rect x="245" y="52" width="1" height="5" fill="#A77C68" />
<rect x="246" y="52" width="1" height="3" fill="#665054" />
<rect x="247" y="52" width="2" height="1" fill="#A77C68" />
<rect x="267" y="52" width="1" height="1" fill="#665054" />
<rect x="268" y="52" width="1" height="1" fill="#A77C68" />
<rect x="269" y="52" width="1" height="1" fill="#E8A87C" />
<rect x="270" y="52" width="1" height="1" fill="#A77C68" />
<rect x="271" y="52" width="1" height="1" fill="#E8A87C" />
<rect x="234" y="53" width="1" height="2" fill="#EDBD9C" />
<rect x="235" y="53" width="1" height="2" fill="#E8A87C" />
<rect x="236" y="53" width="1" height="2" fill="#EDBD9C" />
<rect x="238" y="53" width="1" height="1" fill="#E8A87C" />
<rect x="239" y="53" width="1" height="1" fill="#A77C68" />
<rect x="240" y="53" width="1" height="1" fill="#E8A87C" />
<rect x="241" y="53" width="1" height="1" fill="#A77C68" />
<rect x="242" y="53" width="1" height="1" fill="#E8A87C" />
<rect x="244" y="53" width="1" height="4" fill="#E8A87C" />
<rect x="247" y="53" width="1" height="3" fill="#665054" />
<rect x="248" y="53" width="2" height="1" fill="#A77C68" />
<rect x="266" y="53" width="1" height="1" fill="#665054" />
<rect x="267" y="53" width="1" height="1" fill="#A77C68" />
<rect x="268" y="53" width="1" height="1" fill="#E8A87C" />
<rect x="269" y="53" width="1" height="1" fill="#A77C68" />
<rect x="270" y="53" width="1" height="1" fill="#E8A87C" />
<rect x="271" y="53" width="1" height="1" fill="#A77C68" />
<rect x="237" y="54" width="1" height="1" fill="#E8A87C" />
<rect x="238" y="54" width="1" height="1" fill="#A77C68" />
<rect x="239" y="54" width="1" height="1" fill="#E8A87C" />
<rect x="240" y="54" width="1" height="2" fill="#A77C68" />
<rect x="241" y="54" width="1" height="1" fill="#E8A87C" />
<rect x="242" y="54" width="1" height="2" fill="#A77C68" />
<rect x="248" y="54" width="1" height="3" fill="#665054" />
<rect x="249" y="54" width="2" height="1" fill="#A77C68" />
<rect x="251" y="54" width="1" height="4" fill="#665054" />
<rect x="252" y="54" width="1" height="1" fill="#A77C68" />
<rect x="264" y="54" width="1" height="1" fill="#A77C68" />
<rect x="265" y="54" width="1" height="1" fill="#665054" />
<rect x="266" y="54" width="1" height="1" fill="#A77C68" />
<rect x="267" y="54" width="1" height="1" fill="#E8A87C" />
<rect x="268" y="54" width="1" height="1" fill="#A77C68" />
<rect x="269" y="54" width="1" height="1" fill="#E8A87C" />
<rect x="270" y="54" width="1" height="1" fill="#A77C68" />
<rect x="271" y="54" width="1" height="1" fill="#E8A87C" />
<rect x="235" y="55" width="1" height="2" fill="#EDBD9C" />
<rect x="236" y="55" width="1" height="1" fill="#E8A87C" />
<rect x="237" y="55" width="1" height="1" fill="#EDBD9C" />
<rect x="238" y="55" width="1" height="1" fill="#E8A87C" />
<rect x="239" y="55" width="1" height="1" fill="#A77C68" />
<rect x="241" y="55" width="1" height="1" fill="#A77C68" />
<rect x="246" y="55" width="1" height="3" fill="#A77C68" />
<rect x="249" y="55" width="2" height="2" fill="#665054" />
<rect x="252" y="55" width="1" height="1" fill="#665054" />
<rect x="253" y="55" width="2" height="1" fill="#A77C68" />
<rect x="262" y="55" width="2" height="1" fill="#A77C68" />
<rect x="264" y="55" width="1" height="1" fill="#665054" />
<rect x="265" y="55" width="1" height="1" fill="#A77C68" />
<rect x="266" y="55" width="1" height="1" fill="#E8A87C" />
<rect x="267" y="55" width="1" height="1" fill="#A77C68" />
<rect x="268" y="55" width="1" height="1" fill="#E8A87C" />
<rect x="269" y="55" width="1" height="1" fill="#A77C68" />
<rect x="270" y="55" width="1" height="2" fill="#E8A87C" />
<rect x="236" y="56" width="1" height="3" fill="#EDBD9C" />
<rect x="237" y="56" width="1" height="1" fill="#E8A87C" />
<rect x="238" y="56" width="1" height="1" fill="#EDBD9C" />
<rect x="239" y="56" width="4" height="1" fill="#E8A87C" />
<rect x="247" y="56" width="1" height="3" fill="#A77C68" />
<rect x="252" y="56" width="1" height="5" fill="#A77C68" />
<rect x="253" y="56" width="1" height="1" fill="#665054" />
<rect x="254" y="56" width="1" height="1" fill="#A77C68" />
<rect x="255" y="56" width="1" height="1" fill="#665054" />
<rect x="256" y="56" width="1" height="1" fill="#A77C68" />
<rect x="257" y="56" width="1" height="1" fill="#665054" />
<rect x="258" y="56" width="1" height="1" fill="#A77C68" />
<rect x="259" y="56" width="1" height="1" fill="#665054" />
<rect x="260" y="56" width="1" height="1" fill="#A77C68" />
<rect x="261" y="56" width="1" height="1" fill="#665054" />
<rect x="262" y="56" width="1" height="1" fill="#A77C68" />
<rect x="263" y="56" width="1" height="1" fill="#665054" />
<rect x="264" y="56" width="1" height="1" fill="#A77C68" />
<rect x="265" y="56" width="1" height="1" fill="#E8A87C" />
<rect x="266" y="56" width="1" height="1" fill="#A77C68" />
<rect x="267" y="56" width="1" height="1" fill="#E8A87C" />
<rect x="268" y="56" width="1" height="1" fill="#A77C68" />
<rect x="269" y="56" width="1" height="3" fill="#E8A87C" />
<rect x="237" y="57" width="1" height="1" fill="#EDBD9C" />
<rect x="238" y="57" width="1" height="1" fill="#E8A87C" />
<rect x="239" y="57" width="1" height="1" fill="#EDBD9C" />
<rect x="240" y="57" width="4" height="1" fill="#E8A87C" />
<rect x="244" y="57" width="1" height="1" fill="#A77C68" />
<rect x="245" y="57" width="1" height="1" fill="#E8A87C" />
<rect x="248" y="57" width="3" height="3" fill="#A77C68" />
<rect x="253" y="57" width="1" height="3" fill="#A77C68" />
<rect x="254" y="57" width="1" height="1" fill="#665054" />
<rect x="255" y="57" width="1" height="3" fill="#A77C68" />
<rect x="256" y="57" width="1" height="1" fill="#665054" />
<rect x="257" y="57" width="1" height="3" fill="#A77C68" />
<rect x="258" y="57" width="1" height="1" fill="#665054" />
<rect x="259" y="57" width="1" height="3" fill="#A77C68" />
<rect x="260" y="57" width="1" height="1" fill="#665054" />
<rect x="261" y="57" width="1" height="3" fill="#A77C68" />
<rect x="262" y="57" width="1" height="1" fill="#665054" />
<rect x="263" y="57" width="1" height="1" fill="#A77C68" />
<rect x="264" y="57" width="1" height="1" fill="#E8A87C" />
<rect x="265" y="57" width="1" height="1" fill="#A77C68" />
<rect x="266" y="57" width="1" height="1" fill="#E8A87C" />
<rect x="267" y="57" width="1" height="1" fill="#A77C68" />
<rect x="268" y="57" width="1" height="3" fill="#E8A87C" />
<rect x="237" y="58" width="1" height="1" fill="#E8A87C" />
<rect x="238" y="58" width="1" height="1" fill="#EDBD9C" />
<rect x="239" y="58" width="1" height="1" fill="#E8A87C" />
<rect x="240" y="58" width="1" height="1" fill="#EDBD9C" />
<rect x="241" y="58" width="4" height="1" fill="#E8A87C" />
<rect x="245" y="58" width="1" height="1" fill="#A77C68" />
<rect x="246" y="58" width="1" height="1" fill="#E8A87C" />
<rect x="251" y="58" width="1" height="3" fill="#A77C68" />
<rect x="254" y="58" width="1" height="3" fill="#A77C68" />
<rect x="256" y="58" width="1" height="3" fill="#A77C68" />
<rect x="258" y="58" width="1" height="3" fill="#A77C68" />
<rect x="260" y="58" width="1" height="1" fill="#A77C68" />
<rect x="262" y="58" width="1" height="1" fill="#A77C68" />
<rect x="263" y="58" width="1" height="1" fill="#E8A87C" />
<rect x="264" y="58" width="1" height="1" fill="#A77C68" />
<rect x="265" y="58" width="1" height="1" fill="#E8A87C" />
<rect x="266" y="58" width="1" height="1" fill="#A77C68" />
<rect x="267" y="58" width="1" height="3" fill="#E8A87C" />
<rect x="237" y="59" width="1" height="1" fill="#EDBD9C" />
<rect x="238" y="59" width="1" height="1" fill="#E8A87C" />
<rect x="239" y="59" width="1" height="1" fill="#EDBD9C" />
<rect x="240" y="59" width="1" height="1" fill="#E8A87C" />
<rect x="241" y="59" width="1" height="1" fill="#EDBD9C" />
<rect x="242" y="59" width="4" height="1" fill="#E8A87C" />
<rect x="246" y="59" width="1" height="1" fill="#A77C68" />
<rect x="247" y="59" width="1" height="1" fill="#E8A87C" />
<rect x="260" y="59" width="1" height="1" fill="#E8A87C" />
<rect x="262" y="59" width="1" height="1" fill="#E8A87C" />
<rect x="263" y="59" width="1" height="1" fill="#A77C68" />
<rect x="264" y="59" width="1" height="1" fill="#E8A87C" />
<rect x="265" y="59" width="1" height="1" fill="#A77C68" />
<rect x="266" y="59" width="1" height="3" fill="#E8A87C" />
<rect x="238" y="60" width="1" height="1" fill="#EDBD9C" />
<rect x="239" y="60" width="1" height="1" fill="#E8A87C" />
<rect x="240" y="60" width="1" height="1" fill="#EDBD9C" />
<rect x="241" y="60" width="1" height="1" fill="#E8A87C" />
<rect x="242" y="60" width="1" height="1" fill="#EDBD9C" />
<rect x="243" y="60" width="4" height="1" fill="#E8A87C" />
<rect x="247" y="60" width="1" height="1" fill="#A77C68" />
<rect x="248" y="60" width="1" height="4" fill="#E8A87C" />
<rect x="249" y="60" width="1" height="1" fill="#A77C68" />
<rect x="250" y="60" width="1" height="1" fill="#E8A87C" />
<rect x="253" y="60" width="1" height="1" fill="#E8A87C" />
<rect x="255" y="60" width="1" height="1" fill="#E8A87C" />
<rect x="257" y="60" width="1" height="1" fill="#E8A87C" />
<rect x="259" y="60" width="1" height="1" fill="#E8A87C" />
<rect x="260" y="60" width="1" height="1" fill="#A77C68" />
<rect x="261" y="60" width="1" height="1" fill="#E8A87C" />
<rect x="262" y="60" width="1" height="1" fill="#A77C68" />
<rect x="263" y="60" width="1" height="4" fill="#E8A87C" />
<rect x="264" y="60" width="1" height="1" fill="#A77C68" />
<rect x="265" y="60" width="1" height="2" fill="#E8A87C" />
<rect x="239" y="61" width="1" height="1" fill="#EDBD9C" />
<rect x="240" y="61" width="1" height="1" fill="#E8A87C" />
<rect x="241" y="61" width="1" height="1" fill="#EDBD9C" />
<rect x="242" y="61" width="1" height="1" fill="#E8A87C" />
<rect x="243" y="61" width="1" height="1" fill="#EDBD9C" />
<rect x="244" y="61" width="4" height="1" fill="#E8A87C" />
<rect x="249" y="61" width="1" height="1" fill="#E8A87C" />
<rect x="250" y="61" width="1" height="1" fill="#EDBD9C" />
<rect x="251" y="61" width="2" height="1" fill="#E8A87C" />
<rect x="253" y="61" width="1" height="1" fill="#A77C68" />
<rect x="254" y="61" width="1" height="5" fill="#E8A87C" />
<rect x="255" y="61" width="1" height="1" fill="#A77C68" />
<rect x="256" y="61" width="1" height="5" fill="#E8A87C" />
<rect x="257" y="61" width="1" height="1" fill="#A77C68" />
<rect x="258" y="61" width="1" height="5" fill="#E8A87C" />
<rect x="259" y="61" width="1" height="1" fill="#A77C68" />
<rect x="260" y="61" width="1" height="4" fill="#E8A87C" />
<rect x="261" y="61" width="1" height="1" fill="#A77C68" />
<rect x="262" y="61" width="1" height="3" fill="#E8A87C" />
<rect x="264" y="61" width="1" height="2" fill="#E8A87C" />
<rect x="240" y="62" width="1" height="1" fill="#EDBD9C" />
<rect x="241" y="62" width="1" height="1" fill="#E8A87C" />
<rect x="242" y="62" width="1" height="1" fill="#EDBD9C" />
<rect x="243" y="62" width="1" height="1" fill="#E8A87C" />
<rect x="244" y="62" width="1" height="1" fill="#EDBD9C" />
<rect x="245" y="62" width="3" height="1" fill="#E8A87C" />
<rect x="249" y="62" width="2" height="1" fill="#A77C68" />
<rect x="251" y="62" width="1" height="1" fill="#EDBD9C" />
<rect x="252" y="62" width="2" height="3" fill="#E8A87C" />
<rect x="255" y="62" width="1" height="3" fill="#E8A87C" />
<rect x="257" y="62" width="1" height="3" fill="#E8A87C" />
<rect x="259" y="62" width="1" height="4" fill="#E8A87C" />
<rect x="261" y="62" width="1" height="3" fill="#E8A87C" />
<rect x="265" y="62" width="1" height="1" fill="#EDBD9C" />
<rect x="241" y="63" width="1" height="1" fill="#EDBD9C" />
<rect x="242" y="63" width="1" height="1" fill="#E8A87C" />
<rect x="243" y="63" width="1" height="2" fill="#EDBD9C" />
<rect x="244" y="63" width="1" height="1" fill="#E8A87C" />
<rect x="245" y="63" width="1" height="1" fill="#EDBD9C" />
<rect x="246" y="63" width="1" height="1" fill="#E8A87C" />
<rect x="247" y="63" width="1" height="1" fill="#EDBD9C" />
<rect x="249" y="63" width="1" height="2" fill="#E8A87C" />
<rect x="250" y="63" width="2" height="1" fill="#A77C68" />
<rect x="264" y="63" width="1" height="1" fill="#EDBD9C" />
<rect x="242" y="64" width="1" height="1" fill="#EDBD9C" />
<rect x="244" y="64" width="1" height="2" fill="#EDBD9C" />
<rect x="245" y="64" width="1" height="1" fill="#E8A87C" />
<rect x="246" y="64" width="1" height="1" fill="#EDBD9C" />
<rect x="247" y="64" width="1" height="1" fill="#E8A87C" />
<rect x="248" y="64" width="1" height="1" fill="#EDBD9C" />
<rect x="250" y="64" width="1" height="1" fill="#EDBD9C" />
<rect x="251" y="64" width="1" height="3" fill="#E8A87C" />
<rect x="262" y="64" width="2" height="1" fill="#EDBD9C" />
<rect x="245" y="65" width="1" height="1" fill="#EDBD9C" />
<rect x="246" y="65" width="1" height="1" fill="#E8A87C" />
<rect x="247" y="65" width="1" height="2" fill="#EDBD9C" />
<rect x="248" y="65" width="1" height="1" fill="#E8A87C" />
<rect x="249" y="65" width="1" height="1" fill="#EDBD9C" />
<rect x="250" y="65" width="1" height="1" fill="#E8A87C" />
<rect x="252" y="65" width="1" height="1" fill="#E8A87C" />
<rect x="253" y="65" width="1" height="1" fill="#EDBD9C" />
<rect x="255" y="65" width="1" height="1" fill="#EDBD9C" />
<rect x="257" y="65" width="1" height="1" fill="#EDBD9C" />
<rect x="260" y="65" width="2" height="1" fill="#EDBD9C" />
<rect x="246" y="66" width="1" height="1" fill="#EDBD9C" />
<rect x="248" y="66" width="1" height="1" fill="#EDBD9C" />
<rect x="249" y="66" width="1" height="1" fill="#E8A87C" />
<rect x="250" y="66" width="1" height="2" fill="#EDBD9C" />
<rect x="252" y="66" width="1" height="2" fill="#EDBD9C" />
<rect x="253" y="66" width="1" height="1" fill="#E8A87C" />
<rect x="254" y="66" width="1" height="2" fill="#EDBD9C" />
<rect x="255" y="66" width="1" height="1" fill="#E8A87C" />
<rect x="256" y="66" width="1" height="2" fill="#EDBD9C" />
<rect x="257" y="66" width="1" height="1" fill="#E8A87C" />
<rect x="258" y="66" width="2" height="1" fill="#EDBD9C" />
<rect x="249" y="67" width="1" height="1" fill="#EDBD9C" />
<rect x="251" y="67" width="1" height="1" fill="#EDBD9C" />
<rect x="253" y="67" width="1" height="1" fill="#EDBD9C" />
<rect x="255" y="67" width="1" height="1" fill="#EDBD9C" />
</svg>