<?xml version="1.0" encoding="UTF-8" ?>
<svg version="1.1" width="320" height="180" xmlns="http://www.w3.org/2000/svg" shape-rendering="crispEdges">
<rect x="251" y="30" width="1" height="1" fill="#E8A87C" />
<rect x="252" y="30" width="1" height="1" fill="#A77C68" />
<rect x="253" y="30" width="1" height="1" fill="#E8A87C" />
<rect x="254" y="30" width="1" height="1" fill="#A77C68" />
<rect x="249" y="31" width="2" height="1" fill="#E8A87C" />
<rect x="251" y="31" width="1" height="1" fill="#A77C68" />
<rect x="252" y="31" width="1" height="1" fill="#E8A87C" />
<rect x="253" y="31" width="1" height="1" fill="#A77C68" />
<rect x="248" y="32" width="2" height="1" fill="#E8A87C" />
<rect x="250" y="32" width="1" height="1" fill="#A77C68" />
<rect x="251" y="32" width="1" height="1" fill="#E8A87C" />
<rect x="252" y="32" width="1" height="1" fill="#A77C68" />
<rect x="247" y="33" width="1" height="1" fill="#EDBD9C" />
<rect x="248" y="33" width="1" height="4" fill="#E8A87C" />
<rect x="249" y="33" width="1" height="1" fill="#A77C68" />
<rect x="250" y="33" width="1" height="1" fill="#E8A87C" />
<rect x="251" y="33" width="1" height="3" fill="#A77C68" />
<rect x="252" y="33" width="1" height="1" fill="#665054" />
<rect x="246" y="34" width="1" height="1" fill="#EDBD9C" />
<rect x="247" y="34" width="1" height="3" fill="#E8A87C" />
<rect x="249" y="34" width="1" height="2" fill="#E8A87C" />
<rect x="250" y="34" width="1" height="2" fill="#A77C68" />
<rect x="245" y="35" width="1" height="1" fill="#EDBD9C" />
<rect x="246" y="35" width="1" height="5" fill="#E8A87C" />
<rect x="244" y="36" width="1" height="2" fill="#EDBD9C" />
<rect x="245" y="36" width="1" height="7" fill="#E8A87C" />
<rect x="249" y="36" width="1" height="1" fill="#A77C68" />
<rect x="250" y="36" width="2" height="1" fill="#665054" />
<rect x="243" y="37" width="1" height="2" fill="#EDBD9C" />
<rect x="247" y="37" width="2" height="5" fill="#A77C68" />
<rect x="249" y="37" width="2" height="5" fill="#665054" />
<rect x="244" y="38" width="1" height="4" fill="#E8A87C" />
<rect x="242" y="39" width="1" height="7" fill="#EDBD9C" />
<rect x="243" y="39" width="1" height="1" fill="#E8A87C" />
<rect x="243" y="40" width="1" height="2" fill="#EDBD9C" />
<rect x="246" y="40" width="1" height="2" fill="#A77C68" />
<rect x="241" y="41" width="1" height="11" fill="#EDBD9C" />
<rect x="243" y="42" width="1" height="8" fill="#E8A87C" />
<rect x="244" y="42" width="1" height="2" fill="#A77C68" />
<rect x="246" y="42" width="2" height="1" fill="#E8A87C" />
<rect x="248" y="42" width="2" height="7" fill="#A77C68" />
<rect x="250" y="42" width="1" height="1" fill="#665054" />
<rect x="245" y="43" width="2" height="2" fill="#A77C68" />
<rect x="247" y="43" width="1" height="1" fill="#E8A87C" />
<rect x="250" y="43" width="1" height="1" fill="#A77C68" />
<rect x="251" y="43" width="1" height="1" fill="#665054" />
<rect x="244" y="44" width="1" height="6" fill="#E8A87C" />
<rect x="247" y="44" width="1" height="1" fill="#A77C68" />
<rect x="250" y="44" width="1" height="1" fill="#665054" />
<rect x="251" y="44" width="1" height="1" fill="#A77C68" />
<rect x="245" y="45" width="1" height="5" fill="#E8A87C" />
<rect x="246" y="45" width="1" height="3" fill="#A77C68" />
<rect x="247" y="45" width="1" height="1" fill="#E8A87C" />
<rect x="250" y="45" width="1" height="1" fill="#A77C68" />
<rect x="251" y="45" width="1" height="1" fill="#665054" />
<rect x="242" y="46" width="1" height="1" fill="#E8A87C" />
<rect x="247" y="46" width="1" height="1" fill="#A77C68" />
<rect x="250" y="46" width="1" height="1" fill="#665054" />
<rect x="251" y="46" width="1" height="1" fill="#A77C68" />
<rect x="242" y="47" width="1" height="1" fill="#EDBD9C" />
<rect x="247" y="47" width="1" height="1" fill="#E8A87C" />
<rect x="250" y="47" width="1" height="4" fill="#A77C68" />
<rect x="251" y="47" width="1" height="1" fill="#665054" />
<rect x="252" y="47" width="1" height="1" fill="#A77C68" />
<rect x="242" y="48" width="1" height="1" fill="#E8A87C" />
<rect x="246" y="48" width="1" height="2" fill="#E8A87C" />
<rect x="247" y="48" width="1" height="1" fill="#A77C68" />
<rect x="251" y="48" width="1" height="1" fill="#A77C68" />
<rect x="252" y="48" width="1" height="1" fill="#665054" />
<rect x="279" y="48" width="1" height="1" fill="#A77C68" />
<rect x="242" y="49" width="1" height="1" fill="#EDBD9C" />
<rect x="247" y="49" width="2" height="1" fill="#E8A87C" />
<rect x="249" y="49" width="1" height="1" fill="#A77C68" />
<rect x="251" y="49" width="1" height="1" fill="#665054" />
<rect x="252" y="49" width="1" height="1" fill="#A77C68" />
<rect x="253" y="49" width="1" height="1" fill="#665054" />
<rect x="278" y="49" width="1" height="1" fill="#A77C68" />
<rect x="279" y="49" width="1" height="2" fill="#E8A87C" />
<rect x="242" y="50" width="1" height="1" fill="#E8A87C" />
<rect x="243" y="50" width="1" height="1" fill="#EDBD9C" />
<rect x="244" y="50" width="4" height="1" fill="#A77C68" />
<rect x="248" y="50" width="2" height="1" fill="#E8A87C" />
<rect x="251" y="50" width="1" height="7" fill="#A77C68" />
<rect x="252" y="50" width="1" height="1" fill="#665054" />
<rect x="253" y="50" width="1" height="1" fill="#A77C68" />
<rect x="254" y="50" width="1" height="1" fill="#665054" />
<rect x="277" y="50" width="1" height="2" fill="#A77C68" />
<rect x="278" y="50" width="1" height="2" fill="#E8A87C" />
<rect x="242" y="51" width="1" height="1" fill="#EDBD9C" />
<rect x="243" y="51" width="1" height="1" fill="#A77C68" />
<rect x="244" y="51" width="1" height="1" fill="#E8A87C" />
<rect x="245" y="51" width="1" height="3" fill="#A77C68" />
<rect x="246" y="51" width="1" height="1" fill="#E8A87C" />
<rect x="247" y="51" width="2" height="1" fill="#A77C68" />
<rect x="249" y="51" width="2" height="2" fill="#E8A87C" />
<rect x="252" y="51" width="1" height="2" fill="#A77C68" />
<rect x="253" y="51" width="1" height="1" fill="#665054" />
<rect x="254" y="51" width="1" height="1" fill="#A77C68" />
<rect x="255" y="51" width="1" height="1" fill="#665054" />
<rect x="276" y="51" width="1" height="1" fill="#665054" />
<rect x="279" y="51" width="1" height="1" fill="#A77C68" />
<rect x="242" y="52" width="1" height="1" fill="#E8A87C" />
<rect x="243" y="52" width="1" height="1" fill="#EDBD9C" />
<rect x="244" y="52" width="1" height="1" fill="#A77C68" />
<rect x="246" y="52" width="1" height="1" fill="#A77C68" />
<rect x="247" y="52" width="1" height="1" fill="#E8A87C" />
<rect x="248" y="52" width="1" height="1" fill="#A77C68" />
<rect x="253" y="52" width="1" height="5" fill="#A77C68" />
<rect x="254" y="52" width="1" height="3" fill="#665054" />
<rect x="255" y="52" width="2" height="1" fill="#A77C68" />
<rect x="275" y="52" width="1" height="1" fill="#665054" />
<rect x="276" y="52" width="1" height="1" fill="#A77C68" />
<rect x="277" y="52" width="1" height="1" fill="#E8A87C" />
<rect x="278" y="52" width="1" height="1" fill="#A77C68" />
<rect x="279" y="52" width="1" height="1" fill="#E8A87C" />
<rect x="242" y="53" width="1" height="2" fill="#EDBD9C" />
<rect x="243" y="53" width="1" height="2" fill="#E8A87C" />
<rect x="244" y="53" width="1" height="2" fill="#EDBD9C" />
<rect x="246" y="53" width="1" height="1" fill="#E8A87C" />
<rect x="247" y="53" width="1" height="1" fill="#A77C68" />
<rect x="248" y="53" width="1" height="1" fill="#E8A87C" />
<rect x="249" y="53" width="1" height="1" fill="#A77C68" />
<rect x="250" y="53" width="1" height="1" fill="#E8A87C" />
<rect x="252" y="53" width="1" height="4" fill="#E8A87C" />
<rect x="255" y="53" width="1" height="3" fill="#665054" />
<rect x="256" y="53" width="2" height="1" fill="#A77C68" />
<rect x="274" y="53" width="1" height="1" fill="#665054" />
<rect x="275" y="53" width="1" height="1" fill="#A77C68" />
<rect x="276" y="53" width="1" height="1" fill="#E8A87C" />
<rect x="277" y="53" width="1" height="1" fill="#A77C68" />
<rect x="278" y="53" width="1" height="1" fill="#E8A87C" />
<rect x="279" y="53" width="1" height="1" fill="#A77C68" />
<rect x="245" y="54" width="1" height="1" fill="#E8A87C" />
<rect x="246" y="54" width="1" height="1" fill="#A77C68" />
<rect x="247" y="54" width="1" height="1" fill="#E8A87C" />
<rect x="248" y="54" width="1" height="2" fill="#A77C68" />
<rect x="249" y="54" width="1" height="1" fill="#E8A87C" />
<rect x="250" y="54" width="1" height="2" fill="#A77C68" />
<rect x="256" y="54" width="1" height="3" fill="#665054" />
<rect x="257" y="54" width="2" height="1" fill="#A77C68" />
<rect x="259" y="54" width="1" height="4" fill="#665054" />
<rect x="260" y="54" width="1" height="1" fill="#A77C68" />
<rect x="272" y="54" width="1" height="1" fill="#A77C68" />
<rect x="273" y="54" width="1" height="1" fill="#665054" />
<rect x="274" y="54" width="1" height="1" fill="#A77C68" />
<rect x="275" y="54" width="1" height="1" fill="#E8A87C" />
<rect x="276" y="54" width="1" height="1" fill="#A77C68" />
<rect x="277" y="54" width="1" height="1" fill="#E8A87C" />
<rect x="278" y="54" width="1" height="1" fill="#A77C68" />
<rect x="279" y="54" width="1" height="1" fill="#E8A87C" />
<rect x="243" y="55" width="1" height="2" fill="#EDBD9C" />
<rect x="244" y="55" width="1" height="1" fill="#E8A87C" />
<rect x="245" y="55" width="1" height="1" fill="#EDBD9C" />
<rect x="246" y="55" width="1" height="1" fill="#E8A87C" />
<rect x="247" y="55" width="1" height="1" fill="#A77C68" />
<rect x="249" y="55" width="1" height="1" fill="#A77C68" />
<rect x="254" y="55" width="1" height="3" fill="#A77C68" />
<rect x="257" y="55" width="2" height="2" fill="#665054" />
<rect x="260" y="55" width="1" height="1" fill="#665054" />
<rect x="261" y="55" width="2" height="1" fill="#A77C68" />
<rect x="270" y="55" width="2" height="1" fill="#A77C68" />
<rect x="272" y="55" width="1" height="1" fill="#665054" />
<rect x="273" y="55" width="1" height="1" fill="#A77C68" />
<rect x="274" y="55" width="1" height="1" fill="#E8A87C" />
<rect x="275" y="55" width="1" height="1" fill="#A77C68" />
<rect x="276" y="55" width="1" height="1" fill="#E8A87C" />
<rect x="277" y="55" width="1" height="1" fill="#A77C68" />
<rect x="278" y="55" width="1" height="2" fill="#E8A87C" />
<rect x="244" y="56" width="1" height="3" fill="#EDBD9C" />
<rect x="245" y="56" width="1" height="1" fill="#E8A87C" />
<rect x="246" y="56" width="1" height="1" fill="#EDBD9C" />
<rect x="247" y="56" width="4" height="1" fill="#E8A87C" />
<rect x="255" y="56" width="1" height="3" fill="#A77C68" />
<rect x="260" y="56" width="1" height="5" fill="#A77C68" />
<rect x="261" y="56" width="1" height="1" fill="#665054" />
<rect x="262" y="56" width="1" height="1" fill="#A77C68" />
<rect x="263" y="56" width="1" height="1" fill="#665054" />
<rect x="264" y="56" width="1" height="1" fill="#A77C68" />
<rect x="265" y="56" width="1" height="1" fill="#665054" />
<rect x="266" y="56" width="1" height="1" fill="#A77C68" />
<rect x="267" y="56" width="1" height="1" fill="#665054" />
<rect x="268" y="56" width="1" height="1" fill="#A77C68" />
<rect x="269" y="56" width="1" height="1" fill="#665054" />
<rect x="270" y="56" width="1" height="1" fill="#A77C68" />
<rect x="271" y="56" width="1" height="1" fill="#665054" />
<rect x="272" y="56" width="1" height="1" fill="#A77C68" />
<rect x="273" y="56" width="1" height="1" fill="#E8A87C" />
<rect x="274" y="56" width="1" height="1" fill="#A77C68" />
<rect x="275" y="56" width="1" height="1" fill="#E8A87C" />
<rect x="276" y="56" width="1" height="1" fill="#A77C68" />
<rect x="277" y="56" width="1" height="3" fill="#E8A87C" />
<rect x="245" y="57" width="1" height="1" fill="#EDBD9C" />
<rect x="246" y="57" width="1" height="1" fill="#E8A87C" />
<rect x="247" y="57" width="1" height="1" fill="#EDBD9C" />
<rect x="248" y="57" width="4" height="1" fill="#E8A87C" />
<rect x="252" y="57" width="1" height="1" fill="#A77C68" />
<rect x="253" y="57" width="1" height="1" fill="#E8A87C" />
<rect x="256" y="57" width="3" height="3" fill="#A77C68" />
<rect x="261" y="57" width="1" height="3" fill="#A77C68" />
<rect x="262" y="57" width="1" height="1" fill="#665054" />
<rect x="263" y="57" width="1" height="3" fill="#A77C68" />
<rect x="264" y="57" width="1" height="1" fill="#665054" />
<rect x="265" y="57" width="1" height="3" fill="#A77C68" />
<rect x="266" y="57" width="1" height="1" fill="#665054" />
<rect x="267" y="57" width="1" height="3" fill="#A77C68" />
<rect x="268" y="57" width="1" height="1" fill="#665054" />
<rect x="269" y="57" width="1" height="3" fill="#A77C68" />
<rect x="270" y="57" width="1" height="1" fill="#665054" />
<rect x="271" y="57" width="1" height="1" fill="#A77C68" />
<rect x="272" y="57" width="1" height="1" fill="#E8A87C" />
<rect x="273" y="57" width="1" height="1" fill="#A77C68" />
<rect x="274" y="57" width="1" height="1" fill="#E8A87C" />
<rect x="275" y="57" width="1" height="1" fill="#A77C68" />
<rect x="276" y="57" width="1" height="3" fill="#E8A87C" />
<rect x="245" y="58" width="1" height="1" fill="#E8A87C" />
<rect x="246" y="58" width="1" height="1" fill="#EDBD9C" />
<rect x="247" y="58" width="1" height="1" fill="#E8A87C" />
<rect x="248" y="58" width="1" height="1" fill="#EDBD9C" />
<rect x="249" y="58" width="4" height="1" fill="#E8A87C" />
<rect x="253" y="58" width="1" height="1" fill="#A77C68" />
<rect x="254" y="58" width="1" height="1" fill="#E8A87C" />
<rect x="259" y="58" width="1" height="3" fill="#A77C68" />
<rect x="262" y="58" width="1" height="3" fill="#A77C68" />
<rect x="264" y="58" width="1" height="3" fill="#A77C68" />
<rect x="266" y="58" width="1" height="3" fill="#A77C68" />
<rect x="268" y="58" width="1" height="1" fill="#A77C68" />
<rect x="270" y="58" width="1" height="1" fill="#A77C68" />
<rect x="271" y="58" width="1" height="1" fill="#E8A87C" />
<rect x="272" y="58" width="1" height="1" fill="#A77C68" />
<rect x="273" y="58" width="1" height="1" fill="#E8A87C" />
<rect x="274" y="58" width="1" height="1" fill="#A77C68" />
<rect x="275" y="58" width="1" height="3" fill="#E8A87C" />
<rect x="245" y="59" width="1" height="1" fill="#EDBD9C" />
<rect x="246" y="59" width="1" height="1" fill="#E8A87C" />
<rect x="247" y="59" width="1" height="1" fill="#EDBD9C" />
<rect x="248" y="59" width="1" height="1" fill="#E8A87C" />
<rect x="249" y="59" width="1" height="1" fill="#EDBD9C" />
<rect x="250" y="59" width="4" height="1" fill="#E8A87C" />
<rect x="254" y="59" width="1" height="1" fill="#A77C68" />
<rect x="255" y="59" width="1" height="1" fill="#E8A87C" />
<rect x="268" y="59" width="1" height="1" fill="#E8A87C" />
<rect x="270" y="59" width="1" height="1" fill="#E8A87C" />
<rect x="271" y="59" width="1" height="1" fill="#A77C68" />
<rect x="272" y="59" width="1" height="1" fill="#E8A87C" />
<rect x="273" y="59" width="1" height="1" fill="#A77C68" />
<rect x="274" y="59" width="1" height="3" fill="#E8A87C" />
<rect x="246" y="60" width="1" height="1" fill="#EDBD9C" />
<rect x="247" y="60" width="1" height="1" fill="#E8A87C" />
<rect x="248" y="60" width="1" height="1" fill="#EDBD9C" />
<rect x="249" y="60" width="1" height="1" fill="#E8A87C" />
<rect x="250" y="60" width="1" height="1" fill="#EDBD9C" />
<rect x="251" y="60" width="4" height="1" fill="#E8A87C" />
<rect x="255" y="60" width="1" height="1" fill="#A77C68" />
<rect x="256" y="60" width="1" height="4" fill="#E8A87C" />
<rect x="257" y="60" width="1" height="1" fill="#A77C68" />
<rect x="258" y="60" width="1" height="1" fill="#E8A87C" />
<rect x="261" y="60" width="1" height="1" fill="#E8A87C" />
<rect x="263" y="60" width="1" height="1" fill="#E8A87C" />
<rect x="265" y="60" width="1" height="1" fill="#E8A87C" />
<rect x="267" y="60" width="1" height="1" fill="#E8A87C" />
<rect x="268" y="60" width="1" height="1" fill="#A77C68" />
<rect x="269" y="60" width="1" height="1" fill="#E8A87C" />
<rect x="270" y="60" width="1" height="1" fill="#A77C68" />
<rect x="271" y="60" width="1" height="4" fill="#E8A87C" />
<rect x="272" y="60" width="1" height="1" fill="#A77C68" />
<rect x="273" y="60" width="1" height="2" fill="#E8A87C" />
<rect x="247" y="61" width="1" height="1" fill="#EDBD9C" />
<rect x="248" y="61" width="1" height="1" fill="#E8A87C" />
<rect x="249" y="61" width="1" height="1" fill="#EDBD9C" />
<rect x="250" y="61" width="1" height="1" fill="#E8A87C" />
<rect x="251" y="61" width="1" height="1" fill="#EDBD9C" />
<rect x="252" y="61" width="4" height="1" fill="#E8A87C" />
<rect x="257" y="61" width="1" height="1" fill="#E8A87C" />
<rect x="258" y="61" width="1" height="1" fill="#EDBD9C" />
<rect x="259" y="61" width="2" height="1" fill="#E8A87C" />
<rect x="261" y="61" width="1" height="1" fill="#A77C68" />
<rect x="262" y="61" width="1" height="5" fill="#E8A87C" />
<rect x="263" y="61" width="1" height="1" fill="#A77C68" />
<rect x="264" y="61" width="1" height="5" fill="#E8A87C" />
<rect x="265" y="61" width="1" height="1" fill="#A77C68" />
<rect x="266" y="61" width="1" height="5" fill="#E8A87C" />
<rect x="267" y="61" width="1" height="1" fill="#A77C68" />
<rect x="268" y="61" width="1" height="4" fill="#E8A87C" />
<rect x="269" y="61" width="1" height="1" fill="#A77C68" />
<rect x="270" y="61" width="1" height="3" fill="#E8A87C" />
<rect x="272" y="61" width="1" height="2" fill="#E8A87C" />
<rect x="248" y="62" width="1" height="1" fill="#EDBD9C" />
<rect x="249" y="62" width="1" height="1" fill="#E8A87C" />
<rect x="250" y="62" width="1" height="1" fill="#EDBD9C" />
<rect x="251" y="62" width="1" height="1" fill="#E8A87C" />
<rect x="252" y="62" width="1" height="1" fill="#EDBD9C" />
<rect x="253" y="62" width="3" height="1" fill="#E8A87C" />
<rect x="257" y="62" width="2" height="1" fill="#A77C68" />
<rect x="259" y="62" width="1" height="1" fill="#EDBD9C" />
<rect x="260" y="62" width="2" height="3" fill="#E8A87C" />
<rect x="263" y="62" width="1" height="3" fill="#E8A87C" />
<rect x="265" y="62" width="1" height="3" fill="#E8A87C" />
<rect x="267" y="62" width="1" height="4" fill="#E8A87C" />
<rect x="269" y="62" width="1" height="3" fill="#E8A87C" />
<rect x="273" y="62" width="1" height="1" fill="#EDBD9C" />
<rect x="249" y="63" width="1" height="1" fill="#EDBD9C" />
<rect x="250" y="63" width="1" height="1" fill="#E8A87C" />
<rect x="251" y="63" width="1" height="2" fill="#EDBD9C" />
<rect x="252" y="63" width="1" height="1" fill="#E8A87C" />
<rect x="253" y="63" width="1" height="1" fill="#EDBD9C" />
<rect x="254" y="63" width="1" height="1" fill="#E8A87C" />
<rect x="255" y="63" width="1" height="1" fill="#EDBD9C" />
<rect x="257" y="63" width="1" height="2" fill="#E8A87C" />
<rect x="258" y="63" width="2" height="1" fill="#A77C68" />
<rect x="272" y="63" width="1" height="1" fill="#EDBD9C" />
<rect x="250" y="64" width="1" height="1" fill="#EDBD9C" />
<rect x="252" y="64" width="1" height="2" fill="#EDBD9C" />
<rect x="253" y="64" width="1" height="1" fill="#E8A87C" />
<rect x="254" y="64" width="1" height="1" fill="#EDBD9C" />
<rect x="255" y="64" width="1" height="1" fill="#E8A87C" />
<rect x="256" y="64" width="1" height="1" fill="#EDBD9C" />
<rect x="258" y="64" width="1" height="1" fill="#EDBD9C" />
<rect x="259" y="64" width="1" height="3" fill="#E8A87C" />
<rect x="270" y="64" width="2" height="1" fill="#EDBD9C" />
<rect x="253" y="65" width="1" height="1" fill="#EDBD9C" />
<rect x="254" y="65" width="1" height="1" fill="#E8A87C" />
<rect x="255" y="65" width="1" height="2" fill="#EDBD9C" />
<rect x="256" y="65" width="1" height="1" fill="#E8A87C" />
<rect x="257" y="65" width="1" height="1" fill="#EDBD9C" />
<rect x="258" y="65" width="1" height="1" fill="#E8A87C" />
<rect x="260" y="65" width="1" height="1" fill="#E8A87C" />
<rect x="261" y="65" width="1" height="1" fill="#EDBD9C" />
<rect x="263" y="65" width="1" height="1" fill="#EDBD9C" />
<rect x="265" y="65" width="1" height="1" fill="#EDBD9C" />
<rect x="268" y="65" width="2" height="1" fill="#EDBD9C" />
<rect x="254" y="66" width="1" height="1" fill="#EDBD9C" />
<rect x="256" y="66" width="1" height="1" fill="#EDBD9C" />
<rect x="257" y="66" width="1" height="1" fill="#E8A87C" />
<rect x="258" y="66" width="1" height="2" fill="#EDBD9C" />
<rect x="260" y="66" width="1" height="2" fill="#EDBD9C" />
<rect x="261" y="66" width="1" height="1" fill="#E8A87C" />
<rect x="262" y="66" width="1" height="2" fill="#EDBD9C" />
<rect x="263" y="66" width="1" height="1" fill="#E8A87C" />
<rect x="264" y="66" width="1" height="2" fill="#EDBD9C" />
<rect x="265" y="66" width="1" height="1" fill="#E8A87C" />
<rect x="266" y="66" width="2" height="1" fill="#EDBD9C" />
<rect x="257" y="67" width="1" height="1" fill="#EDBD9C" />
<rect x="259" y="67" width="1" height="1" fill="#EDBD9C" />
<rect x="261" y="67" width="1" height="1" fill="#EDBD9C" />
<rect x="263" y="67" width="1" height="1" fill="#EDBD9C" />
</svg>