<?xml version="1.0" encoding="UTF-8" ?>
<svg version="1.1" width="480" height="270" xmlns="http://www.w3.org/2000/svg" shape-rendering="crispEdges">
<rect x="353" y="70" width="7" height="1" fill="#FDE8B9" />
<rect x="351" y="71" width="2" height="1" fill="#FDE8B9" />
<rect x="353" y="71" width="7" height="1" fill="#FEEECB" />
<rect x="360" y="71" width="2" height="1" fill="#FDE8B9" />
<rect x="349" y="72" width="2" height="1" fill="#FDE8B9" />
<rect x="351" y="72" width="2" height="1" fill="#FEEECB" />
<rect x="353" y="72" width="7" height="2" fill="#FEF4DC" />
<rect x="360" y="72" width="2" height="1" fill="#FEEECB" />
<rect x="362" y="72" width="2" height="1" fill="#FDE8B9" />
<rect x="348" y="73" width="1" height="1" fill="#FDE8B9" />
<rect x="349" y="73" width="2" height="1" fill="#FEEECB" />
<rect x="351" y="73" width="2" height="2" fill="#FEF4DC" />
<rect x="360" y="73" width="2" height="2" fill="#FEF4DC" />
<rect x="362" y="73" width="2" height="1" fill="#FEEECB" />
<rect x="364" y="73" width="1" height="1" fill="#FDE8B9" />
<rect x="347" y="74" width="1" height="1" fill="#FDE8B9" />
<rect x="348" y="74" width="1" height="1" fill="#FEEECB" />
<rect x="349" y="74" width="2" height="2" fill="#FEF4DC" />
<rect x="353" y="74" width="7" height="5" fill="#FFFAEE" />
<rect x="362" y="74" width="2" height="2" fill="#FEF4DC" />
<rect x="364" y="74" width="1" height="1" fill="#FEEECB" />
<rect x="365" y="74" width="1" height="1" fill="#FDE8B9" />
<rect x="346" y="75" width="1" height="1" fill="#FDE8B9" />
<rect x="347" y="75" width="1" height="1" fill="#FEEECB" />
<rect x="348" y="75" width="1" height="2" fill="#FEF4DC" />
<rect x="351" y="75" width="2" height="14" fill="#FFFAEE" />
<rect x="360" y="75" width="2" height="2" fill="#FFFAEE" />
<rect x="364" y="75" width="1" height="1" fill="#FEF4DC" />
<rect x="365" y="75" width="1" height="1" fill="#FEEECB" />
<rect x="366" y="75" width="1" height="1" fill="#FDE8B9" />
<rect x="345" y="76" width="1" height="1" fill="#FDE8B9" />
<rect x="346" y="76" width="1" height="1" fill="#FEEECB" />
<rect x="347" y="76" width="1" height="2" fill="#FEF4DC" />
<rect x="349" y="76" width="2" height="14" fill="#FFFAEE" />
<rect x="362" y="76" width="5" height="9" fill="#F9E9DE" />
<rect x="367" y="76" width="1" height="1" fill="#FDE8B9" />
<rect x="344" y="77" width="1" height="1" fill="#FDE8B9" />
<rect x="345" y="77" width="1" height="1" fill="#FEEECB" />
<rect x="346" y="77" width="1" height="3" fill="#FEF4DC" />
<rect x="348" y="77" width="1" height="13" fill="#FFFAEE" />
<rect x="360" y="77" width="1" height="1" fill="#FFFAEE" />
<rect x="361" y="77" width="1" height="6" fill="#F9E9DE" />
<rect x="367" y="77" width="4" height="2" fill="#F9E9DE" />
<rect x="343" y="78" width="1" height="2" fill="#FDE8B9" />
<rect x="344" y="78" width="1" height="2" fill="#FEEECB" />
<rect x="345" y="78" width="1" height="4" fill="#FEF4DC" />
<rect x="347" y="78" width="1" height="13" fill="#FFFAEE" />
<rect x="360" y="78" width="1" height="5" fill="#F9E9DE" />
<rect x="371" y="78" width="1" height="1" fill="#F9E9DE" />
<rect x="353" y="79" width="6" height="6" fill="#FFFAEE" />
<rect x="359" y="79" width="1" height="3" fill="#F9E9DE" />
<rect x="367" y="79" width="3" height="1" fill="#F9E9DE" />
<rect x="370" y="79" width="2" height="1" fill="#F3D3BD" />
<rect x="372" y="79" width="2" height="7" fill="#F9E9DE" />
<rect x="342" y="80" width="1" height="2" fill="#FDE8B9" />
<rect x="343" y="80" width="1" height="2" fill="#FEEECB" />
<rect x="344" y="80" width="1" height="11" fill="#FEF4DC" />
<rect x="346" y="80" width="1" height="11" fill="#FFFAEE" />
<rect x="367" y="80" width="2" height="4" fill="#F9E9DE" />
<rect x="369" y="80" width="1" height="2" fill="#F3D3BD" />
<rect x="370" y="80" width="2" height="5" fill="#F9E9DE" />
<rect x="374" y="80" width="2" height="6" fill="#F9E9DE" />
<rect x="376" y="81" width="1" height="2" fill="#F9E9DE" />
<rect x="377" y="81" width="1" height="2" fill="#F3D3BD" />
<rect x="378" y="81" width="1" height="12" fill="#F9E9DE" />
<rect x="341" y="82" width="1" height="7" fill="#FDE8B9" />
<rect x="342" y="82" width="1" height="7" fill="#FEEECB" />
<rect x="343" y="82" width="1" height="7" fill="#FEF4DC" />
<rect x="345" y="82" width="1" height="7" fill="#FFFAEE" />
<rect x="359" y="82" width="1" height="1" fill="#F3D3BD" />
<rect x="369" y="82" width="1" height="2" fill="#F9E9DE" />
<rect x="379" y="82" width="2" height="4" fill="#F9E9DE" />
<rect x="359" y="83" width="1" height="1" fill="#FFFAEE" />
<rect x="360" y="83" width="2" height="1" fill="#F3D3BD" />
<rect x="376" y="83" width="1" height="1" fill="#F3D3BD" />
<rect x="377" y="83" width="1" height="12" fill="#F9E9DE" />
<rect x="381" y="83" width="1" height="4" fill="#F9E9DE" />
<rect x="359" y="84" width="1" height="1" fill="#F3D3BD" />
<rect x="360" y="84" width="2" height="5" fill="#F9E9DE" />
<rect x="367" y="84" width="1" height="3" fill="#F9E9DE" />
<rect x="368" y="84" width="1" height="2" fill="#F3D3BD" />
<rect x="369" y="84" width="1" height="3" fill="#EDBD9C" />
<rect x="376" y="84" width="1" height="11" fill="#F9E9DE" />
<rect x="382" y="84" width="2" height="3" fill="#F9E9DE" />
<rect x="353" y="85" width="5" height="1" fill="#FFFAEE" />
<rect x="358" y="85" width="1" height="1" fill="#F3D3BD" />
<rect x="359" y="85" width="1" height="6" fill="#F9E9DE" />
<rect x="362" y="85" width="1" height="2" fill="#F3D3BD" />
<rect x="363" y="85" width="4" height="1" fill="#F9E9DE" />
<rect x="370" y="85" width="1" height="2" fill="#EDBD9C" />
<rect x="371" y="85" width="1" height="1" fill="#F9E9DE" />
<rect x="384" y="85" width="1" height="3" fill="#F9E9DE" />
<rect x="353" y="86" width="4" height="1" fill="#FFFAEE" />
<rect x="357" y="86" width="1" height="1" fill="#F3D3BD" />
<rect x="358" y="86" width="1" height="5" fill="#F9E9DE" />
<rect x="363" y="86" width="2" height="1" fill="#F3D3BD" />
<rect x="365" y="86" width="2" height="1" fill="#F9E9DE" />
<rect x="368" y="86" width="1" height="10" fill="#F9E9DE" />
<rect x="371" y="86" width="3" height="1" fill="#EDBD9C" />
<rect x="374" y="86" width="1" height="2" fill="#F3D3BD" />
<rect x="375" y="86" width="1" height="2" fill="#F9E9DE" />
<rect x="379" y="86" width="1" height="7" fill="#F9E9DE" />
<rect x="380" y="86" width="1" height="2" fill="#F3D3BD" />
<rect x="385" y="86" width="2" height="1" fill="#F9E9DE" />
<rect x="353" y="87" width="3" height="1" fill="#FFFAEE" />
<rect x="356" y="87" width="1" height="1" fill="#F3D3BD" />
<rect x="357" y="87" width="1" height="4" fill="#F9E9DE" />
<rect x="362" y="87" width="3" height="1" fill="#EDBD9C" />
<rect x="365" y="87" width="3" height="1" fill="#F3D3BD" />
<rect x="369" y="87" width="1" height="1" fill="#F9E9DE" />
<rect x="370" y="87" width="4" height="1" fill="#F3D3BD" />
<rect x="381" y="87" width="2" height="1" fill="#F3D3BD" />
<rect x="383" y="87" width="1" height="1" fill="#F9E9DE" />
<rect x="385" y="87" width="1" height="1" fill="#F9E9DE" />
<rect x="386" y="87" width="1" height="2" fill="#F3D3BD" />
<rect x="387" y="87" width="1" height="1" fill="#F9E9DE" />
<rect x="353" y="88" width="2" height="1" fill="#FFFAEE" />
<rect x="355" y="88" width="1" height="1" fill="#F3D3BD" />
<rect x="356" y="88" width="1" height="8" fill="#F9E9DE" />
<rect x="362" y="88" width="3" height="1" fill="#F9E9DE" />
<rect x="365" y="88" width="2" height="1" fill="#EDBD9C" />
<rect x="367" y="88" width="1" height="3" fill="#F9E9DE" />
<rect x="369" y="88" width="1" height="1" fill="#F3D3BD" />
<rect x="370" y="88" width="5" height="6" fill="#F9E9DE" />
<rect x="375" y="88" width="1" height="1" fill="#F3D3BD" />
<rect x="380" y="88" width="2" height="4" fill="#F9E9DE" />
<rect x="382" y="88" width="4" height="1" fill="#F3D3BD" />
<rect x="387" y="88" width="1" height="1" fill="#F3D3BD" />
<rect x="342" y="89" width="1" height="3" fill="#FDE8B9" />
<rect x="343" y="89" width="1" height="2" fill="#FEEECB" />
<rect x="345" y="89" width="1" height="4" fill="#FEF4DC" />
<rect x="351" y="89" width="1" height="1" fill="#FFFAEE" />
<rect x="352" y="89" width="1" height="2" fill="#EDBD9C" />
<rect x="353" y="89" width="3" height="4" fill="#F9E9DE" />
<rect x="360" y="89" width="1" height="1" fill="#F9E9DE" />
<rect x="361" y="89" width="1" height="1" fill="#EDBD9C" />
<rect x="362" y="89" width="2" height="1" fill="#E8A87C" />
<rect x="364" y="89" width="3" height="3" fill="#F9E9DE" />
<rect x="369" y="89" width="1" height="7" fill="#F9E9DE" />
<rect x="375" y="89" width="1" height="6" fill="#F9E9DE" />
<rect x="382" y="89" width="1" height="1" fill="#F3D3BD" />
<rect x="383" y="89" width="6" height="4" fill="#F9E9DE" />
<rect x="348" y="90" width="3" height="6" fill="#F9E9DE" />
<rect x="351" y="90" width="1" height="1" fill="#F3D3BD" />
<rect x="360" y="90" width="1" height="2" fill="#EDBD9C" />
<rect x="361" y="90" width="1" height="1" fill="#E8A87C" />
<rect x="362" y="90" width="2" height="5" fill="#F9E9DE" />
<rect x="382" y="90" width="1" height="4" fill="#F9E9DE" />
<rect x="389" y="90" width="1" height="6" fill="#F9E9DE" />
<rect x="343" y="91" width="1" height="2" fill="#FDE8B9" />
<rect x="344" y="91" width="1" height="2" fill="#FEEECB" />
<rect x="346" y="91" width="1" height="1" fill="#FEF4DC" />
<rect x="347" y="91" width="1" height="4" fill="#F9E9DE" />
<rect x="351" y="91" width="2" height="1" fill="#F9E9DE" />
<rect x="357" y="91" width="3" height="1" fill="#EDBD9C" />
<rect x="361" y="91" width="1" height="5" fill="#F9E9DE" />
<rect x="367" y="91" width="1" height="1" fill="#F3D3BD" />
<rect x="390" y="91" width="1" height="4" fill="#F9E9DE" />
<rect x="346" y="92" width="1" height="2" fill="#EDBD9C" />
<rect x="351" y="92" width="1" height="1" fill="#F9E9DE" />
<rect x="352" y="92" width="1" height="2" fill="#EDBD9C" />
<rect x="357" y="92" width="2" height="3" fill="#F9E9DE" />
<rect x="359" y="92" width="1" height="4" fill="#EDBD9C" />
<rect x="360" y="92" width="1" height="3" fill="#F9E9DE" />
<rect x="364" y="92" width="1" height="1" fill="#F9E9DE" />
<rect x="365" y="92" width="2" height="1" fill="#F3D3BD" />
<rect x="367" y="92" width="1" height="4" fill="#F9E9DE" />
<rect x="380" y="92" width="1" height="1" fill="#F3D3BD" />
<rect x="381" y="92" width="1" height="1" fill="#F9E9DE" />
<rect x="391" y="92" width="1" height="2" fill="#F9E9DE" />
<rect x="344" y="93" width="1" height="1" fill="#FDE8B9" />
<rect x="345" y="93" width="1" height="1" fill="#EDBD9C" />
<rect x="351" y="93" width="1" height="1" fill="#EDBD9C" />
<rect x="353" y="93" width="2" height="1" fill="#EDBD9C" />
<rect x="355" y="93" width="1" height="1" fill="#F3D3BD" />
<rect x="364" y="93" width="3" height="1" fill="#EDBD9C" />
<rect x="378" y="93" width="1" height="1" fill="#F3D3BD" />
<rect x="379" y="93" width="2" height="1" fill="#EDBD9C" />
<rect x="381" y="93" width="1" height="1" fill="#F3D3BD" />
<rect x="383" y="93" width="2" height="1" fill="#F3D3BD" />
<rect x="385" y="93" width="4" height="1" fill="#F9E9DE" />
<rect x="342" y="94" width="1" height="2" fill="#F9E9DE" />
<rect x="343" y="94" width="2" height="1" fill="#EDBD9C" />
<rect x="345" y="94" width="2" height="2" fill="#F9E9DE" />
<rect x="351" y="94" width="5" height="1" fill="#F9E9DE" />
<rect x="364" y="94" width="2" height="1" fill="#E8A87C" />
<rect x="366" y="94" width="1" height="2" fill="#EDBD9C" />
<rect x="370" y="94" width="1" height="1" fill="#F9E9DE" />
<rect x="371" y="94" width="4" height="1" fill="#F3D3BD" />
<rect x="378" y="94" width="4" height="2" fill="#F9E9DE" />
<rect x="382" y="94" width="1" height="2" fill="#F3D3BD" />
<rect x="383" y="94" width="2" height="3" fill="#EDBD9C" />
<rect x="385" y="94" width="1" height="1" fill="#F3D3BD" />
<rect x="386" y="94" width="3" height="1" fill="#F9E9DE" />
<rect x="391" y="94" width="1" height="1" fill="#F3D3BD" />
<rect x="392" y="94" width="2" height="2" fill="#F9E9DE" />
<rect x="340" y="95" width="1" height="1" fill="#F9E9DE" />
<rect x="341" y="95" width="1" height="2" fill="#F3D3BD" />
<rect x="343" y="95" width="2" height="1" fill="#F9E9DE" />
<rect x="347" y="95" width="1" height="2" fill="#EDBD9C" />
<rect x="351" y="95" width="4" height="1" fill="#F9E9DE" />
<rect x="355" y="95" width="1" height="2" fill="#EDBD9C" />
<rect x="357" y="95" width="1" height="1" fill="#F9E9DE" />
<rect x="358" y="95" width="1" height="2" fill="#EDBD9C" />
<rect x="360" y="95" width="1" height="2" fill="#EDBD9C" />
<rect x="362" y="95" width="1" height="1" fill="#F9E9DE" />
<rect x="363" y="95" width="2" height="1" fill="#E8A87C" />
<rect x="365" y="95" width="1" height="2" fill="#F3D3BD" />
<rect x="370" y="95" width="4" height="1" fill="#EDBD9C" />
<rect x="374" y="95" width="4" height="1" fill="#F3D3BD" />
<rect x="385" y="95" width="1" height="2" fill="#EDBD9C" />
<rect x="386" y="95" width="1" height="1" fill="#F3D3BD" />
<rect x="387" y="95" width="2" height="1" fill="#F9E9DE" />
<rect x="390" y="95" width="1" height="1" fill="#F3D3BD" />
<rect x="391" y="95" width="1" height="2" fill="#EDBD9C" />
<rect x="394" y="95" width="1" height="2" fill="#F9E9DE" />
<rect x="340" y="96" width="1" height="1" fill="#F3D3BD" />
<rect x="342" y="96" width="5" height="1" fill="#EDBD9C" />
<rect x="348" y="96" width="5" height="1" fill="#EDBD9C" />
<rect x="353" y="96" width="1" height="2" fill="#F3D3BD" />
<rect x="354" y="96" width="1" height="1" fill="#EDBD9C" />
<rect x="356" y="96" width="2" height="1" fill="#EDBD9C" />
<rect x="359" y="96" width="1" height="2" fill="#F3D3BD" />
<rect x="361" y="96" width="2" height="1" fill="#EDBD9C" />
<rect x="363" y="96" width="1" height="1" fill="#E8A87C" />
<rect x="364" y="96" width="1" height="2" fill="#EDBD9C" />
<rect x="366" y="96" width="11" height="1" fill="#F3D3BD" />
<rect x="377" y="96" width="6" height="1" fill="#EDBD9C" />
<rect x="386" y="96" width="5" height="1" fill="#EDBD9C" />
<rect x="392" y="96" width="1" height="1" fill="#EDBD9C" />
<rect x="393" y="96" width="1" height="1" fill="#F9E9DE" />
<rect x="395" y="96" width="1" height="1" fill="#F9E9DE" />
<rect x="346" y="97" width="1" height="1" fill="#EDBD9C" />
<rect x="347" y="97" width="6" height="1" fill="#F3D3BD" />
<rect x="354" y="97" width="5" height="1" fill="#F3D3BD" />
<rect x="360" y="97" width="2" height="1" fill="#F3D3BD" />
<rect x="362" y="97" width="2" height="1" fill="#EDBD9C" />
<rect x="365" y="97" width="6" height="1" fill="#E8A87C" />
<rect x="371" y="97" width="6" height="1" fill="#EDBD9C" />
<rect x="377" y="97" width="1" height="1" fill="#F3D3BD" />
<rect x="378" y="97" width="4" height="1" fill="#EDBD9C" />
<rect x="382" y="97" width="15" height="1" fill="#F3D3BD" />
<rect x="362" y="98" width="3" height="1" fill="#F3D3BD" />
<rect x="365" y="98" width="6" height="1" fill="#EDBD9C" />
<rect x="371" y="98" width="6" height="1" fill="#F3D3BD" />
<rect x="378" y="98" width="4" height="1" fill="#F3D3BD" />
<rect x="365" y="99" width="6" height="1" fill="#F3D3BD" />
</svg>