<?xml version="1.0" encoding="UTF-8" ?>
<svg version="1.1" width="180" height="360" xmlns="http://www.w3.org/2000/svg" shape-rendering="crispEdges">
<rect x="32" y="54" width="12" height="2" fill="#A77C68" />
<rect x="64" y="54" width="13" height="2" fill="#A77C68" />
<rect x="102" y="54" width="13" height="2" fill="#A77C68" />
<rect x="137" y="54" width="12" height="2" fill="#A77C68" />
<rect x="149" y="55" width="1" height="5" fill="#A77C68" />
<rect x="32" y="56" width="2" height="4" fill="#A77C68" />
<rect x="34" y="56" width="4" height="4" fill="#F2E9D8" />
<rect x="38" y="56" width="1" height="4" fill="#A77C68" />
<rect x="39" y="56" width="4" height="4" fill="#F2E9D8" />
<rect x="43" y="56" width="1" height="4" fill="#A77C68" />
<rect x="64" y="56" width="3" height="4" fill="#A77C68" />
<rect x="67" y="56" width="4" height="4" fill="#F2E9D8" />
<rect x="71" y="56" width="1" height="4" fill="#A77C68" />
<rect x="72" y="56" width="4" height="4" fill="#F2E9D8" />
<rect x="76" y="56" width="1" height="4" fill="#A77C68" />
<rect x="102" y="56" width="2" height="4" fill="#A77C68" />
<rect x="104" y="56" width="4" height="4" fill="#F2E9D8" />
<rect x="108" y="56" width="1" height="4" fill="#A77C68" />
<rect x="109" y="56" width="4" height="4" fill="#F2E9D8" />
<rect x="113" y="56" width="2" height="4" fill="#A77C68" />
<rect x="137" y="56" width="1" height="4" fill="#A77C68" />
<rect x="138" y="56" width="4" height="4" fill="#F2E9D8" />
<rect x="142" y="56" width="1" height="4" fill="#A77C68" />
<rect x="143" y="56" width="4" height="4" fill="#F2E9D8" />
<rect x="147" y="56" width="2" height="4" fill="#A77C68" />
<rect x="17" y="60" width="146" height="4" fill="#E8A87C" />
<rect x="17" y="64" width="3" height="220" fill="#E8A87C" />
<rect x="20" y="64" width="141" height="1" fill="#665054" />
<rect x="161" y="64" width="2" height="220" fill="#E8A87C" />
<rect x="20" y="65" width="6" height="217" fill="#665054" />
<rect x="26" y="65" width="128" height="215" fill="#252540" />
<rect x="154" y="65" width="7" height="217" fill="#665054" />
<rect x="11" y="249" width="6" height="7" fill="#A77C68" />
<rect x="11" y="256" width="1" height="4" fill="#A77C68" />
<rect x="13" y="256" width="2" height="4" fill="#A77C68" />
<rect x="12" y="258" width="1" height="2" fill="#A77C68" />
<rect x="15" y="258" width="2" height="2" fill="#A77C68" />
<rect x="163" y="261" width="4" height="15" fill="#665054" />
<rect x="167" y="262" width="1" height="14" fill="#665054" />
<rect x="166" y="276" width="1" height="1" fill="#665054" />
<rect x="165" y="277" width="1" height="1" fill="#665054" />
<rect x="164" y="278" width="1" height="1" fill="#665054" />
<rect x="163" y="279" width="1" height="1" fill="#665054" />
<rect x="26" y="280" width="128" height="2" fill="#665054" />
<rect x="20" y="282" width="141" height="2" fill="#E8A87C" />
<rect x="20" y="284" width="146" height="2" fill="#A77C68" />
<rect x="13" y="286" width="1" height="9" fill="#A77C68" />
<rect x="20" y="286" width="143" height="3" fill="#A77C68" />
<rect x="16" y="288" width="4" height="1" fill="#A77C68" />
<rect x="163" y="288" width="1" height="7" fill="#A77C68" />
<rect x="165" y="288" width="1" height="6" fill="#A77C68" />
<rect x="169" y="288" width="1" height="6" fill="#A77C68" />
<rect x="16" y="289" width="147" height="4" fill="#E8A87C" />
<rect x="14" y="293" width="149" height="2" fill="#A77C68" />
<rect x="164" y="293" width="1" height="1" fill="#A77C68" />
<rect x="166" y="293" width="3" height="1" fill="#A77C68" />
<rect x="170" y="293" width="1" height="1" fill="#A77C68" />
<rect x="19" y="295" width="1" height="21" fill="#A77C68" />
<rect x="22" y="295" width="1" height="21" fill="#A77C68" />
<rect x="36" y="295" width="1" height="65" fill="#A77C68" />
<rect x="44" y="295" width="12" height="5" fill="#A77C68" />
<rect x="87" y="295" width="7" height="21" fill="#A77C68" />
<rect x="121" y="295" width="12" height="13" fill="#A77C68" />
<rect x="138" y="295" width="1" height="65" fill="#A77C68" />
<rect x="157" y="295" width="1" height="21" fill="#A77C68" />
<rect x="160" y="295" width="1" height="21" fill="#A77C68" />
<rect x="56" y="297" width="12" height="2" fill="#A77C68" />
<rect x="68" y="298" width="1" height="62" fill="#A77C68" />
<rect x="67" y="299" width="1" height="61" fill="#A77C68" />
<rect x="44" y="300" width="1" height="5" fill="#665054" />
<rect x="45" y="300" width="11" height="2" fill="#A77C68" />
<rect x="56" y="301" width="11" height="1" fill="#A77C68" />
<rect x="69" y="301" width="1" height="3" fill="#A77C68" />
<rect x="37" y="302" width="7" height="2" fill="#A77C68" />
<rect x="45" y="302" width="1" height="3" fill="#665054" />
<rect x="46" y="302" width="10" height="2" fill="#A77C68" />
<rect x="57" y="302" width="1" height="2" fill="#A77C68" />
<rect x="62" y="302" width="1" height="2" fill="#A77C68" />
<rect x="46" y="304" width="1" height="1" fill="#665054" />
<rect x="47" y="304" width="9" height="2" fill="#A77C68" />
<rect x="10" y="305" width="9" height="1" fill="#A77C68" />
<rect x="20" y="305" width="2" height="11" fill="#A77C68" />
<rect x="23" y="305" width="13" height="1" fill="#A77C68" />
<rect x="37" y="305" width="10" height="1" fill="#A77C68" />
<rect x="56" y="305" width="11" height="1" fill="#A77C68" />
<rect x="69" y="305" width="18" height="1" fill="#A77C68" />
<rect x="94" y="305" width="27" height="1" fill="#A77C68" />
<rect x="133" y="305" width="5" height="1" fill="#A77C68" />
<rect x="139" y="305" width="18" height="1" fill="#A77C68" />
<rect x="158" y="305" width="2" height="11" fill="#A77C68" />
<rect x="161" y="305" width="9" height="1" fill="#A77C68" />
<rect x="9" y="306" width="1" height="3" fill="#A77C68" />
<rect x="11" y="306" width="1" height="4" fill="#A77C68" />
<rect x="14" y="306" width="1" height="10" fill="#A77C68" />
<rect x="18" y="306" width="1" height="10" fill="#A77C68" />
<rect x="23" y="306" width="1" height="10" fill="#A77C68" />
<rect x="28" y="306" width="1" height="10" fill="#A77C68" />
<rect x="40" y="306" width="1" height="10" fill="#A77C68" />
<rect x="44" y="306" width="4" height="54" fill="#665054" />
<rect x="48" y="306" width="8" height="54" fill="#A77C68" />
<rect x="76" y="306" width="1" height="10" fill="#A77C68" />
<rect x="101" y="306" width="1" height="10" fill="#A77C68" />
<rect x="110" y="306" width="1" height="10" fill="#A77C68" />
<rect x="149" y="306" width="1" height="10" fill="#A77C68" />
<rect x="161" y="306" width="1" height="10" fill="#A77C68" />
<rect x="164" y="306" width="1" height="10" fill="#A77C68" />
<rect x="167" y="306" width="1" height="4" fill="#A77C68" />
<rect x="170" y="306" width="1" height="3" fill="#A77C68" />
<rect x="121" y="308" width="1" height="52" fill="#665054" />
<rect x="122" y="308" width="11" height="3" fill="#A77C68" />
<rect x="10" y="309" width="1" height="1" fill="#A77C68" />
<rect x="12" y="309" width="2" height="1" fill="#A77C68" />
<rect x="15" y="309" width="3" height="1" fill="#A77C68" />
<rect x="24" y="309" width="4" height="1" fill="#A77C68" />
<rect x="29" y="309" width="7" height="1" fill="#A77C68" />
<rect x="37" y="309" width="3" height="1" fill="#A77C68" />
<rect x="41" y="309" width="3" height="1" fill="#A77C68" />
<rect x="56" y="309" width="11" height="1" fill="#A77C68" />
<rect x="69" y="309" width="7" height="1" fill="#A77C68" />
<rect x="77" y="309" width="10" height="1" fill="#A77C68" />
<rect x="94" y="309" width="7" height="1" fill="#A77C68" />
<rect x="102" y="309" width="8" height="1" fill="#A77C68" />
<rect x="111" y="309" width="10" height="1" fill="#A77C68" />
<rect x="133" y="309" width="5" height="1" fill="#A77C68" />
<rect x="139" y="309" width="10" height="1" fill="#A77C68" />
<rect x="150" y="309" width="7" height="1" fill="#A77C68" />
<rect x="162" y="309" width="2" height="1" fill="#A77C68" />
<rect x="165" y="309" width="2" height="1" fill="#A77C68" />
<rect x="168" y="309" width="2" height="1" fill="#A77C68" />
<rect x="122" y="311" width="1" height="49" fill="#665054" />
<rect x="123" y="311" width="10" height="49" fill="#A77C68" />
<rect x="12" y="312" width="2" height="4" fill="#A77C68" />
<rect x="15" y="312" width="3" height="4" fill="#A77C68" />
<rect x="24" y="312" width="4" height="4" fill="#A77C68" />
<rect x="29" y="312" width="7" height="4" fill="#A77C68" />
<rect x="37" y="312" width="3" height="4" fill="#A77C68" />
<rect x="41" y="312" width="3" height="4" fill="#A77C68" />
<rect x="56" y="312" width="11" height="4" fill="#A77C68" />
<rect x="69" y="312" width="7" height="4" fill="#A77C68" />
<rect x="77" y="312" width="10" height="4" fill="#A77C68" />
<rect x="94" y="312" width="7" height="4" fill="#A77C68" />
<rect x="102" y="312" width="8" height="4" fill="#A77C68" />
<rect x="111" y="312" width="10" height="4" fill="#A77C68" />
<rect x="133" y="312" width="5" height="4" fill="#A77C68" />
<rect x="139" y="312" width="10" height="4" fill="#A77C68" />
<rect x="150" y="312" width="7" height="4" fill="#A77C68" />
<rect x="162" y="312" width="2" height="4" fill="#A77C68" />
<rect x="165" y="312" width="4" height="4" fill="#A77C68" />
<rect x="37" y="316" width="1" height="44" fill="#A77C68" />
</svg>