<?xml version="1.0" encoding="UTF-8" ?>
<svg version="1.1" width="180" height="390" xmlns="http://www.w3.org/2000/svg" shape-rendering="crispEdges">
<rect x="32" y="64" width="12" height="2" fill="#A77C68" />
<rect x="64" y="64" width="13" height="2" fill="#A77C68" />
<rect x="102" y="64" width="13" height="2" fill="#A77C68" />
<rect x="137" y="64" width="12" height="2" fill="#A77C68" />
<rect x="149" y="65" width="1" height="5" fill="#A77C68" />
<rect x="32" y="66" width="2" height="4" fill="#A77C68" />
<rect x="34" y="66" width="4" height="4" fill="#F2E9D8" />
<rect x="38" y="66" width="1" height="4" fill="#A77C68" />
<rect x="39" y="66" width="4" height="4" fill="#F2E9D8" />
<rect x="43" y="66" width="1" height="4" fill="#A77C68" />
<rect x="64" y="66" width="3" height="4" fill="#A77C68" />
<rect x="67" y="66" width="4" height="4" fill="#F2E9D8" />
<rect x="71" y="66" width="1" height="4" fill="#A77C68" />
<rect x="72" y="66" width="4" height="4" fill="#F2E9D8" />
<rect x="76" y="66" width="1" height="4" fill="#A77C68" />
<rect x="102" y="66" width="2" height="4" fill="#A77C68" />
<rect x="104" y="66" width="4" height="4" fill="#F2E9D8" />
<rect x="108" y="66" width="1" height="4" fill="#A77C68" />
<rect x="109" y="66" width="4" height="4" fill="#F2E9D8" />
<rect x="113" y="66" width="2" height="4" fill="#A77C68" />
<rect x="137" y="66" width="1" height="4" fill="#A77C68" />
<rect x="138" y="66" width="4" height="4" fill="#F2E9D8" />
<rect x="142" y="66" width="1" height="4" fill="#A77C68" />
<rect x="143" y="66" width="4" height="4" fill="#F2E9D8" />
<rect x="147" y="66" width="2" height="4" fill="#A77C68" />
<rect x="17" y="70" width="146" height="4" fill="#E8A87C" />
<rect x="17" y="74" width="3" height="61" fill="#E8A87C" />
<rect x="20" y="74" width="141" height="1" fill="#665054" />
<rect x="161" y="74" width="2" height="61" fill="#E8A87C" />
<rect x="20" y="75" width="6" height="60" fill="#665054" />
<rect x="26" y="75" width="128" height="235" fill="#252540" />
<rect x="154" y="75" width="7" height="60" fill="#665054" />
<rect x="0" y="135" width="26" height="10" fill="#FFFFFF" />
<rect x="154" y="135" width="26" height="10" fill="#FFFFFF" />
<rect x="17" y="145" width="3" height="169" fill="#E8A87C" />
<rect x="20" y="145" width="6" height="167" fill="#665054" />
<rect x="154" y="145" width="7" height="167" fill="#665054" />
<rect x="161" y="145" width="2" height="169" fill="#E8A87C" />
<rect x="11" y="279" width="6" height="7" fill="#A77C68" />
<rect x="11" y="286" width="1" height="4" fill="#A77C68" />
<rect x="13" y="286" width="2" height="4" fill="#A77C68" />
<rect x="12" y="288" width="1" height="2" fill="#A77C68" />
<rect x="15" y="288" width="2" height="2" fill="#A77C68" />
<rect x="163" y="291" width="4" height="15" fill="#665054" />
<rect x="167" y="292" width="1" height="14" fill="#665054" />
<rect x="166" y="306" width="1" height="1" fill="#665054" />
<rect x="165" y="307" width="1" height="1" fill="#665054" />
<rect x="164" y="308" width="1" height="1" fill="#665054" />
<rect x="163" y="309" width="1" height="1" fill="#665054" />
<rect x="26" y="310" width="128" height="2" fill="#665054" />
<rect x="20" y="312" width="141" height="2" fill="#E8A87C" />
<rect x="20" y="314" width="146" height="2" fill="#A77C68" />
<rect x="13" y="316" width="1" height="9" fill="#A77C68" />
<rect x="20" y="316" width="143" height="3" fill="#A77C68" />
<rect x="16" y="318" width="4" height="1" fill="#A77C68" />
<rect x="163" y="318" width="1" height="7" fill="#A77C68" />
<rect x="165" y="318" width="1" height="6" fill="#A77C68" />
<rect x="169" y="318" width="1" height="6" fill="#A77C68" />
<rect x="16" y="319" width="147" height="4" fill="#E8A87C" />
<rect x="14" y="323" width="149" height="2" fill="#A77C68" />
<rect x="164" y="323" width="1" height="1" fill="#A77C68" />
<rect x="166" y="323" width="3" height="1" fill="#A77C68" />
<rect x="170" y="323" width="1" height="1" fill="#A77C68" />
<rect x="19" y="325" width="1" height="21" fill="#A77C68" />
<rect x="22" y="325" width="1" height="21" fill="#A77C68" />
<rect x="36" y="325" width="1" height="65" fill="#A77C68" />
<rect x="44" y="325" width="12" height="5" fill="#A77C68" />
<rect x="87" y="325" width="7" height="21" fill="#A77C68" />
<rect x="121" y="325" width="12" height="13" fill="#A77C68" />
<rect x="138" y="325" width="1" height="65" fill="#A77C68" />
<rect x="157" y="325" width="1" height="21" fill="#A77C68" />
<rect x="160" y="325" width="1" height="21" fill="#A77C68" />
<rect x="56" y="327" width="12" height="2" fill="#A77C68" />
<rect x="68" y="328" width="1" height="62" fill="#A77C68" />
<rect x="67" y="329" width="1" height="61" fill="#A77C68" />
<rect x="44" y="330" width="1" height="5" fill="#665054" />
<rect x="45" y="330" width="11" height="2" fill="#A77C68" />
<rect x="56" y="331" width="11" height="1" fill="#A77C68" />
<rect x="69" y="331" width="1" height="3" fill="#A77C68" />
<rect x="37" y="332" width="7" height="2" fill="#A77C68" />
<rect x="45" y="332" width="1" height="3" fill="#665054" />
<rect x="46" y="332" width="10" height="2" fill="#A77C68" />
<rect x="57" y="332" width="1" height="2" fill="#A77C68" />
<rect x="62" y="332" width="1" height="2" fill="#A77C68" />
<rect x="46" y="334" width="1" height="1" fill="#665054" />
<rect x="47" y="334" width="9" height="2" fill="#A77C68" />
<rect x="10" y="335" width="9" height="1" fill="#A77C68" />
<rect x="20" y="335" width="2" height="11" fill="#A77C68" />
<rect x="23" y="335" width="13" height="1" fill="#A77C68" />
<rect x="37" y="335" width="10" height="1" fill="#A77C68" />
<rect x="56" y="335" width="11" height="1" fill="#A77C68" />
<rect x="69" y="335" width="18" height="1" fill="#A77C68" />
<rect x="94" y="335" width="27" height="1" fill="#A77C68" />
<rect x="133" y="335" width="5" height="1" fill="#A77C68" />
<rect x="139" y="335" width="18" height="1" fill="#A77C68" />
<rect x="158" y="335" width="2" height="11" fill="#A77C68" />
<rect x="161" y="335" width="9" height="1" fill="#A77C68" />
<rect x="9" y="336" width="1" height="3" fill="#A77C68" />
<rect x="11" y="336" width="1" height="4" fill="#A77C68" />
<rect x="14" y="336" width="1" height="10" fill="#A77C68" />
<rect x="18" y="336" width="1" height="10" fill="#A77C68" />
<rect x="23" y="336" width="1" height="10" fill="#A77C68" />
<rect x="28" y="336" width="1" height="10" fill="#A77C68" />
<rect x="40" y="336" width="1" height="10" fill="#A77C68" />
<rect x="44" y="336" width="4" height="54" fill="#665054" />
<rect x="48" y="336" width="8" height="54" fill="#A77C68" />
<rect x="76" y="336" width="1" height="10" fill="#A77C68" />
<rect x="101" y="336" width="1" height="10" fill="#A77C68" />
<rect x="110" y="336" width="1" height="10" fill="#A77C68" />
<rect x="149" y="336" width="1" height="10" fill="#A77C68" />
<rect x="161" y="336" width="1" height="10" fill="#A77C68" />
<rect x="164" y="336" width="1" height="10" fill="#A77C68" />
<rect x="167" y="336" width="1" height="4" fill="#A77C68" />
<rect x="170" y="336" width="1" height="3" fill="#A77C68" />
<rect x="121" y="338" width="1" height="52" fill="#665054" />
<rect x="122" y="338" width="11" height="3" fill="#A77C68" />
<rect x="10" y="339" width="1" height="1" fill="#A77C68" />
<rect x="12" y="339" width="2" height="1" fill="#A77C68" />
<rect x="15" y="339" width="3" height="1" fill="#A77C68" />
<rect x="24" y="339" width="4" height="1" fill="#A77C68" />
<rect x="29" y="339" width="7" height="1" fill="#A77C68" />
<rect x="37" y="339" width="3" height="1" fill="#A77C68" />
<rect x="41" y="339" width="3" height="1" fill="#A77C68" />
<rect x="56" y="339" width="11" height="1" fill="#A77C68" />
<rect x="69" y="339" width="7" height="1" fill="#A77C68" />
<rect x="77" y="339" width="10" height="1" fill="#A77C68" />
<rect x="94" y="339" width="7" height="1" fill="#A77C68" />
<rect x="102" y="339" width="8" height="1" fill="#A77C68" />
<rect x="111" y="339" width="10" height="1" fill="#A77C68" />
<rect x="133" y="339" width="5" height="1" fill="#A77C68" />
<rect x="139" y="339" width="10" height="1" fill="#A77C68" />
<rect x="150" y="339" width="7" height="1" fill="#A77C68" />
<rect x="162" y="339" width="2" height="1" fill="#A77C68" />
<rect x="165" y="339" width="2" height="1" fill="#A77C68" />
<rect x="168" y="339" width="2" height="1" fill="#A77C68" />
<rect x="122" y="341" width="1" height="49" fill="#665054" />
<rect x="123" y="341" width="10" height="49" fill="#A77C68" />
<rect x="12" y="342" width="2" height="4" fill="#A77C68" />
<rect x="15" y="342" width="3" height="4" fill="#A77C68" />
<rect x="24" y="342" width="4" height="4" fill="#A77C68" />
<rect x="29" y="342" width="7" height="4" fill="#A77C68" />
<rect x="37" y="342" width="3" height="4" fill="#A77C68" />
<rect x="41" y="342" width="3" height="4" fill="#A77C68" />
<rect x="56" y="342" width="11" height="4" fill="#A77C68" />
<rect x="69" y="342" width="7" height="4" fill="#A77C68" />
<rect x="77" y="342" width="10" height="4" fill="#A77C68" />
<rect x="94" y="342" width="7" height="4" fill="#A77C68" />
<rect x="102" y="342" width="8" height="4" fill="#A77C68" />
<rect x="111" y="342" width="10" height="4" fill="#A77C68" />
<rect x="133" y="342" width="5" height="4" fill="#A77C68" />
<rect x="139" y="342" width="10" height="4" fill="#A77C68" />
<rect x="150" y="342" width="7" height="4" fill="#A77C68" />
<rect x="162" y="342" width="2" height="4" fill="#A77C68" />
<rect x="165" y="342" width="4" height="4" fill="#A77C68" />
<rect x="37" y="346" width="1" height="44" fill="#A77C68" />
</svg>