<?xml version="1.0" encoding="UTF-8" ?>
<svg version="1.1" width="180" height="360" xmlns="http://www.w3.org/2000/svg" shape-rendering="crispEdges">
<rect x="32" y="49" width="12" height="2" fill="#A77C68" />
<rect x="64" y="49" width="13" height="2" fill="#A77C68" />
<rect x="102" y="49" width="13" height="2" fill="#A77C68" />
<rect x="137" y="49" width="12" height="2" fill="#A77C68" />
<rect x="149" y="50" width="1" height="5" fill="#A77C68" />
<rect x="32" y="51" width="2" height="4" fill="#A77C68" />
<rect x="34" y="51" width="4" height="4" fill="#F2E9D8" />
<rect x="38" y="51" width="1" height="4" fill="#A77C68" />
<rect x="39" y="51" width="4" height="4" fill="#F2E9D8" />
<rect x="43" y="51" width="1" height="4" fill="#A77C68" />
<rect x="64" y="51" width="3" height="4" fill="#A77C68" />
<rect x="67" y="51" width="4" height="4" fill="#F2E9D8" />
<rect x="71" y="51" width="1" height="4" fill="#A77C68" />
<rect x="72" y="51" width="4" height="4" fill="#F2E9D8" />
<rect x="76" y="51" width="1" height="4" fill="#A77C68" />
<rect x="102" y="51" width="2" height="4" fill="#A77C68" />
<rect x="104" y="51" width="4" height="4" fill="#F2E9D8" />
<rect x="108" y="51" width="1" height="4" fill="#A77C68" />
<rect x="109" y="51" width="4" height="4" fill="#F2E9D8" />
<rect x="113" y="51" width="2" height="4" fill="#A77C68" />
<rect x="137" y="51" width="1" height="4" fill="#A77C68" />
<rect x="138" y="51" width="4" height="4" fill="#F2E9D8" />
<rect x="142" y="51" width="1" height="4" fill="#A77C68" />
<rect x="143" y="51" width="4" height="4" fill="#F2E9D8" />
<rect x="147" y="51" width="2" height="4" fill="#A77C68" />
<rect x="17" y="55" width="146" height="4" fill="#E8A87C" />
<rect x="17" y="59" width="3" height="240" fill="#E8A87C" />
<rect x="20" y="59" width="141" height="1" fill="#665054" />
<rect x="161" y="59" width="2" height="240" fill="#E8A87C" />
<rect x="20" y="60" width="6" height="237" fill="#665054" />
<rect x="26" y="60" width="128" height="235" fill="#252540" />
<rect x="154" y="60" width="7" height="237" fill="#665054" />
<rect x="11" y="264" width="6" height="7" fill="#A77C68" />
<rect x="11" y="271" width="1" height="4" fill="#A77C68" />
<rect x="13" y="271" width="2" height="4" fill="#A77C68" />
<rect x="12" y="273" width="1" height="2" fill="#A77C68" />
<rect x="15" y="273" width="2" height="2" fill="#A77C68" />
<rect x="163" y="276" width="4" height="15" fill="#665054" />
<rect x="167" y="277" width="1" height="14" fill="#665054" />
<rect x="166" y="291" width="1" height="1" fill="#665054" />
<rect x="165" y="292" width="1" height="1" fill="#665054" />
<rect x="164" y="293" width="1" height="1" fill="#665054" />
<rect x="163" y="294" width="1" height="1" fill="#665054" />
<rect x="26" y="295" width="128" height="2" fill="#665054" />
<rect x="20" y="297" width="141" height="2" fill="#E8A87C" />
<rect x="20" y="299" width="146" height="2" fill="#A77C68" />
<rect x="13" y="301" width="1" height="9" fill="#A77C68" />
<rect x="20" y="301" width="143" height="3" fill="#A77C68" />
<rect x="16" y="303" width="4" height="1" fill="#A77C68" />
<rect x="163" y="303" width="1" height="7" fill="#A77C68" />
<rect x="165" y="303" width="1" height="6" fill="#A77C68" />
<rect x="169" y="303" width="1" height="6" fill="#A77C68" />
<rect x="16" y="304" width="147" height="4" fill="#E8A87C" />
<rect x="14" y="308" width="149" height="2" fill="#A77C68" />
<rect x="164" y="308" width="1" height="1" fill="#A77C68" />
<rect x="166" y="308" width="3" height="1" fill="#A77C68" />
<rect x="170" y="308" width="1" height="1" fill="#A77C68" />
<rect x="19" y="310" width="1" height="21" fill="#A77C68" />
<rect x="22" y="310" width="1" height="21" fill="#A77C68" />
<rect x="36" y="310" width="1" height="50" fill="#A77C68" />
<rect x="44" y="310" width="12" height="5" fill="#A77C68" />
<rect x="87" y="310" width="7" height="21" fill="#A77C68" />
<rect x="121" y="310" width="12" height="13" fill="#A77C68" />
<rect x="138" y="310" width="1" height="50" fill="#A77C68" />
<rect x="157" y="310" width="1" height="21" fill="#A77C68" />
<rect x="160" y="310" width="1" height="21" fill="#A77C68" />
<rect x="56" y="312" width="12" height="2" fill="#A77C68" />
<rect x="68" y="313" width="1" height="47" fill="#A77C68" />
<rect x="67" y="314" width="1" height="46" fill="#A77C68" />
<rect x="44" y="315" width="1" height="5" fill="#665054" />
<rect x="45" y="315" width="11" height="2" fill="#A77C68" />
<rect x="56" y="316" width="11" height="1" fill="#A77C68" />
<rect x="69" y="316" width="1" height="3" fill="#A77C68" />
<rect x="37" y="317" width="7" height="2" fill="#A77C68" />
<rect x="45" y="317" width="1" height="3" fill="#665054" />
<rect x="46" y="317" width="10" height="2" fill="#A77C68" />
<rect x="57" y="317" width="1" height="2" fill="#A77C68" />
<rect x="62" y="317" width="1" height="2" fill="#A77C68" />
<rect x="46" y="319" width="1" height="1" fill="#665054" />
<rect x="47" y="319" width="9" height="2" fill="#A77C68" />
<rect x="10" y="320" width="9" height="1" fill="#A77C68" />
<rect x="20" y="320" width="2" height="11" fill="#A77C68" />
<rect x="23" y="320" width="13" height="1" fill="#A77C68" />
<rect x="37" y="320" width="10" height="1" fill="#A77C68" />
<rect x="56" y="320" width="11" height="1" fill="#A77C68" />
<rect x="69" y="320" width="18" height="1" fill="#A77C68" />
<rect x="94" y="320" width="27" height="1" fill="#A77C68" />
<rect x="133" y="320" width="5" height="1" fill="#A77C68" />
<rect x="139" y="320" width="18" height="1" fill="#A77C68" />
<rect x="158" y="320" width="2" height="11" fill="#A77C68" />
<rect x="161" y="320" width="9" height="1" fill="#A77C68" />
<rect x="9" y="321" width="1" height="3" fill="#A77C68" />
<rect x="11" y="321" width="1" height="4" fill="#A77C68" />
<rect x="14" y="321" width="1" height="10" fill="#A77C68" />
<rect x="18" y="321" width="1" height="10" fill="#A77C68" />
<rect x="23" y="321" width="1" height="10" fill="#A77C68" />
<rect x="28" y="321" width="1" height="10" fill="#A77C68" />
<rect x="40" y="321" width="1" height="10" fill="#A77C68" />
<rect x="44" y="321" width="4" height="39" fill="#665054" />
<rect x="48" y="321" width="8" height="39" fill="#A77C68" />
<rect x="76" y="321" width="1" height="10" fill="#A77C68" />
<rect x="101" y="321" width="1" height="10" fill="#A77C68" />
<rect x="110" y="321" width="1" height="10" fill="#A77C68" />
<rect x="149" y="321" width="1" height="10" fill="#A77C68" />
<rect x="161" y="321" width="1" height="10" fill="#A77C68" />
<rect x="164" y="321" width="1" height="10" fill="#A77C68" />
<rect x="167" y="321" width="1" height="4" fill="#A77C68" />
<rect x="170" y="321" width="1" height="3" fill="#A77C68" />
<rect x="121" y="323" width="1" height="37" fill="#665054" />
<rect x="122" y="323" width="11" height="3" fill="#A77C68" />
<rect x="10" y="324" width="1" height="1" fill="#A77C68" />
<rect x="12" y="324" width="2" height="1" fill="#A77C68" />
<rect x="15" y="324" width="3" height="1" fill="#A77C68" />
<rect x="24" y="324" width="4" height="1" fill="#A77C68" />
<rect x="29" y="324" width="7" height="1" fill="#A77C68" />
<rect x="37" y="324" width="3" height="1" fill="#A77C68" />
<rect x="41" y="324" width="3" height="1" fill="#A77C68" />
<rect x="56" y="324" width="11" height="1" fill="#A77C68" />
<rect x="69" y="324" width="7" height="1" fill="#A77C68" />
<rect x="77" y="324" width="10" height="1" fill="#A77C68" />
<rect x="94" y="324" width="7" height="1" fill="#A77C68" />
<rect x="102" y="324" width="8" height="1" fill="#A77C68" />
<rect x="111" y="324" width="10" height="1" fill="#A77C68" />
<rect x="133" y="324" width="5" height="1" fill="#A77C68" />
<rect x="139" y="324" width="10" height="1" fill="#A77C68" />
<rect x="150" y="324" width="7" height="1" fill="#A77C68" />
<rect x="162" y="324" width="2" height="1" fill="#A77C68" />
<rect x="165" y="324" width="2" height="1" fill="#A77C68" />
<rect x="168" y="324" width="2" height="1" fill="#A77C68" />
<rect x="122" y="326" width="1" height="34" fill="#665054" />
<rect x="123" y="326" width="10" height="34" fill="#A77C68" />
<rect x="12" y="327" width="2" height="4" fill="#A77C68" />
<rect x="15" y="327" width="3" height="4" fill="#A77C68" />
<rect x="24" y="327" width="4" height="4" fill="#A77C68" />
<rect x="29" y="327" width="7" height="4" fill="#A77C68" />
<rect x="37" y="327" width="3" height="4" fill="#A77C68" />
<rect x="41" y="327" width="3" height="4" fill="#A77C68" />
<rect x="56" y="327" width="11" height="4" fill="#A77C68" />
<rect x="69" y="327" width="7" height="4" fill="#A77C68" />
<rect x="77" y="327" width="10" height="4" fill="#A77C68" />
<rect x="94" y="327" width="7" height="4" fill="#A77C68" />
<rect x="102" y="327" width="8" height="4" fill="#A77C68" />
<rect x="111" y="327" width="10" height="4" fill="#A77C68" />
<rect x="133" y="327" width="5" height="4" fill="#A77C68" />
<rect x="139" y="327" width="10" height="4" fill="#A77C68" />
<rect x="150" y="327" width="7" height="4" fill="#A77C68" />
<rect x="162" y="327" width="2" height="4" fill="#A77C68" />
<rect x="165" y="327" width="4" height="4" fill="#A77C68" />
<rect x="37" y="331" width="1" height="29" fill="#A77C68" />
</svg>