<?xml version="1.0" encoding="UTF-8" ?>
<svg version="1.1" width="180" height="320" xmlns="http://www.w3.org/2000/svg" shape-rendering="crispEdges">
<rect x="107" y="80" width="1" height="1" fill="#E8A87C" />
<rect x="108" y="80" width="1" height="1" fill="#A77C68" />
<rect x="109" y="80" width="1" height="1" fill="#E8A87C" />
<rect x="110" y="80" width="1" height="1" fill="#A77C68" />
<rect x="105" y="81" width="2" height="1" fill="#E8A87C" />
<rect x="107" y="81" width="1" height="1" fill="#A77C68" />
<rect x="108" y="81" width="1" height="1" fill="#E8A87C" />
<rect x="109" y="81" width="1" height="1" fill="#A77C68" />
<rect x="104" y="82" width="2" height="1" fill="#E8A87C" />
<rect x="106" y="82" width="1" height="1" fill="#A77C68" />
<rect x="107" y="82" width="1" height="1" fill="#E8A87C" />
<rect x="108" y="82" width="1" height="1" fill="#A77C68" />
<rect x="103" y="83" width="1" height="1" fill="#EDBD9C" />
<rect x="104" y="83" width="1" height="4" fill="#E8A87C" />
<rect x="105" y="83" width="1" height="1" fill="#A77C68" />
<rect x="106" y="83" width="1" height="1" fill="#E8A87C" />
<rect x="107" y="83" width="1" height="3" fill="#A77C68" />
<rect x="108" y="83" width="1" height="1" fill="#665054" />
<rect x="102" y="84" width="1" height="1" fill="#EDBD9C" />
<rect x="103" y="84" width="1" height="3" fill="#E8A87C" />
<rect x="105" y="84" width="1" height="2" fill="#E8A87C" />
<rect x="106" y="84" width="1" height="2" fill="#A77C68" />
<rect x="101" y="85" width="1" height="1" fill="#EDBD9C" />
<rect x="102" y="85" width="1" height="5" fill="#E8A87C" />
<rect x="100" y="86" width="1" height="2" fill="#EDBD9C" />
<rect x="101" y="86" width="1" height="7" fill="#E8A87C" />
<rect x="105" y="86" width="1" height="1" fill="#A77C68" />
<rect x="106" y="86" width="2" height="1" fill="#665054" />
<rect x="99" y="87" width="1" height="2" fill="#EDBD9C" />
<rect x="103" y="87" width="2" height="5" fill="#A77C68" />
<rect x="105" y="87" width="2" height="5" fill="#665054" />
<rect x="100" y="88" width="1" height="4" fill="#E8A87C" />
<rect x="98" y="89" width="1" height="7" fill="#EDBD9C" />
<rect x="99" y="89" width="1" height="1" fill="#E8A87C" />
<rect x="99" y="90" width="1" height="2" fill="#EDBD9C" />
<rect x="102" y="90" width="1" height="2" fill="#A77C68" />
<rect x="97" y="91" width="1" height="11" fill="#EDBD9C" />
<rect x="99" y="92" width="1" height="8" fill="#E8A87C" />
<rect x="100" y="92" width="1" height="2" fill="#A77C68" />
<rect x="102" y="92" width="2" height="1" fill="#E8A87C" />
<rect x="104" y="92" width="2" height="7" fill="#A77C68" />
<rect x="106" y="92" width="1" height="1" fill="#665054" />
<rect x="101" y="93" width="2" height="2" fill="#A77C68" />
<rect x="103" y="93" width="1" height="1" fill="#E8A87C" />
<rect x="106" y="93" width="1" height="1" fill="#A77C68" />
<rect x="107" y="93" width="1" height="1" fill="#665054" />
<rect x="100" y="94" width="1" height="6" fill="#E8A87C" />
<rect x="103" y="94" width="1" height="1" fill="#A77C68" />
<rect x="106" y="94" width="1" height="1" fill="#665054" />
<rect x="107" y="94" width="1" height="1" fill="#A77C68" />
<rect x="101" y="95" width="1" height="5" fill="#E8A87C" />
<rect x="102" y="95" width="1" height="3" fill="#A77C68" />
<rect x="103" y="95" width="1" height="1" fill="#E8A87C" />
<rect x="106" y="95" width="1" height="1" fill="#A77C68" />
<rect x="107" y="95" width="1" height="1" fill="#665054" />
<rect x="98" y="96" width="1" height="1" fill="#E8A87C" />
<rect x="103" y="96" width="1" height="1" fill="#A77C68" />
<rect x="106" y="96" width="1" height="1" fill="#665054" />
<rect x="107" y="96" width="1" height="1" fill="#A77C68" />
<rect x="98" y="97" width="1" height="1" fill="#EDBD9C" />
<rect x="103" y="97" width="1" height="1" fill="#E8A87C" />
<rect x="106" y="97" width="1" height="4" fill="#A77C68" />
<rect x="107" y="97" width="1" height="1" fill="#665054" />
<rect x="108" y="97" width="1" height="1" fill="#A77C68" />
<rect x="98" y="98" width="1" height="1" fill="#E8A87C" />
<rect x="102" y="98" width="1" height="2" fill="#E8A87C" />
<rect x="103" y="98" width="1" height="1" fill="#A77C68" />
<rect x="107" y="98" width="1" height="1" fill="#A77C68" />
<rect x="108" y="98" width="1" height="1" fill="#665054" />
<rect x="135" y="98" width="1" height="1" fill="#A77C68" />
<rect x="98" y="99" width="1" height="1" fill="#EDBD9C" />
<rect x="103" y="99" width="2" height="1" fill="#E8A87C" />
<rect x="105" y="99" width="1" height="1" fill="#A77C68" />
<rect x="107" y="99" width="1" height="1" fill="#665054" />
<rect x="108" y="99" width="1" height="1" fill="#A77C68" />
<rect x="109" y="99" width="1" height="1" fill="#665054" />
<rect x="134" y="99" width="1" height="1" fill="#A77C68" />
<rect x="135" y="99" width="1" height="2" fill="#E8A87C" />
<rect x="98" y="100" width="1" height="1" fill="#E8A87C" />
<rect x="99" y="100" width="1" height="1" fill="#EDBD9C" />
<rect x="100" y="100" width="4" height="1" fill="#A77C68" />
<rect x="104" y="100" width="2" height="1" fill="#E8A87C" />
<rect x="107" y="100" width="1" height="7" fill="#A77C68" />
<rect x="108" y="100" width="1" height="1" fill="#665054" />
<rect x="109" y="100" width="1" height="1" fill="#A77C68" />
<rect x="110" y="100" width="1" height="1" fill="#665054" />
<rect x="133" y="100" width="1" height="2" fill="#A77C68" />
<rect x="134" y="100" width="1" height="2" fill="#E8A87C" />
<rect x="98" y="101" width="1" height="1" fill="#EDBD9C" />
<rect x="99" y="101" width="1" height="1" fill="#A77C68" />
<rect x="100" y="101" width="1" height="1" fill="#E8A87C" />
<rect x="101" y="101" width="1" height="3" fill="#A77C68" />
<rect x="102" y="101" width="1" height="1" fill="#E8A87C" />
<rect x="103" y="101" width="2" height="1" fill="#A77C68" />
<rect x="105" y="101" width="2" height="2" fill="#E8A87C" />
<rect x="108" y="101" width="1" height="2" fill="#A77C68" />
<rect x="109" y="101" width="1" height="1" fill="#665054" />
<rect x="110" y="101" width="1" height="1" fill="#A77C68" />
<rect x="111" y="101" width="1" height="1" fill="#665054" />
<rect x="132" y="101" width="1" height="1" fill="#665054" />
<rect x="135" y="101" width="1" height="1" fill="#A77C68" />
<rect x="98" y="102" width="1" height="1" fill="#E8A87C" />
<rect x="99" y="102" width="1" height="1" fill="#EDBD9C" />
<rect x="100" y="102" width="1" height="1" fill="#A77C68" />
<rect x="102" y="102" width="1" height="1" fill="#A77C68" />
<rect x="103" y="102" width="1" height="1" fill="#E8A87C" />
<rect x="104" y="102" width="1" height="1" fill="#A77C68" />
<rect x="109" y="102" width="1" height="5" fill="#A77C68" />
<rect x="110" y="102" width="1" height="3" fill="#665054" />
<rect x="111" y="102" width="2" height="1" fill="#A77C68" />
<rect x="131" y="102" width="1" height="1" fill="#665054" />
<rect x="132" y="102" width="1" height="1" fill="#A77C68" />
<rect x="133" y="102" width="1" height="1" fill="#E8A87C" />
<rect x="134" y="102" width="1" height="1" fill="#A77C68" />
<rect x="135" y="102" width="1" height="1" fill="#E8A87C" />
<rect x="98" y="103" width="1" height="2" fill="#EDBD9C" />
<rect x="99" y="103" width="1" height="2" fill="#E8A87C" />
<rect x="100" y="103" width="1" height="2" fill="#EDBD9C" />
<rect x="102" y="103" width="1" height="1" fill="#E8A87C" />
<rect x="103" y="103" width="1" height="1" fill="#A77C68" />
<rect x="104" y="103" width="1" height="1" fill="#E8A87C" />
<rect x="105" y="103" width="1" height="1" fill="#A77C68" />
<rect x="106" y="103" width="1" height="1" fill="#E8A87C" />
<rect x="108" y="103" width="1" height="4" fill="#E8A87C" />
<rect x="111" y="103" width="1" height="3" fill="#665054" />
<rect x="112" y="103" width="2" height="1" fill="#A77C68" />
<rect x="130" y="103" width="1" height="1" fill="#665054" />
<rect x="131" y="103" width="1" height="1" fill="#A77C68" />
<rect x="132" y="103" width="1" height="1" fill="#E8A87C" />
<rect x="133" y="103" width="1" height="1" fill="#A77C68" />
<rect x="134" y="103" width="1" height="1" fill="#E8A87C" />
<rect x="135" y="103" width="1" height="1" fill="#A77C68" />
<rect x="101" y="104" width="1" height="1" fill="#E8A87C" />
<rect x="102" y="104" width="1" height="1" fill="#A77C68" />
<rect x="103" y="104" width="1" height="1" fill="#E8A87C" />
<rect x="104" y="104" width="1" height="2" fill="#A77C68" />
<rect x="105" y="104" width="1" height="1" fill="#E8A87C" />
<rect x="106" y="104" width="1" height="2" fill="#A77C68" />
<rect x="112" y="104" width="1" height="3" fill="#665054" />
<rect x="113" y="104" width="2" height="1" fill="#A77C68" />
<rect x="115" y="104" width="1" height="4" fill="#665054" />
<rect x="116" y="104" width="1" height="1" fill="#A77C68" />
<rect x="128" y="104" width="1" height="1" fill="#A77C68" />
<rect x="129" y="104" width="1" height="1" fill="#665054" />
<rect x="130" y="104" width="1" height="1" fill="#A77C68" />
<rect x="131" y="104" width="1" height="1" fill="#E8A87C" />
<rect x="132" y="104" width="1" height="1" fill="#A77C68" />
<rect x="133" y="104" width="1" height="1" fill="#E8A87C" />
<rect x="134" y="104" width="1" height="1" fill="#A77C68" />
<rect x="135" y="104" width="1" height="1" fill="#E8A87C" />
<rect x="99" y="105" width="1" height="2" fill="#EDBD9C" />
<rect x="100" y="105" width="1" height="1" fill="#E8A87C" />
<rect x="101" y="105" width="1" height="1" fill="#EDBD9C" />
<rect x="102" y="105" width="1" height="1" fill="#E8A87C" />
<rect x="103" y="105" width="1" height="1" fill="#A77C68" />
<rect x="105" y="105" width="1" height="1" fill="#A77C68" />
<rect x="110" y="105" width="1" height="3" fill="#A77C68" />
<rect x="113" y="105" width="2" height="2" fill="#665054" />
<rect x="116" y="105" width="1" height="1" fill="#665054" />
<rect x="117" y="105" width="2" height="1" fill="#A77C68" />
<rect x="126" y="105" width="2" height="1" fill="#A77C68" />
<rect x="128" y="105" width="1" height="1" fill="#665054" />
<rect x="129" y="105" width="1" height="1" fill="#A77C68" />
<rect x="130" y="105" width="1" height="1" fill="#E8A87C" />
<rect x="131" y="105" width="1" height="1" fill="#A77C68" />
<rect x="132" y="105" width="1" height="1" fill="#E8A87C" />
<rect x="133" y="105" width="1" height="1" fill="#A77C68" />
<rect x="134" y="105" width="1" height="2" fill="#E8A87C" />
<rect x="100" y="106" width="1" height="3" fill="#EDBD9C" />
<rect x="101" y="106" width="1" height="1" fill="#E8A87C" />
<rect x="102" y="106" width="1" height="1" fill="#EDBD9C" />
<rect x="103" y="106" width="4" height="1" fill="#E8A87C" />
<rect x="111" y="106" width="1" height="3" fill="#A77C68" />
<rect x="116" y="106" width="1" height="5" fill="#A77C68" />
<rect x="117" y="106" width="1" height="1" fill="#665054" />
<rect x="118" y="106" width="1" height="1" fill="#A77C68" />
<rect x="119" y="106" width="1" height="1" fill="#665054" />
<rect x="120" y="106" width="1" height="1" fill="#A77C68" />
<rect x="121" y="106" width="1" height="1" fill="#665054" />
<rect x="122" y="106" width="1" height="1" fill="#A77C68" />
<rect x="123" y="106" width="1" height="1" fill="#665054" />
<rect x="124" y="106" width="1" height="1" fill="#A77C68" />
<rect x="125" y="106" width="1" height="1" fill="#665054" />
<rect x="126" y="106" width="1" height="1" fill="#A77C68" />
<rect x="127" y="106" width="1" height="1" fill="#665054" />
<rect x="128" y="106" width="1" height="1" fill="#A77C68" />
<rect x="129" y="106" width="1" height="1" fill="#E8A87C" />
<rect x="130" y="106" width="1" height="1" fill="#A77C68" />
<rect x="131" y="106" width="1" height="1" fill="#E8A87C" />
<rect x="132" y="106" width="1" height="1" fill="#A77C68" />
<rect x="133" y="106" width="1" height="3" fill="#E8A87C" />
<rect x="101" y="107" width="1" height="1" fill="#EDBD9C" />
<rect x="102" y="107" width="1" height="1" fill="#E8A87C" />
<rect x="103" y="107" width="1" height="1" fill="#EDBD9C" />
<rect x="104" y="107" width="4" height="1" fill="#E8A87C" />
<rect x="108" y="107" width="1" height="1" fill="#A77C68" />
<rect x="109" y="107" width="1" height="1" fill="#E8A87C" />
<rect x="112" y="107" width="3" height="3" fill="#A77C68" />
<rect x="117" y="107" width="1" height="3" fill="#A77C68" />
<rect x="118" y="107" width="1" height="1" fill="#665054" />
<rect x="119" y="107" width="1" height="3" fill="#A77C68" />
<rect x="120" y="107" width="1" height="1" fill="#665054" />
<rect x="121" y="107" width="1" height="3" fill="#A77C68" />
<rect x="122" y="107" width="1" height="1" fill="#665054" />
<rect x="123" y="107" width="1" height="3" fill="#A77C68" />
<rect x="124" y="107" width="1" height="1" fill="#665054" />
<rect x="125" y="107" width="1" height="3" fill="#A77C68" />
<rect x="126" y="107" width="1" height="1" fill="#665054" />
<rect x="127" y="107" width="1" height="1" fill="#A77C68" />
<rect x="128" y="107" width="1" height="1" fill="#E8A87C" />
<rect x="129" y="107" width="1" height="1" fill="#A77C68" />
<rect x="130" y="107" width="1" height="1" fill="#E8A87C" />
<rect x="131" y="107" width="1" height="1" fill="#A77C68" />
<rect x="132" y="107" width="1" height="3" fill="#E8A87C" />
<rect x="101" y="108" width="1" height="1" fill="#E8A87C" />
<rect x="102" y="108" width="1" height="1" fill="#EDBD9C" />
<rect x="103" y="108" width="1" height="1" fill="#E8A87C" />
<rect x="104" y="108" width="1" height="1" fill="#EDBD9C" />
<rect x="105" y="108" width="4" height="1" fill="#E8A87C" />
<rect x="109" y="108" width="1" height="1" fill="#A77C68" />
<rect x="110" y="108" width="1" height="1" fill="#E8A87C" />
<rect x="115" y="108" width="1" height="3" fill="#A77C68" />
<rect x="118" y="108" width="1" height="3" fill="#A77C68" />
<rect x="120" y="108" width="1" height="3" fill="#A77C68" />
<rect x="122" y="108" width="1" height="3" fill="#A77C68" />
<rect x="124" y="108" width="1" height="1" fill="#A77C68" />
<rect x="126" y="108" width="1" height="1" fill="#A77C68" />
<rect x="127" y="108" width="1" height="1" fill="#E8A87C" />
<rect x="128" y="108" width="1" height="1" fill="#A77C68" />
<rect x="129" y="108" width="1" height="1" fill="#E8A87C" />
<rect x="130" y="108" width="1" height="1" fill="#A77C68" />
<rect x="131" y="108" width="1" height="3" fill="#E8A87C" />
<rect x="101" y="109" width="1" height="1" fill="#EDBD9C" />
<rect x="102" y="109" width="1" height="1" fill="#E8A87C" />
<rect x="103" y="109" width="1" height="1" fill="#EDBD9C" />
<rect x="104" y="109" width="1" height="1" fill="#E8A87C" />
<rect x="105" y="109" width="1" height="1" fill="#EDBD9C" />
<rect x="106" y="109" width="4" height="1" fill="#E8A87C" />
<rect x="110" y="109" width="1" height="1" fill="#A77C68" />
<rect x="111" y="109" width="1" height="1" fill="#E8A87C" />
<rect x="124" y="109" width="1" height="1" fill="#E8A87C" />
<rect x="126" y="109" width="1" height="1" fill="#E8A87C" />
<rect x="127" y="109" width="1" height="1" fill="#A77C68" />
<rect x="128" y="109" width="1" height="1" fill="#E8A87C" />
<rect x="129" y="109" width="1" height="1" fill="#A77C68" />
<rect x="130" y="109" width="1" height="3" fill="#E8A87C" />
<rect x="102" y="110" width="1" height="1" fill="#EDBD9C" />
<rect x="103" y="110" width="1" height="1" fill="#E8A87C" />
<rect x="104" y="110" width="1" height="1" fill="#EDBD9C" />
<rect x="105" y="110" width="1" height="1" fill="#E8A87C" />
<rect x="106" y="110" width="1" height="1" fill="#EDBD9C" />
<rect x="107" y="110" width="4" height="1" fill="#E8A87C" />
<rect x="111" y="110" width="1" height="1" fill="#A77C68" />
<rect x="112" y="110" width="1" height="4" fill="#E8A87C" />
<rect x="113" y="110" width="1" height="1" fill="#A77C68" />
<rect x="114" y="110" width="1" height="1" fill="#E8A87C" />
<rect x="117" y="110" width="1" height="1" fill="#E8A87C" />
<rect x="119" y="110" width="1" height="1" fill="#E8A87C" />
<rect x="121" y="110" width="1" height="1" fill="#E8A87C" />
<rect x="123" y="110" width="1" height="1" fill="#E8A87C" />
<rect x="124" y="110" width="1" height="1" fill="#A77C68" />
<rect x="125" y="110" width="1" height="1" fill="#E8A87C" />
<rect x="126" y="110" width="1" height="1" fill="#A77C68" />
<rect x="127" y="110" width="1" height="4" fill="#E8A87C" />
<rect x="128" y="110" width="1" height="1" fill="#A77C68" />
<rect x="129" y="110" width="1" height="2" fill="#E8A87C" />
<rect x="103" y="111" width="1" height="1" fill="#EDBD9C" />
<rect x="104" y="111" width="1" height="1" fill="#E8A87C" />
<rect x="105" y="111" width="1" height="1" fill="#EDBD9C" />
<rect x="106" y="111" width="1" height="1" fill="#E8A87C" />
<rect x="107" y="111" width="1" height="1" fill="#EDBD9C" />
<rect x="108" y="111" width="4" height="1" fill="#E8A87C" />
<rect x="113" y="111" width="1" height="1" fill="#E8A87C" />
<rect x="114" y="111" width="1" height="1" fill="#EDBD9C" />
<rect x="115" y="111" width="2" height="1" fill="#E8A87C" />
<rect x="117" y="111" width="1" height="1" fill="#A77C68" />
<rect x="118" y="111" width="1" height="5" fill="#E8A87C" />
<rect x="119" y="111" width="1" height="1" fill="#A77C68" />
<rect x="120" y="111" width="1" height="5" fill="#E8A87C" />
<rect x="121" y="111" width="1" height="1" fill="#A77C68" />
<rect x="122" y="111" width="1" height="5" fill="#E8A87C" />
<rect x="123" y="111" width="1" height="1" fill="#A77C68" />
<rect x="124" y="111" width="1" height="4" fill="#E8A87C" />
<rect x="125" y="111" width="1" height="1" fill="#A77C68" />
<rect x="126" y="111" width="1" height="3" fill="#E8A87C" />
<rect x="128" y="111" width="1" height="2" fill="#E8A87C" />
<rect x="104" y="112" width="1" height="1" fill="#EDBD9C" />
<rect x="105" y="112" width="1" height="1" fill="#E8A87C" />
<rect x="106" y="112" width="1" height="1" fill="#EDBD9C" />
<rect x="107" y="112" width="1" height="1" fill="#E8A87C" />
<rect x="108" y="112" width="1" height="1" fill="#EDBD9C" />
<rect x="109" y="112" width="3" height="1" fill="#E8A87C" />
<rect x="113" y="112" width="2" height="1" fill="#A77C68" />
<rect x="115" y="112" width="1" height="1" fill="#EDBD9C" />
<rect x="116" y="112" width="2" height="3" fill="#E8A87C" />
<rect x="119" y="112" width="1" height="3" fill="#E8A87C" />
<rect x="121" y="112" width="1" height="3" fill="#E8A87C" />
<rect x="123" y="112" width="1" height="4" fill="#E8A87C" />
<rect x="125" y="112" width="1" height="3" fill="#E8A87C" />
<rect x="129" y="112" width="1" height="1" fill="#EDBD9C" />
<rect x="105" y="113" width="1" height="1" fill="#EDBD9C" />
<rect x="106" y="113" width="1" height="1" fill="#E8A87C" />
<rect x="107" y="113" width="1" height="2" fill="#EDBD9C" />
<rect x="108" y="113" width="1" height="1" fill="#E8A87C" />
<rect x="109" y="113" width="1" height="1" fill="#EDBD9C" />
<rect x="110" y="113" width="1" height="1" fill="#E8A87C" />
<rect x="111" y="113" width="1" height="1" fill="#EDBD9C" />
<rect x="113" y="113" width="1" height="2" fill="#E8A87C" />
<rect x="114" y="113" width="2" height="1" fill="#A77C68" />
<rect x="128" y="113" width="1" height="1" fill="#EDBD9C" />
<rect x="106" y="114" width="1" height="1" fill="#EDBD9C" />
<rect x="108" y="114" width="1" height="2" fill="#EDBD9C" />
<rect x="109" y="114" width="1" height="1" fill="#E8A87C" />
<rect x="110" y="114" width="1" height="1" fill="#EDBD9C" />
<rect x="111" y="114" width="1" height="1" fill="#E8A87C" />
<rect x="112" y="114" width="1" height="1" fill="#EDBD9C" />
<rect x="114" y="114" width="1" height="1" fill="#EDBD9C" />
<rect x="115" y="114" width="1" height="3" fill="#E8A87C" />
<rect x="126" y="114" width="2" height="1" fill="#EDBD9C" />
<rect x="109" y="115" width="1" height="1" fill="#EDBD9C" />
<rect x="110" y="115" width="1" height="1" fill="#E8A87C" />
<rect x="111" y="115" width="1" height="2" fill="#EDBD9C" />
<rect x="112" y="115" width="1" height="1" fill="#E8A87C" />
<rect x="113" y="115" width="1" height="1" fill="#EDBD9C" />
<rect x="114" y="115" width="1" height="1" fill="#E8A87C" />
<rect x="116" y="115" width="1" height="1" fill="#E8A87C" />
<rect x="117" y="115" width="1" height="1" fill="#EDBD9C" />
<rect x="119" y="115" width="1" height="1" fill="#EDBD9C" />
<rect x="121" y="115" width="1" height="1" fill="#EDBD9C" />
<rect x="124" y="115" width="2" height="1" fill="#EDBD9C" />
<rect x="110" y="116" width="1" height="1" fill="#EDBD9C" />
<rect x="112" y="116" width="1" height="1" fill="#EDBD9C" />
<rect x="113" y="116" width="1" height="1" fill="#E8A87C" />
<rect x="114" y="116" width="1" height="2" fill="#EDBD9C" />
<rect x="116" y="116" width="1" height="2" fill="#EDBD9C" />
<rect x="117" y="116" width="1" height="1" fill="#E8A87C" />
<rect x="118" y="116" width="1" height="2" fill="#EDBD9C" />
<rect x="119" y="116" width="1" height="1" fill="#E8A87C" />
<rect x="120" y="116" width="1" height="2" fill="#EDBD9C" />
<rect x="121" y="116" width="1" height="1" fill="#E8A87C" />
<rect x="122" y="116" width="2" height="1" fill="#EDBD9C" />
<rect x="113" y="117" width="1" height="1" fill="#EDBD9C" />
<rect x="115" y="117" width="1" height="1" fill="#EDBD9C" />
<rect x="117" y="117" width="1" height="1" fill="#EDBD9C" />
<rect x="119" y="117" width="1" height="1" fill="#EDBD9C" />
</svg>