<?xml version="1.0" encoding="UTF-8" ?>
<svg version="1.1" width="180" height="390" xmlns="http://www.w3.org/2000/svg" shape-rendering="crispEdges">
<rect x="125" y="112" width="1" height="1" fill="#E8A87C" />
<rect x="126" y="112" width="1" height="1" fill="#A77C68" />
<rect x="127" y="112" width="1" height="1" fill="#E8A87C" />
<rect x="128" y="112" width="1" height="1" fill="#A77C68" />
<rect x="123" y="113" width="2" height="1" fill="#E8A87C" />
<rect x="125" y="113" width="1" height="1" fill="#A77C68" />
<rect x="126" y="113" width="1" height="1" fill="#E8A87C" />
<rect x="127" y="113" width="1" height="1" fill="#A77C68" />
<rect x="122" y="114" width="2" height="1" fill="#E8A87C" />
<rect x="124" y="114" width="1" height="1" fill="#A77C68" />
<rect x="125" y="114" width="1" height="1" fill="#E8A87C" />
<rect x="126" y="114" width="1" height="1" fill="#A77C68" />
<rect x="121" y="115" width="1" height="1" fill="#EDBD9C" />
<rect x="122" y="115" width="1" height="4" fill="#E8A87C" />
<rect x="123" y="115" width="1" height="1" fill="#A77C68" />
<rect x="124" y="115" width="1" height="1" fill="#E8A87C" />
<rect x="125" y="115" width="1" height="3" fill="#A77C68" />
<rect x="126" y="115" width="1" height="1" fill="#665054" />
<rect x="120" y="116" width="1" height="1" fill="#EDBD9C" />
<rect x="121" y="116" width="1" height="3" fill="#E8A87C" />
<rect x="123" y="116" width="1" height="2" fill="#E8A87C" />
<rect x="124" y="116" width="1" height="2" fill="#A77C68" />
<rect x="119" y="117" width="1" height="1" fill="#EDBD9C" />
<rect x="120" y="117" width="1" height="5" fill="#E8A87C" />
<rect x="118" y="118" width="1" height="2" fill="#EDBD9C" />
<rect x="119" y="118" width="1" height="7" fill="#E8A87C" />
<rect x="123" y="118" width="1" height="1" fill="#A77C68" />
<rect x="124" y="118" width="2" height="1" fill="#665054" />
<rect x="117" y="119" width="1" height="2" fill="#EDBD9C" />
<rect x="121" y="119" width="2" height="5" fill="#A77C68" />
<rect x="123" y="119" width="2" height="5" fill="#665054" />
<rect x="118" y="120" width="1" height="4" fill="#E8A87C" />
<rect x="116" y="121" width="1" height="7" fill="#EDBD9C" />
<rect x="117" y="121" width="1" height="1" fill="#E8A87C" />
<rect x="117" y="122" width="1" height="2" fill="#EDBD9C" />
<rect x="120" y="122" width="1" height="2" fill="#A77C68" />
<rect x="115" y="123" width="1" height="11" fill="#EDBD9C" />
<rect x="117" y="124" width="1" height="8" fill="#E8A87C" />
<rect x="118" y="124" width="1" height="2" fill="#A77C68" />
<rect x="120" y="124" width="2" height="1" fill="#E8A87C" />
<rect x="122" y="124" width="2" height="7" fill="#A77C68" />
<rect x="124" y="124" width="1" height="1" fill="#665054" />
<rect x="119" y="125" width="2" height="2" fill="#A77C68" />
<rect x="121" y="125" width="1" height="1" fill="#E8A87C" />
<rect x="124" y="125" width="1" height="1" fill="#A77C68" />
<rect x="125" y="125" width="1" height="1" fill="#665054" />
<rect x="118" y="126" width="1" height="6" fill="#E8A87C" />
<rect x="121" y="126" width="1" height="1" fill="#A77C68" />
<rect x="124" y="126" width="1" height="1" fill="#665054" />
<rect x="125" y="126" width="1" height="1" fill="#A77C68" />
<rect x="119" y="127" width="1" height="5" fill="#E8A87C" />
<rect x="120" y="127" width="1" height="3" fill="#A77C68" />
<rect x="121" y="127" width="1" height="1" fill="#E8A87C" />
<rect x="124" y="127" width="1" height="1" fill="#A77C68" />
<rect x="125" y="127" width="1" height="1" fill="#665054" />
<rect x="116" y="128" width="1" height="1" fill="#E8A87C" />
<rect x="121" y="128" width="1" height="1" fill="#A77C68" />
<rect x="124" y="128" width="1" height="1" fill="#665054" />
<rect x="125" y="128" width="1" height="1" fill="#A77C68" />
<rect x="116" y="129" width="1" height="1" fill="#EDBD9C" />
<rect x="121" y="129" width="1" height="1" fill="#E8A87C" />
<rect x="124" y="129" width="1" height="4" fill="#A77C68" />
<rect x="125" y="129" width="1" height="1" fill="#665054" />
<rect x="126" y="129" width="1" height="1" fill="#A77C68" />
<rect x="116" y="130" width="1" height="1" fill="#E8A87C" />
<rect x="120" y="130" width="1" height="2" fill="#E8A87C" />
<rect x="121" y="130" width="1" height="1" fill="#A77C68" />
<rect x="125" y="130" width="1" height="1" fill="#A77C68" />
<rect x="126" y="130" width="1" height="1" fill="#665054" />
<rect x="153" y="130" width="1" height="1" fill="#A77C68" />
<rect x="116" y="131" width="1" height="1" fill="#EDBD9C" />
<rect x="121" y="131" width="2" height="1" fill="#E8A87C" />
<rect x="123" y="131" width="1" height="1" fill="#A77C68" />
<rect x="125" y="131" width="1" height="1" fill="#665054" />
<rect x="126" y="131" width="1" height="1" fill="#A77C68" />
<rect x="127" y="131" width="1" height="1" fill="#665054" />
<rect x="152" y="131" width="1" height="1" fill="#A77C68" />
<rect x="153" y="131" width="1" height="2" fill="#E8A87C" />
<rect x="116" y="132" width="1" height="1" fill="#E8A87C" />
<rect x="117" y="132" width="1" height="1" fill="#EDBD9C" />
<rect x="118" y="132" width="4" height="1" fill="#A77C68" />
<rect x="122" y="132" width="2" height="1" fill="#E8A87C" />
<rect x="125" y="132" width="1" height="7" fill="#A77C68" />
<rect x="126" y="132" width="1" height="1" fill="#665054" />
<rect x="127" y="132" width="1" height="1" fill="#A77C68" />
<rect x="128" y="132" width="1" height="1" fill="#665054" />
<rect x="151" y="132" width="1" height="2" fill="#A77C68" />
<rect x="152" y="132" width="1" height="2" fill="#E8A87C" />
<rect x="116" y="133" width="1" height="1" fill="#EDBD9C" />
<rect x="117" y="133" width="1" height="1" fill="#A77C68" />
<rect x="118" y="133" width="1" height="1" fill="#E8A87C" />
<rect x="119" y="133" width="1" height="3" fill="#A77C68" />
<rect x="120" y="133" width="1" height="1" fill="#E8A87C" />
<rect x="121" y="133" width="2" height="1" fill="#A77C68" />
<rect x="123" y="133" width="2" height="2" fill="#E8A87C" />
<rect x="126" y="133" width="1" height="2" fill="#A77C68" />
<rect x="127" y="133" width="1" height="1" fill="#665054" />
<rect x="128" y="133" width="1" height="1" fill="#A77C68" />
<rect x="129" y="133" width="1" height="1" fill="#665054" />
<rect x="150" y="133" width="1" height="1" fill="#665054" />
<rect x="153" y="133" width="1" height="1" fill="#A77C68" />
<rect x="116" y="134" width="1" height="1" fill="#E8A87C" />
<rect x="117" y="134" width="1" height="1" fill="#EDBD9C" />
<rect x="118" y="134" width="1" height="1" fill="#A77C68" />
<rect x="120" y="134" width="1" height="1" fill="#A77C68" />
<rect x="121" y="134" width="1" height="1" fill="#E8A87C" />
<rect x="122" y="134" width="1" height="1" fill="#A77C68" />
<rect x="127" y="134" width="1" height="5" fill="#A77C68" />
<rect x="128" y="134" width="1" height="3" fill="#665054" />
<rect x="129" y="134" width="2" height="1" fill="#A77C68" />
<rect x="149" y="134" width="1" height="1" fill="#665054" />
<rect x="150" y="134" width="1" height="1" fill="#A77C68" />
<rect x="151" y="134" width="1" height="1" fill="#E8A87C" />
<rect x="152" y="134" width="1" height="1" fill="#A77C68" />
<rect x="153" y="134" width="1" height="1" fill="#E8A87C" />
<rect x="116" y="135" width="1" height="2" fill="#EDBD9C" />
<rect x="117" y="135" width="1" height="2" fill="#E8A87C" />
<rect x="118" y="135" width="1" height="2" fill="#EDBD9C" />
<rect x="120" y="135" width="1" height="1" fill="#E8A87C" />
<rect x="121" y="135" width="1" height="1" fill="#A77C68" />
<rect x="122" y="135" width="1" height="1" fill="#E8A87C" />
<rect x="123" y="135" width="1" height="1" fill="#A77C68" />
<rect x="124" y="135" width="1" height="1" fill="#E8A87C" />
<rect x="126" y="135" width="1" height="4" fill="#E8A87C" />
<rect x="129" y="135" width="1" height="3" fill="#665054" />
<rect x="130" y="135" width="2" height="1" fill="#A77C68" />
<rect x="148" y="135" width="1" height="1" fill="#665054" />
<rect x="149" y="135" width="1" height="1" fill="#A77C68" />
<rect x="150" y="135" width="1" height="1" fill="#E8A87C" />
<rect x="151" y="135" width="1" height="1" fill="#A77C68" />
<rect x="152" y="135" width="1" height="1" fill="#E8A87C" />
<rect x="153" y="135" width="1" height="1" fill="#A77C68" />
<rect x="119" y="136" width="1" height="1" fill="#E8A87C" />
<rect x="120" y="136" width="1" height="1" fill="#A77C68" />
<rect x="121" y="136" width="1" height="1" fill="#E8A87C" />
<rect x="122" y="136" width="1" height="2" fill="#A77C68" />
<rect x="123" y="136" width="1" height="1" fill="#E8A87C" />
<rect x="124" y="136" width="1" height="2" fill="#A77C68" />
<rect x="130" y="136" width="1" height="3" fill="#665054" />
<rect x="131" y="136" width="2" height="1" fill="#A77C68" />
<rect x="133" y="136" width="1" height="4" fill="#665054" />
<rect x="134" y="136" width="1" height="1" fill="#A77C68" />
<rect x="146" y="136" width="1" height="1" fill="#A77C68" />
<rect x="147" y="136" width="1" height="1" fill="#665054" />
<rect x="148" y="136" width="1" height="1" fill="#A77C68" />
<rect x="149" y="136" width="1" height="1" fill="#E8A87C" />
<rect x="150" y="136" width="1" height="1" fill="#A77C68" />
<rect x="151" y="136" width="1" height="1" fill="#E8A87C" />
<rect x="152" y="136" width="1" height="1" fill="#A77C68" />
<rect x="153" y="136" width="1" height="1" fill="#E8A87C" />
<rect x="117" y="137" width="1" height="2" fill="#EDBD9C" />
<rect x="118" y="137" width="1" height="1" fill="#E8A87C" />
<rect x="119" y="137" width="1" height="1" fill="#EDBD9C" />
<rect x="120" y="137" width="1" height="1" fill="#E8A87C" />
<rect x="121" y="137" width="1" height="1" fill="#A77C68" />
<rect x="123" y="137" width="1" height="1" fill="#A77C68" />
<rect x="128" y="137" width="1" height="3" fill="#A77C68" />
<rect x="131" y="137" width="2" height="2" fill="#665054" />
<rect x="134" y="137" width="1" height="1" fill="#665054" />
<rect x="135" y="137" width="2" height="1" fill="#A77C68" />
<rect x="144" y="137" width="2" height="1" fill="#A77C68" />
<rect x="146" y="137" width="1" height="1" fill="#665054" />
<rect x="147" y="137" width="1" height="1" fill="#A77C68" />
<rect x="148" y="137" width="1" height="1" fill="#E8A87C" />
<rect x="149" y="137" width="1" height="1" fill="#A77C68" />
<rect x="150" y="137" width="1" height="1" fill="#E8A87C" />
<rect x="151" y="137" width="1" height="1" fill="#A77C68" />
<rect x="152" y="137" width="1" height="2" fill="#E8A87C" />
<rect x="118" y="138" width="1" height="3" fill="#EDBD9C" />
<rect x="119" y="138" width="1" height="1" fill="#E8A87C" />
<rect x="120" y="138" width="1" height="1" fill="#EDBD9C" />
<rect x="121" y="138" width="4" height="1" fill="#E8A87C" />
<rect x="129" y="138" width="1" height="3" fill="#A77C68" />
<rect x="134" y="138" width="1" height="5" fill="#A77C68" />
<rect x="135" y="138" width="1" height="1" fill="#665054" />
<rect x="136" y="138" width="1" height="1" fill="#A77C68" />
<rect x="137" y="138" width="1" height="1" fill="#665054" />
<rect x="138" y="138" width="1" height="1" fill="#A77C68" />
<rect x="139" y="138" width="1" height="1" fill="#665054" />
<rect x="140" y="138" width="1" height="1" fill="#A77C68" />
<rect x="141" y="138" width="1" height="1" fill="#665054" />
<rect x="142" y="138" width="1" height="1" fill="#A77C68" />
<rect x="143" y="138" width="1" height="1" fill="#665054" />
<rect x="144" y="138" width="1" height="1" fill="#A77C68" />
<rect x="145" y="138" width="1" height="1" fill="#665054" />
<rect x="146" y="138" width="1" height="1" fill="#A77C68" />
<rect x="147" y="138" width="1" height="1" fill="#E8A87C" />
<rect x="148" y="138" width="1" height="1" fill="#A77C68" />
<rect x="149" y="138" width="1" height="1" fill="#E8A87C" />
<rect x="150" y="138" width="1" height="1" fill="#A77C68" />
<rect x="151" y="138" width="1" height="3" fill="#E8A87C" />
<rect x="119" y="139" width="1" height="1" fill="#EDBD9C" />
<rect x="120" y="139" width="1" height="1" fill="#E8A87C" />
<rect x="121" y="139" width="1" height="1" fill="#EDBD9C" />
<rect x="122" y="139" width="4" height="1" fill="#E8A87C" />
<rect x="126" y="139" width="1" height="1" fill="#A77C68" />
<rect x="127" y="139" width="1" height="1" fill="#E8A87C" />
<rect x="130" y="139" width="3" height="3" fill="#A77C68" />
<rect x="135" y="139" width="1" height="3" fill="#A77C68" />
<rect x="136" y="139" width="1" height="1" fill="#665054" />
<rect x="137" y="139" width="1" height="3" fill="#A77C68" />
<rect x="138" y="139" width="1" height="1" fill="#665054" />
<rect x="139" y="139" width="1" height="3" fill="#A77C68" />
<rect x="140" y="139" width="1" height="1" fill="#665054" />
<rect x="141" y="139" width="1" height="3" fill="#A77C68" />
<rect x="142" y="139" width="1" height="1" fill="#665054" />
<rect x="143" y="139" width="1" height="3" fill="#A77C68" />
<rect x="144" y="139" width="1" height="1" fill="#665054" />
<rect x="145" y="139" width="1" height="1" fill="#A77C68" />
<rect x="146" y="139" width="1" height="1" fill="#E8A87C" />
<rect x="147" y="139" width="1" height="1" fill="#A77C68" />
<rect x="148" y="139" width="1" height="1" fill="#E8A87C" />
<rect x="149" y="139" width="1" height="1" fill="#A77C68" />
<rect x="150" y="139" width="1" height="3" fill="#E8A87C" />
<rect x="119" y="140" width="1" height="1" fill="#E8A87C" />
<rect x="120" y="140" width="1" height="1" fill="#EDBD9C" />
<rect x="121" y="140" width="1" height="1" fill="#E8A87C" />
<rect x="122" y="140" width="1" height="1" fill="#EDBD9C" />
<rect x="123" y="140" width="4" height="1" fill="#E8A87C" />
<rect x="127" y="140" width="1" height="1" fill="#A77C68" />
<rect x="128" y="140" width="1" height="1" fill="#E8A87C" />
<rect x="133" y="140" width="1" height="3" fill="#A77C68" />
<rect x="136" y="140" width="1" height="3" fill="#A77C68" />
<rect x="138" y="140" width="1" height="3" fill="#A77C68" />
<rect x="140" y="140" width="1" height="3" fill="#A77C68" />
<rect x="142" y="140" width="1" height="1" fill="#A77C68" />
<rect x="144" y="140" width="1" height="1" fill="#A77C68" />
<rect x="145" y="140" width="1" height="1" fill="#E8A87C" />
<rect x="146" y="140" width="1" height="1" fill="#A77C68" />
<rect x="147" y="140" width="1" height="1" fill="#E8A87C" />
<rect x="148" y="140" width="1" height="1" fill="#A77C68" />
<rect x="149" y="140" width="1" height="3" fill="#E8A87C" />
<rect x="119" y="141" width="1" height="1" fill="#EDBD9C" />
<rect x="120" y="141" width="1" height="1" fill="#E8A87C" />
<rect x="121" y="141" width="1" height="1" fill="#EDBD9C" />
<rect x="122" y="141" width="1" height="1" fill="#E8A87C" />
<rect x="123" y="141" width="1" height="1" fill="#EDBD9C" />
<rect x="124" y="141" width="4" height="1" fill="#E8A87C" />
<rect x="128" y="141" width="1" height="1" fill="#A77C68" />
<rect x="129" y="141" width="1" height="1" fill="#E8A87C" />
<rect x="142" y="141" width="1" height="1" fill="#E8A87C" />
<rect x="144" y="141" width="1" height="1" fill="#E8A87C" />
<rect x="145" y="141" width="1" height="1" fill="#A77C68" />
<rect x="146" y="141" width="1" height="1" fill="#E8A87C" />
<rect x="147" y="141" width="1" height="1" fill="#A77C68" />
<rect x="148" y="141" width="1" height="3" fill="#E8A87C" />
<rect x="120" y="142" width="1" height="1" fill="#EDBD9C" />
<rect x="121" y="142" width="1" height="1" fill="#E8A87C" />
<rect x="122" y="142" width="1" height="1" fill="#EDBD9C" />
<rect x="123" y="142" width="1" height="1" fill="#E8A87C" />
<rect x="124" y="142" width="1" height="1" fill="#EDBD9C" />
<rect x="125" y="142" width="4" height="1" fill="#E8A87C" />
<rect x="129" y="142" width="1" height="1" fill="#A77C68" />
<rect x="130" y="142" width="1" height="4" fill="#E8A87C" />
<rect x="131" y="142" width="1" height="1" fill="#A77C68" />
<rect x="132" y="142" width="1" height="1" fill="#E8A87C" />
<rect x="135" y="142" width="1" height="1" fill="#E8A87C" />
<rect x="137" y="142" width="1" height="1" fill="#E8A87C" />
<rect x="139" y="142" width="1" height="1" fill="#E8A87C" />
<rect x="141" y="142" width="1" height="1" fill="#E8A87C" />
<rect x="142" y="142" width="1" height="1" fill="#A77C68" />
<rect x="143" y="142" width="1" height="1" fill="#E8A87C" />
<rect x="144" y="142" width="1" height="1" fill="#A77C68" />
<rect x="145" y="142" width="1" height="4" fill="#E8A87C" />
<rect x="146" y="142" width="1" height="1" fill="#A77C68" />
<rect x="147" y="142" width="1" height="2" fill="#E8A87C" />
<rect x="121" y="143" width="1" height="1" fill="#EDBD9C" />
<rect x="122" y="143" width="1" height="1" fill="#E8A87C" />
<rect x="123" y="143" width="1" height="1" fill="#EDBD9C" />
<rect x="124" y="143" width="1" height="1" fill="#E8A87C" />
<rect x="125" y="143" width="1" height="1" fill="#EDBD9C" />
<rect x="126" y="143" width="4" height="1" fill="#E8A87C" />
<rect x="131" y="143" width="1" height="1" fill="#E8A87C" />
<rect x="132" y="143" width="1" height="1" fill="#EDBD9C" />
<rect x="133" y="143" width="2" height="1" fill="#E8A87C" />
<rect x="135" y="143" width="1" height="1" fill="#A77C68" />
<rect x="136" y="143" width="1" height="5" fill="#E8A87C" />
<rect x="137" y="143" width="1" height="1" fill="#A77C68" />
<rect x="138" y="143" width="1" height="5" fill="#E8A87C" />
<rect x="139" y="143" width="1" height="1" fill="#A77C68" />
<rect x="140" y="143" width="1" height="5" fill="#E8A87C" />
<rect x="141" y="143" width="1" height="1" fill="#A77C68" />
<rect x="142" y="143" width="1" height="4" fill="#E8A87C" />
<rect x="143" y="143" width="1" height="1" fill="#A77C68" />
<rect x="144" y="143" width="1" height="3" fill="#E8A87C" />
<rect x="146" y="143" width="1" height="2" fill="#E8A87C" />
<rect x="122" y="144" width="1" height="1" fill="#EDBD9C" />
<rect x="123" y="144" width="1" height="1" fill="#E8A87C" />
<rect x="124" y="144" width="1" height="1" fill="#EDBD9C" />
<rect x="125" y="144" width="1" height="1" fill="#E8A87C" />
<rect x="126" y="144" width="1" height="1" fill="#EDBD9C" />
<rect x="127" y="144" width="3" height="1" fill="#E8A87C" />
<rect x="131" y="144" width="2" height="1" fill="#A77C68" />
<rect x="133" y="144" width="1" height="1" fill="#EDBD9C" />
<rect x="134" y="144" width="2" height="3" fill="#E8A87C" />
<rect x="137" y="144" width="1" height="3" fill="#E8A87C" />
<rect x="139" y="144" width="1" height="3" fill="#E8A87C" />
<rect x="141" y="144" width="1" height="4" fill="#E8A87C" />
<rect x="143" y="144" width="1" height="3" fill="#E8A87C" />
<rect x="147" y="144" width="1" height="1" fill="#EDBD9C" />
<rect x="123" y="145" width="1" height="1" fill="#EDBD9C" />
<rect x="124" y="145" width="1" height="1" fill="#E8A87C" />
<rect x="125" y="145" width="1" height="2" fill="#EDBD9C" />
<rect x="126" y="145" width="1" height="1" fill="#E8A87C" />
<rect x="127" y="145" width="1" height="1" fill="#EDBD9C" />
<rect x="128" y="145" width="1" height="1" fill="#E8A87C" />
<rect x="129" y="145" width="1" height="1" fill="#EDBD9C" />
<rect x="131" y="145" width="1" height="2" fill="#E8A87C" />
<rect x="132" y="145" width="2" height="1" fill="#A77C68" />
<rect x="146" y="145" width="1" height="1" fill="#EDBD9C" />
<rect x="124" y="146" width="1" height="1" fill="#EDBD9C" />
<rect x="126" y="146" width="1" height="2" fill="#EDBD9C" />
<rect x="127" y="146" width="1" height="1" fill="#E8A87C" />
<rect x="128" y="146" width="1" height="1" fill="#EDBD9C" />
<rect x="129" y="146" width="1" height="1" fill="#E8A87C" />
<rect x="130" y="146" width="1" height="1" fill="#EDBD9C" />
<rect x="132" y="146" width="1" height="1" fill="#EDBD9C" />
<rect x="133" y="146" width="1" height="3" fill="#E8A87C" />
<rect x="144" y="146" width="2" height="1" fill="#EDBD9C" />
<rect x="127" y="147" width="1" height="1" fill="#EDBD9C" />
<rect x="128" y="147" width="1" height="1" fill="#E8A87C" />
<rect x="129" y="147" width="1" height="2" fill="#EDBD9C" />
<rect x="130" y="147" width="1" height="1" fill="#E8A87C" />
<rect x="131" y="147" width="1" height="1" fill="#EDBD9C" />
<rect x="132" y="147" width="1" height="1" fill="#E8A87C" />
<rect x="134" y="147" width="1" height="1" fill="#E8A87C" />
<rect x="135" y="147" width="1" height="1" fill="#EDBD9C" />
<rect x="137" y="147" width="1" height="1" fill="#EDBD9C" />
<rect x="139" y="147" width="1" height="1" fill="#EDBD9C" />
<rect x="142" y="147" width="2" height="1" fill="#EDBD9C" />
<rect x="128" y="148" width="1" height="1" fill="#EDBD9C" />
<rect x="130" y="148" width="1" height="1" fill="#EDBD9C" />
<rect x="131" y="148" width="1" height="1" fill="#E8A87C" />
<rect x="132" y="148" width="1" height="2" fill="#EDBD9C" />
<rect x="134" y="148" width="1" height="2" fill="#EDBD9C" />
<rect x="135" y="148" width="1" height="1" fill="#E8A87C" />
<rect x="136" y="148" width="1" height="2" fill="#EDBD9C" />
<rect x="137" y="148" width="1" height="1" fill="#E8A87C" />
<rect x="138" y="148" width="1" height="2" fill="#EDBD9C" />
<rect x="139" y="148" width="1" height="1" fill="#E8A87C" />
<rect x="140" y="148" width="2" height="1" fill="#EDBD9C" />
<rect x="131" y="149" width="1" height="1" fill="#EDBD9C" />
<rect x="133" y="149" width="1" height="1" fill="#EDBD9C" />
<rect x="135" y="149" width="1" height="1" fill="#EDBD9C" />
<rect x="137" y="149" width="1" height="1" fill="#EDBD9C" />
</svg>