<?xml version="1.0" encoding="UTF-8" ?>
<svg version="1.1" width="180" height="360" xmlns="http://www.w3.org/2000/svg" shape-rendering="crispEdges">
<rect x="32" y="29" width="12" height="2" fill="#A77C68" />
<rect x="64" y="29" width="13" height="2" fill="#A77C68" />
<rect x="102" y="29" width="13" height="2" fill="#A77C68" />
<rect x="137" y="29" width="12" height="2" fill="#A77C68" />
<rect x="149" y="30" width="1" height="5" fill="#A77C68" />
<rect x="32" y="31" width="2" height="4" fill="#A77C68" />
<rect x="34" y="31" width="4" height="4" fill="#F2E9D8" />
<rect x="38" y="31" width="1" height="4" fill="#A77C68" />
<rect x="39" y="31" width="4" height="4" fill="#F2E9D8" />
<rect x="43" y="31" width="1" height="4" fill="#A77C68" />
<rect x="64" y="31" width="3" height="4" fill="#A77C68" />
<rect x="67" y="31" width="4" height="4" fill="#F2E9D8" />
<rect x="71" y="31" width="1" height="4" fill="#A77C68" />
<rect x="72" y="31" width="4" height="4" fill="#F2E9D8" />
<rect x="76" y="31" width="1" height="4" fill="#A77C68" />
<rect x="102" y="31" width="2" height="4" fill="#A77C68" />
<rect x="104" y="31" width="4" height="4" fill="#F2E9D8" />
<rect x="108" y="31" width="1" height="4" fill="#A77C68" />
<rect x="109" y="31" width="4" height="4" fill="#F2E9D8" />
<rect x="113" y="31" width="2" height="4" fill="#A77C68" />
<rect x="137" y="31" width="1" height="4" fill="#A77C68" />
<rect x="138" y="31" width="4" height="4" fill="#F2E9D8" />
<rect x="142" y="31" width="1" height="4" fill="#A77C68" />
<rect x="143" y="31" width="4" height="4" fill="#F2E9D8" />
<rect x="147" y="31" width="2" height="4" fill="#A77C68" />
<rect x="17" y="35" width="146" height="4" fill="#E8A87C" />
<rect x="17" y="39" width="3" height="240" fill="#E8A87C" />
<rect x="20" y="39" width="141" height="1" fill="#665054" />
<rect x="161" y="39" width="2" height="240" fill="#E8A87C" />
<rect x="20" y="40" width="6" height="237" fill="#665054" />
<rect x="26" y="40" width="128" height="235" fill="#252540" />
<rect x="154" y="40" width="7" height="237" fill="#665054" />
<rect x="11" y="244" width="6" height="7" fill="#A77C68" />
<rect x="11" y="251" width="1" height="4" fill="#A77C68" />
<rect x="13" y="251" width="2" height="4" fill="#A77C68" />
<rect x="12" y="253" width="1" height="2" fill="#A77C68" />
<rect x="15" y="253" width="2" height="2" fill="#A77C68" />
<rect x="163" y="256" width="4" height="15" fill="#665054" />
<rect x="167" y="257" width="1" height="14" fill="#665054" />
<rect x="166" y="271" width="1" height="1" fill="#665054" />
<rect x="165" y="272" width="1" height="1" fill="#665054" />
<rect x="164" y="273" width="1" height="1" fill="#665054" />
<rect x="163" y="274" width="1" height="1" fill="#665054" />
<rect x="26" y="275" width="128" height="2" fill="#665054" />
<rect x="20" y="277" width="141" height="2" fill="#E8A87C" />
<rect x="20" y="279" width="146" height="2" fill="#A77C68" />
<rect x="13" y="281" width="1" height="9" fill="#A77C68" />
<rect x="20" y="281" width="143" height="3" fill="#A77C68" />
<rect x="16" y="283" width="4" height="1" fill="#A77C68" />
<rect x="163" y="283" width="1" height="7" fill="#A77C68" />
<rect x="165" y="283" width="1" height="6" fill="#A77C68" />
<rect x="169" y="283" width="1" height="6" fill="#A77C68" />
<rect x="16" y="284" width="147" height="4" fill="#E8A87C" />
<rect x="14" y="288" width="149" height="2" fill="#A77C68" />
<rect x="164" y="288" width="1" height="1" fill="#A77C68" />
<rect x="166" y="288" width="3" height="1" fill="#A77C68" />
<rect x="170" y="288" width="1" height="1" fill="#A77C68" />
<rect x="19" y="290" width="1" height="21" fill="#A77C68" />
<rect x="22" y="290" width="1" height="21" fill="#A77C68" />
<rect x="36" y="290" width="1" height="70" fill="#A77C68" />
<rect x="44" y="290" width="12" height="5" fill="#A77C68" />
<rect x="87" y="290" width="7" height="21" fill="#A77C68" />
<rect x="121" y="290" width="12" height="13" fill="#A77C68" />
<rect x="138" y="290" width="1" height="70" fill="#A77C68" />
<rect x="157" y="290" width="1" height="21" fill="#A77C68" />
<rect x="160" y="290" width="1" height="21" fill="#A77C68" />
<rect x="56" y="292" width="12" height="2" fill="#A77C68" />
<rect x="68" y="293" width="1" height="67" fill="#A77C68" />
<rect x="67" y="294" width="1" height="66" fill="#A77C68" />
<rect x="44" y="295" width="1" height="5" fill="#665054" />
<rect x="45" y="295" width="11" height="2" fill="#A77C68" />
<rect x="56" y="296" width="11" height="1" fill="#A77C68" />
<rect x="69" y="296" width="1" height="3" fill="#A77C68" />
<rect x="37" y="297" width="7" height="2" fill="#A77C68" />
<rect x="45" y="297" width="1" height="3" fill="#665054" />
<rect x="46" y="297" width="10" height="2" fill="#A77C68" />
<rect x="57" y="297" width="1" height="2" fill="#A77C68" />
<rect x="62" y="297" width="1" height="2" fill="#A77C68" />
<rect x="46" y="299" width="1" height="1" fill="#665054" />
<rect x="47" y="299" width="9" height="2" fill="#A77C68" />
<rect x="10" y="300" width="9" height="1" fill="#A77C68" />
<rect x="20" y="300" width="2" height="11" fill="#A77C68" />
<rect x="23" y="300" width="13" height="1" fill="#A77C68" />
<rect x="37" y="300" width="10" height="1" fill="#A77C68" />
<rect x="56" y="300" width="11" height="1" fill="#A77C68" />
<rect x="69" y="300" width="18" height="1" fill="#A77C68" />
<rect x="94" y="300" width="27" height="1" fill="#A77C68" />
<rect x="133" y="300" width="5" height="1" fill="#A77C68" />
<rect x="139" y="300" width="18" height="1" fill="#A77C68" />
<rect x="158" y="300" width="2" height="11" fill="#A77C68" />
<rect x="161" y="300" width="9" height="1" fill="#A77C68" />
<rect x="9" y="301" width="1" height="3" fill="#A77C68" />
<rect x="11" y="301" width="1" height="4" fill="#A77C68" />
<rect x="14" y="301" width="1" height="10" fill="#A77C68" />
<rect x="18" y="301" width="1" height="10" fill="#A77C68" />
<rect x="23" y="301" width="1" height="10" fill="#A77C68" />
<rect x="28" y="301" width="1" height="10" fill="#A77C68" />
<rect x="40" y="301" width="1" height="10" fill="#A77C68" />
<rect x="44" y="301" width="4" height="59" fill="#665054" />
<rect x="48" y="301" width="8" height="59" fill="#A77C68" />
<rect x="76" y="301" width="1" height="10" fill="#A77C68" />
<rect x="101" y="301" width="1" height="10" fill="#A77C68" />
<rect x="110" y="301" width="1" height="10" fill="#A77C68" />
<rect x="149" y="301" width="1" height="10" fill="#A77C68" />
<rect x="161" y="301" width="1" height="10" fill="#A77C68" />
<rect x="164" y="301" width="1" height="10" fill="#A77C68" />
<rect x="167" y="301" width="1" height="4" fill="#A77C68" />
<rect x="170" y="301" width="1" height="3" fill="#A77C68" />
<rect x="121" y="303" width="1" height="57" fill="#665054" />
<rect x="122" y="303" width="11" height="3" fill="#A77C68" />
<rect x="10" y="304" width="1" height="1" fill="#A77C68" />
<rect x="12" y="304" width="2" height="1" fill="#A77C68" />
<rect x="15" y="304" width="3" height="1" fill="#A77C68" />
<rect x="24" y="304" width="4" height="1" fill="#A77C68" />
<rect x="29" y="304" width="7" height="1" fill="#A77C68" />
<rect x="37" y="304" width="3" height="1" fill="#A77C68" />
<rect x="41" y="304" width="3" height="1" fill="#A77C68" />
<rect x="56" y="304" width="11" height="1" fill="#A77C68" />
<rect x="69" y="304" width="7" height="1" fill="#A77C68" />
<rect x="77" y="304" width="10" height="1" fill="#A77C68" />
<rect x="94" y="304" width="7" height="1" fill="#A77C68" />
<rect x="102" y="304" width="8" height="1" fill="#A77C68" />
<rect x="111" y="304" width="10" height="1" fill="#A77C68" />
<rect x="133" y="304" width="5" height="1" fill="#A77C68" />
<rect x="139" y="304" width="10" height="1" fill="#A77C68" />
<rect x="150" y="304" width="7" height="1" fill="#A77C68" />
<rect x="162" y="304" width="2" height="1" fill="#A77C68" />
<rect x="165" y="304" width="2" height="1" fill="#A77C68" />
<rect x="168" y="304" width="2" height="1" fill="#A77C68" />
<rect x="122" y="306" width="1" height="54" fill="#665054" />
<rect x="123" y="306" width="10" height="54" fill="#A77C68" />
<rect x="12" y="307" width="2" height="4" fill="#A77C68" />
<rect x="15" y="307" width="3" height="4" fill="#A77C68" />
<rect x="24" y="307" width="4" height="4" fill="#A77C68" />
<rect x="29" y="307" width="7" height="4" fill="#A77C68" />
<rect x="37" y="307" width="3" height="4" fill="#A77C68" />
<rect x="41" y="307" width="3" height="4" fill="#A77C68" />
<rect x="56" y="307" width="11" height="4" fill="#A77C68" />
<rect x="69" y="307" width="7" height="4" fill="#A77C68" />
<rect x="77" y="307" width="10" height="4" fill="#A77C68" />
<rect x="94" y="307" width="7" height="4" fill="#A77C68" />
<rect x="102" y="307" width="8" height="4" fill="#A77C68" />
<rect x="111" y="307" width="10" height="4" fill="#A77C68" />
<rect x="133" y="307" width="5" height="4" fill="#A77C68" />
<rect x="139" y="307" width="10" height="4" fill="#A77C68" />
<rect x="150" y="307" width="7" height="4" fill="#A77C68" />
<rect x="162" y="307" width="2" height="4" fill="#A77C68" />
<rect x="165" y="307" width="4" height="4" fill="#A77C68" />
<rect x="37" y="311" width="1" height="49" fill="#A77C68" />
</svg>