<?xml version="1.0" encoding="UTF-8" ?>
<svg version="1.1" width="180" height="390" xmlns="http://www.w3.org/2000/svg" shape-rendering="crispEdges">
<rect x="116" y="120" width="7" height="1" fill="#FDE8B9" />
<rect x="114" y="121" width="2" height="1" fill="#FDE8B9" />
<rect x="116" y="121" width="7" height="1" fill="#FEEECB" />
<rect x="123" y="121" width="2" height="1" fill="#FDE8B9" />
<rect x="112" y="122" width="2" height="1" fill="#FDE8B9" />
<rect x="114" y="122" width="2" height="1" fill="#FEEECB" />
<rect x="116" y="122" width="7" height="2" fill="#FEF4DC" />
<rect x="123" y="122" width="2" height="1" fill="#FEEECB" />
<rect x="125" y="122" width="2" height="1" fill="#FDE8B9" />
<rect x="111" y="123" width="1" height="1" fill="#FDE8B9" />
<rect x="112" y="123" width="2" height="1" fill="#FEEECB" />
<rect x="114" y="123" width="2" height="2" fill="#FEF4DC" />
<rect x="123" y="123" width="2" height="2" fill="#FEF4DC" />
<rect x="125" y="123" width="2" height="1" fill="#FEEECB" />
<rect x="127" y="123" width="1" height="1" fill="#FDE8B9" />
<rect x="110" y="124" width="1" height="1" fill="#FDE8B9" />
<rect x="111" y="124" width="1" height="1" fill="#FEEECB" />
<rect x="112" y="124" width="2" height="2" fill="#FEF4DC" />
<rect x="116" y="124" width="7" height="5" fill="#FFFAEE" />
<rect x="125" y="124" width="2" height="2" fill="#FEF4DC" />
<rect x="127" y="124" width="1" height="1" fill="#FEEECB" />
<rect x="128" y="124" width="1" height="1" fill="#FDE8B9" />
<rect x="109" y="125" width="1" height="1" fill="#FDE8B9" />
<rect x="110" y="125" width="1" height="1" fill="#FEEECB" />
<rect x="111" y="125" width="1" height="2" fill="#FEF4DC" />
<rect x="114" y="125" width="2" height="14" fill="#FFFAEE" />
<rect x="123" y="125" width="2" height="2" fill="#FFFAEE" />
<rect x="127" y="125" width="1" height="1" fill="#FEF4DC" />
<rect x="128" y="125" width="1" height="1" fill="#FEEECB" />
<rect x="129" y="125" width="1" height="1" fill="#FDE8B9" />
<rect x="108" y="126" width="1" height="1" fill="#FDE8B9" />
<rect x="109" y="126" width="1" height="1" fill="#FEEECB" />
<rect x="110" y="126" width="1" height="2" fill="#FEF4DC" />
<rect x="112" y="126" width="2" height="14" fill="#FFFAEE" />
<rect x="125" y="126" width="5" height="9" fill="#F9E9DE" />
<rect x="130" y="126" width="1" height="1" fill="#FDE8B9" />
<rect x="107" y="127" width="1" height="1" fill="#FDE8B9" />
<rect x="108" y="127" width="1" height="1" fill="#FEEECB" />
<rect x="109" y="127" width="1" height="3" fill="#FEF4DC" />
<rect x="111" y="127" width="1" height="13" fill="#FFFAEE" />
<rect x="123" y="127" width="1" height="1" fill="#FFFAEE" />
<rect x="124" y="127" width="1" height="6" fill="#F9E9DE" />
<rect x="130" y="127" width="4" height="2" fill="#F9E9DE" />
<rect x="106" y="128" width="1" height="2" fill="#FDE8B9" />
<rect x="107" y="128" width="1" height="2" fill="#FEEECB" />
<rect x="108" y="128" width="1" height="4" fill="#FEF4DC" />
<rect x="110" y="128" width="1" height="13" fill="#FFFAEE" />
<rect x="123" y="128" width="1" height="5" fill="#F9E9DE" />
<rect x="134" y="128" width="1" height="1" fill="#F9E9DE" />
<rect x="116" y="129" width="6" height="6" fill="#FFFAEE" />
<rect x="122" y="129" width="1" height="3" fill="#F9E9DE" />
<rect x="130" y="129" width="3" height="1" fill="#F9E9DE" />
<rect x="133" y="129" width="2" height="1" fill="#F3D3BD" />
<rect x="135" y="129" width="2" height="7" fill="#F9E9DE" />
<rect x="105" y="130" width="1" height="2" fill="#FDE8B9" />
<rect x="106" y="130" width="1" height="2" fill="#FEEECB" />
<rect x="107" y="130" width="1" height="11" fill="#FEF4DC" />
<rect x="109" y="130" width="1" height="11" fill="#FFFAEE" />
<rect x="130" y="130" width="2" height="4" fill="#F9E9DE" />
<rect x="132" y="130" width="1" height="2" fill="#F3D3BD" />
<rect x="133" y="130" width="2" height="5" fill="#F9E9DE" />
<rect x="137" y="130" width="2" height="6" fill="#F9E9DE" />
<rect x="139" y="131" width="1" height="2" fill="#F9E9DE" />
<rect x="140" y="131" width="1" height="2" fill="#F3D3BD" />
<rect x="141" y="131" width="1" height="12" fill="#F9E9DE" />
<rect x="104" y="132" width="1" height="7" fill="#FDE8B9" />
<rect x="105" y="132" width="1" height="7" fill="#FEEECB" />
<rect x="106" y="132" width="1" height="7" fill="#FEF4DC" />
<rect x="108" y="132" width="1" height="7" fill="#FFFAEE" />
<rect x="122" y="132" width="1" height="1" fill="#F3D3BD" />
<rect x="132" y="132" width="1" height="2" fill="#F9E9DE" />
<rect x="142" y="132" width="2" height="4" fill="#F9E9DE" />
<rect x="122" y="133" width="1" height="1" fill="#FFFAEE" />
<rect x="123" y="133" width="2" height="1" fill="#F3D3BD" />
<rect x="139" y="133" width="1" height="1" fill="#F3D3BD" />
<rect x="140" y="133" width="1" height="12" fill="#F9E9DE" />
<rect x="144" y="133" width="1" height="4" fill="#F9E9DE" />
<rect x="122" y="134" width="1" height="1" fill="#F3D3BD" />
<rect x="123" y="134" width="2" height="5" fill="#F9E9DE" />
<rect x="130" y="134" width="1" height="3" fill="#F9E9DE" />
<rect x="131" y="134" width="1" height="2" fill="#F3D3BD" />
<rect x="132" y="134" width="1" height="3" fill="#EDBD9C" />
<rect x="139" y="134" width="1" height="11" fill="#F9E9DE" />
<rect x="145" y="134" width="2" height="3" fill="#F9E9DE" />
<rect x="116" y="135" width="5" height="1" fill="#FFFAEE" />
<rect x="121" y="135" width="1" height="1" fill="#F3D3BD" />
<rect x="122" y="135" width="1" height="6" fill="#F9E9DE" />
<rect x="125" y="135" width="1" height="2" fill="#F3D3BD" />
<rect x="126" y="135" width="4" height="1" fill="#F9E9DE" />
<rect x="133" y="135" width="1" height="2" fill="#EDBD9C" />
<rect x="134" y="135" width="1" height="1" fill="#F9E9DE" />
<rect x="147" y="135" width="1" height="3" fill="#F9E9DE" />
<rect x="116" y="136" width="4" height="1" fill="#FFFAEE" />
<rect x="120" y="136" width="1" height="1" fill="#F3D3BD" />
<rect x="121" y="136" width="1" height="5" fill="#F9E9DE" />
<rect x="126" y="136" width="2" height="1" fill="#F3D3BD" />
<rect x="128" y="136" width="2" height="1" fill="#F9E9DE" />
<rect x="131" y="136" width="1" height="10" fill="#F9E9DE" />
<rect x="134" y="136" width="3" height="1" fill="#EDBD9C" />
<rect x="137" y="136" width="1" height="2" fill="#F3D3BD" />
<rect x="138" y="136" width="1" height="2" fill="#F9E9DE" />
<rect x="142" y="136" width="1" height="7" fill="#F9E9DE" />
<rect x="143" y="136" width="1" height="2" fill="#F3D3BD" />
<rect x="148" y="136" width="2" height="1" fill="#F9E9DE" />
<rect x="116" y="137" width="3" height="1" fill="#FFFAEE" />
<rect x="119" y="137" width="1" height="1" fill="#F3D3BD" />
<rect x="120" y="137" width="1" height="4" fill="#F9E9DE" />
<rect x="125" y="137" width="3" height="1" fill="#EDBD9C" />
<rect x="128" y="137" width="3" height="1" fill="#F3D3BD" />
<rect x="132" y="137" width="1" height="1" fill="#F9E9DE" />
<rect x="133" y="137" width="4" height="1" fill="#F3D3BD" />
<rect x="144" y="137" width="2" height="1" fill="#F3D3BD" />
<rect x="146" y="137" width="1" height="1" fill="#F9E9DE" />
<rect x="148" y="137" width="1" height="1" fill="#F9E9DE" />
<rect x="149" y="137" width="1" height="2" fill="#F3D3BD" />
<rect x="150" y="137" width="1" height="1" fill="#F9E9DE" />
<rect x="116" y="138" width="2" height="1" fill="#FFFAEE" />
<rect x="118" y="138" width="1" height="1" fill="#F3D3BD" />
<rect x="119" y="138" width="1" height="8" fill="#F9E9DE" />
<rect x="125" y="138" width="3" height="1" fill="#F9E9DE" />
<rect x="128" y="138" width="2" height="1" fill="#EDBD9C" />
<rect x="130" y="138" width="1" height="3" fill="#F9E9DE" />
<rect x="132" y="138" width="1" height="1" fill="#F3D3BD" />
<rect x="133" y="138" width="5" height="6" fill="#F9E9DE" />
<rect x="138" y="138" width="1" height="1" fill="#F3D3BD" />
<rect x="143" y="138" width="2" height="4" fill="#F9E9DE" />
<rect x="145" y="138" width="4" height="1" fill="#F3D3BD" />
<rect x="150" y="138" width="1" height="1" fill="#F3D3BD" />
<rect x="105" y="139" width="1" height="3" fill="#FDE8B9" />
<rect x="106" y="139" width="1" height="2" fill="#FEEECB" />
<rect x="108" y="139" width="1" height="4" fill="#FEF4DC" />
<rect x="114" y="139" width="1" height="1" fill="#FFFAEE" />
<rect x="115" y="139" width="1" height="2" fill="#EDBD9C" />
<rect x="116" y="139" width="3" height="4" fill="#F9E9DE" />
<rect x="123" y="139" width="1" height="1" fill="#F9E9DE" />
<rect x="124" y="139" width="1" height="1" fill="#EDBD9C" />
<rect x="125" y="139" width="2" height="1" fill="#E8A87C" />
<rect x="127" y="139" width="3" height="3" fill="#F9E9DE" />
<rect x="132" y="139" width="1" height="7" fill="#F9E9DE" />
<rect x="138" y="139" width="1" height="6" fill="#F9E9DE" />
<rect x="145" y="139" width="1" height="1" fill="#F3D3BD" />
<rect x="146" y="139" width="6" height="4" fill="#F9E9DE" />
<rect x="111" y="140" width="3" height="6" fill="#F9E9DE" />
<rect x="114" y="140" width="1" height="1" fill="#F3D3BD" />
<rect x="123" y="140" width="1" height="2" fill="#EDBD9C" />
<rect x="124" y="140" width="1" height="1" fill="#E8A87C" />
<rect x="125" y="140" width="2" height="5" fill="#F9E9DE" />
<rect x="145" y="140" width="1" height="4" fill="#F9E9DE" />
<rect x="152" y="140" width="1" height="6" fill="#F9E9DE" />
<rect x="106" y="141" width="1" height="2" fill="#FDE8B9" />
<rect x="107" y="141" width="1" height="2" fill="#FEEECB" />
<rect x="109" y="141" width="1" height="1" fill="#FEF4DC" />
<rect x="110" y="141" width="1" height="4" fill="#F9E9DE" />
<rect x="114" y="141" width="2" height="1" fill="#F9E9DE" />
<rect x="120" y="141" width="3" height="1" fill="#EDBD9C" />
<rect x="124" y="141" width="1" height="5" fill="#F9E9DE" />
<rect x="130" y="141" width="1" height="1" fill="#F3D3BD" />
<rect x="153" y="141" width="1" height="4" fill="#F9E9DE" />
<rect x="109" y="142" width="1" height="2" fill="#EDBD9C" />
<rect x="114" y="142" width="1" height="1" fill="#F9E9DE" />
<rect x="115" y="142" width="1" height="2" fill="#EDBD9C" />
<rect x="120" y="142" width="2" height="3" fill="#F9E9DE" />
<rect x="122" y="142" width="1" height="4" fill="#EDBD9C" />
<rect x="123" y="142" width="1" height="3" fill="#F9E9DE" />
<rect x="127" y="142" width="1" height="1" fill="#F9E9DE" />
<rect x="128" y="142" width="2" height="1" fill="#F3D3BD" />
<rect x="130" y="142" width="1" height="4" fill="#F9E9DE" />
<rect x="143" y="142" width="1" height="1" fill="#F3D3BD" />
<rect x="144" y="142" width="1" height="1" fill="#F9E9DE" />
<rect x="154" y="142" width="1" height="2" fill="#F9E9DE" />
<rect x="107" y="143" width="1" height="1" fill="#FDE8B9" />
<rect x="108" y="143" width="1" height="1" fill="#EDBD9C" />
<rect x="114" y="143" width="1" height="1" fill="#EDBD9C" />
<rect x="116" y="143" width="2" height="1" fill="#EDBD9C" />
<rect x="118" y="143" width="1" height="1" fill="#F3D3BD" />
<rect x="127" y="143" width="3" height="1" fill="#EDBD9C" />
<rect x="141" y="143" width="1" height="1" fill="#F3D3BD" />
<rect x="142" y="143" width="2" height="1" fill="#EDBD9C" />
<rect x="144" y="143" width="1" height="1" fill="#F3D3BD" />
<rect x="146" y="143" width="2" height="1" fill="#F3D3BD" />
<rect x="148" y="143" width="4" height="1" fill="#F9E9DE" />
<rect x="105" y="144" width="1" height="2" fill="#F9E9DE" />
<rect x="106" y="144" width="2" height="1" fill="#EDBD9C" />
<rect x="108" y="144" width="2" height="2" fill="#F9E9DE" />
<rect x="114" y="144" width="5" height="1" fill="#F9E9DE" />
<rect x="127" y="144" width="2" height="1" fill="#E8A87C" />
<rect x="129" y="144" width="1" height="2" fill="#EDBD9C" />
<rect x="133" y="144" width="1" height="1" fill="#F9E9DE" />
<rect x="134" y="144" width="4" height="1" fill="#F3D3BD" />
<rect x="141" y="144" width="4" height="2" fill="#F9E9DE" />
<rect x="145" y="144" width="1" height="2" fill="#F3D3BD" />
<rect x="146" y="144" width="2" height="3" fill="#EDBD9C" />
<rect x="148" y="144" width="1" height="1" fill="#F3D3BD" />
<rect x="149" y="144" width="3" height="1" fill="#F9E9DE" />
<rect x="154" y="144" width="1" height="1" fill="#F3D3BD" />
<rect x="155" y="144" width="2" height="2" fill="#F9E9DE" />
<rect x="103" y="145" width="1" height="1" fill="#F9E9DE" />
<rect x="104" y="145" width="1" height="2" fill="#F3D3BD" />
<rect x="106" y="145" width="2" height="1" fill="#F9E9DE" />
<rect x="110" y="145" width="1" height="2" fill="#EDBD9C" />
<rect x="114" y="145" width="4" height="1" fill="#F9E9DE" />
<rect x="118" y="145" width="1" height="2" fill="#EDBD9C" />
<rect x="120" y="145" width="1" height="1" fill="#F9E9DE" />
<rect x="121" y="145" width="1" height="2" fill="#EDBD9C" />
<rect x="123" y="145" width="1" height="2" fill="#EDBD9C" />
<rect x="125" y="145" width="1" height="1" fill="#F9E9DE" />
<rect x="126" y="145" width="2" height="1" fill="#E8A87C" />
<rect x="128" y="145" width="1" height="2" fill="#F3D3BD" />
<rect x="133" y="145" width="4" height="1" fill="#EDBD9C" />
<rect x="137" y="145" width="4" height="1" fill="#F3D3BD" />
<rect x="148" y="145" width="1" height="2" fill="#EDBD9C" />
<rect x="149" y="145" width="1" height="1" fill="#F3D3BD" />
<rect x="150" y="145" width="2" height="1" fill="#F9E9DE" />
<rect x="153" y="145" width="1" height="1" fill="#F3D3BD" />
<rect x="154" y="145" width="1" height="2" fill="#EDBD9C" />
<rect x="157" y="145" width="1" height="2" fill="#F9E9DE" />
<rect x="103" y="146" width="1" height="1" fill="#F3D3BD" />
<rect x="105" y="146" width="5" height="1" fill="#EDBD9C" />
<rect x="111" y="146" width="5" height="1" fill="#EDBD9C" />
<rect x="116" y="146" width="1" height="2" fill="#F3D3BD" />
<rect x="117" y="146" width="1" height="1" fill="#EDBD9C" />
<rect x="119" y="146" width="2" height="1" fill="#EDBD9C" />
<rect x="122" y="146" width="1" height="2" fill="#F3D3BD" />
<rect x="124" y="146" width="2" height="1" fill="#EDBD9C" />
<rect x="126" y="146" width="1" height="1" fill="#E8A87C" />
<rect x="127" y="146" width="1" height="2" fill="#EDBD9C" />
<rect x="129" y="146" width="11" height="1" fill="#F3D3BD" />
<rect x="140" y="146" width="6" height="1" fill="#EDBD9C" />
<rect x="149" y="146" width="5" height="1" fill="#EDBD9C" />
<rect x="155" y="146" width="1" height="1" fill="#EDBD9C" />
<rect x="156" y="146" width="1" height="1" fill="#F9E9DE" />
<rect x="158" y="146" width="1" height="1" fill="#F9E9DE" />
<rect x="109" y="147" width="1" height="1" fill="#EDBD9C" />
<rect x="110" y="147" width="6" height="1" fill="#F3D3BD" />
<rect x="117" y="147" width="5" height="1" fill="#F3D3BD" />
<rect x="123" y="147" width="2" height="1" fill="#F3D3BD" />
<rect x="125" y="147" width="2" height="1" fill="#EDBD9C" />
<rect x="128" y="147" width="6" height="1" fill="#E8A87C" />
<rect x="134" y="147" width="6" height="1" fill="#EDBD9C" />
<rect x="140" y="147" width="1" height="1" fill="#F3D3BD" />
<rect x="141" y="147" width="4" height="1" fill="#EDBD9C" />
<rect x="145" y="147" width="15" height="1" fill="#F3D3BD" />
<rect x="125" y="148" width="3" height="1" fill="#F3D3BD" />
<rect x="128" y="148" width="6" height="1" fill="#EDBD9C" />
<rect x="134" y="148" width="6" height="1" fill="#F3D3BD" />
<rect x="141" y="148" width="4" height="1" fill="#F3D3BD" />
<rect x="128" y="149" width="6" height="1" fill="#F3D3BD" />
</svg>