<?xml version="1.0" encoding="UTF-8" ?>
<svg version="1.1" width="180" height="360" xmlns="http://www.w3.org/2000/svg" shape-rendering="crispEdges">
<rect x="32" y="59" width="12" height="2" fill="#A77C68" />
<rect x="64" y="59" width="13" height="2" fill="#A77C68" />
<rect x="102" y="59" width="13" height="2" fill="#A77C68" />
<rect x="137" y="59" width="12" height="2" fill="#A77C68" />
<rect x="149" y="60" width="1" height="5" fill="#A77C68" />
<rect x="32" y="61" width="2" height="4" fill="#A77C68" />
<rect x="34" y="61" width="4" height="4" fill="#F2E9D8" />
<rect x="38" y="61" width="1" height="4" fill="#A77C68" />
<rect x="39" y="61" width="4" height="4" fill="#F2E9D8" />
<rect x="43" y="61" width="1" height="4" fill="#A77C68" />
<rect x="64" y="61" width="3" height="4" fill="#A77C68" />
<rect x="67" y="61" width="4" height="4" fill="#F2E9D8" />
<rect x="71" y="61" width="1" height="4" fill="#A77C68" />
<rect x="72" y="61" width="4" height="4" fill="#F2E9D8" />
<rect x="76" y="61" width="1" height="4" fill="#A77C68" />
<rect x="102" y="61" width="2" height="4" fill="#A77C68" />
<rect x="104" y="61" width="4" height="4" fill="#F2E9D8" />
<rect x="108" y="61" width="1" height="4" fill="#A77C68" />
<rect x="109" y="61" width="4" height="4" fill="#F2E9D8" />
<rect x="113" y="61" width="2" height="4" fill="#A77C68" />
<rect x="137" y="61" width="1" height="4" fill="#A77C68" />
<rect x="138" y="61" width="4" height="4" fill="#F2E9D8" />
<rect x="142" y="61" width="1" height="4" fill="#A77C68" />
<rect x="143" y="61" width="4" height="4" fill="#F2E9D8" />
<rect x="147" y="61" width="2" height="4" fill="#A77C68" />
<rect x="17" y="65" width="146" height="4" fill="#E8A87C" />
<rect x="17" y="69" width="3" height="220" fill="#E8A87C" />
<rect x="20" y="69" width="141" height="1" fill="#665054" />
<rect x="161" y="69" width="2" height="220" fill="#E8A87C" />
<rect x="20" y="70" width="6" height="217" fill="#665054" />
<rect x="26" y="70" width="128" height="215" fill="#252540" />
<rect x="154" y="70" width="7" height="217" fill="#665054" />
<rect x="11" y="254" width="6" height="7" fill="#A77C68" />
<rect x="11" y="261" width="1" height="4" fill="#A77C68" />
<rect x="13" y="261" width="2" height="4" fill="#A77C68" />
<rect x="12" y="263" width="1" height="2" fill="#A77C68" />
<rect x="15" y="263" width="2" height="2" fill="#A77C68" />
<rect x="163" y="266" width="4" height="15" fill="#665054" />
<rect x="167" y="267" width="1" height="14" fill="#665054" />
<rect x="166" y="281" width="1" height="1" fill="#665054" />
<rect x="165" y="282" width="1" height="1" fill="#665054" />
<rect x="164" y="283" width="1" height="1" fill="#665054" />
<rect x="163" y="284" width="1" height="1" fill="#665054" />
<rect x="26" y="285" width="128" height="2" fill="#665054" />
<rect x="20" y="287" width="141" height="2" fill="#E8A87C" />
<rect x="20" y="289" width="146" height="2" fill="#A77C68" />
<rect x="13" y="291" width="1" height="9" fill="#A77C68" />
<rect x="20" y="291" width="143" height="3" fill="#A77C68" />
<rect x="16" y="293" width="4" height="1" fill="#A77C68" />
<rect x="163" y="293" width="1" height="7" fill="#A77C68" />
<rect x="165" y="293" width="1" height="6" fill="#A77C68" />
<rect x="169" y="293" width="1" height="6" fill="#A77C68" />
<rect x="16" y="294" width="147" height="4" fill="#E8A87C" />
<rect x="14" y="298" width="149" height="2" fill="#A77C68" />
<rect x="164" y="298" width="1" height="1" fill="#A77C68" />
<rect x="166" y="298" width="3" height="1" fill="#A77C68" />
<rect x="170" y="298" width="1" height="1" fill="#A77C68" />
<rect x="19" y="300" width="1" height="21" fill="#A77C68" />
<rect x="22" y="300" width="1" height="21" fill="#A77C68" />
<rect x="36" y="300" width="1" height="60" fill="#A77C68" />
<rect x="44" y="300" width="12" height="5" fill="#A77C68" />
<rect x="87" y="300" width="7" height="21" fill="#A77C68" />
<rect x="121" y="300" width="12" height="13" fill="#A77C68" />
<rect x="138" y="300" width="1" height="60" fill="#A77C68" />
<rect x="157" y="300" width="1" height="21" fill="#A77C68" />
<rect x="160" y="300" width="1" height="21" fill="#A77C68" />
<rect x="56" y="302" width="12" height="2" fill="#A77C68" />
<rect x="68" y="303" width="1" height="57" fill="#A77C68" />
<rect x="67" y="304" width="1" height="56" fill="#A77C68" />
<rect x="44" y="305" width="1" height="5" fill="#665054" />
<rect x="45" y="305" width="11" height="2" fill="#A77C68" />
<rect x="56" y="306" width="11" height="1" fill="#A77C68" />
<rect x="69" y="306" width="1" height="3" fill="#A77C68" />
<rect x="37" y="307" width="7" height="2" fill="#A77C68" />
<rect x="45" y="307" width="1" height="3" fill="#665054" />
<rect x="46" y="307" width="10" height="2" fill="#A77C68" />
<rect x="57" y="307" width="1" height="2" fill="#A77C68" />
<rect x="62" y="307" width="1" height="2" fill="#A77C68" />
<rect x="46" y="309" width="1" height="1" fill="#665054" />
<rect x="47" y="309" width="9" height="2" fill="#A77C68" />
<rect x="10" y="310" width="9" height="1" fill="#A77C68" />
<rect x="20" y="310" width="2" height="11" fill="#A77C68" />
<rect x="23" y="310" width="13" height="1" fill="#A77C68" />
<rect x="37" y="310" width="10" height="1" fill="#A77C68" />
<rect x="56" y="310" width="11" height="1" fill="#A77C68" />
<rect x="69" y="310" width="18" height="1" fill="#A77C68" />
<rect x="94" y="310" width="27" height="1" fill="#A77C68" />
<rect x="133" y="310" width="5" height="1" fill="#A77C68" />
<rect x="139" y="310" width="18" height="1" fill="#A77C68" />
<rect x="158" y="310" width="2" height="11" fill="#A77C68" />
<rect x="161" y="310" width="9" height="1" fill="#A77C68" />
<rect x="9" y="311" width="1" height="3" fill="#A77C68" />
<rect x="11" y="311" width="1" height="4" fill="#A77C68" />
<rect x="14" y="311" width="1" height="10" fill="#A77C68" />
<rect x="18" y="311" width="1" height="10" fill="#A77C68" />
<rect x="23" y="311" width="1" height="10" fill="#A77C68" />
<rect x="28" y="311" width="1" height="10" fill="#A77C68" />
<rect x="40" y="311" width="1" height="10" fill="#A77C68" />
<rect x="44" y="311" width="4" height="49" fill="#665054" />
<rect x="48" y="311" width="8" height="49" fill="#A77C68" />
<rect x="76" y="311" width="1" height="10" fill="#A77C68" />
<rect x="101" y="311" width="1" height="10" fill="#A77C68" />
<rect x="110" y="311" width="1" height="10" fill="#A77C68" />
<rect x="149" y="311" width="1" height="10" fill="#A77C68" />
<rect x="161" y="311" width="1" height="10" fill="#A77C68" />
<rect x="164" y="311" width="1" height="10" fill="#A77C68" />
<rect x="167" y="311" width="1" height="4" fill="#A77C68" />
<rect x="170" y="311" width="1" height="3" fill="#A77C68" />
<rect x="121" y="313" width="1" height="47" fill="#665054" />
<rect x="122" y="313" width="11" height="3" fill="#A77C68" />
<rect x="10" y="314" width="1" height="1" fill="#A77C68" />
<rect x="12" y="314" width="2" height="1" fill="#A77C68" />
<rect x="15" y="314" width="3" height="1" fill="#A77C68" />
<rect x="24" y="314" width="4" height="1" fill="#A77C68" />
<rect x="29" y="314" width="7" height="1" fill="#A77C68" />
<rect x="37" y="314" width="3" height="1" fill="#A77C68" />
<rect x="41" y="314" width="3" height="1" fill="#A77C68" />
<rect x="56" y="314" width="11" height="1" fill="#A77C68" />
<rect x="69" y="314" width="7" height="1" fill="#A77C68" />
<rect x="77" y="314" width="10" height="1" fill="#A77C68" />
<rect x="94" y="314" width="7" height="1" fill="#A77C68" />
<rect x="102" y="314" width="8" height="1" fill="#A77C68" />
<rect x="111" y="314" width="10" height="1" fill="#A77C68" />
<rect x="133" y="314" width="5" height="1" fill="#A77C68" />
<rect x="139" y="314" width="10" height="1" fill="#A77C68" />
<rect x="150" y="314" width="7" height="1" fill="#A77C68" />
<rect x="162" y="314" width="2" height="1" fill="#A77C68" />
<rect x="165" y="314" width="2" height="1" fill="#A77C68" />
<rect x="168" y="314" width="2" height="1" fill="#A77C68" />
<rect x="122" y="316" width="1" height="44" fill="#665054" />
<rect x="123" y="316" width="10" height="44" fill="#A77C68" />
<rect x="12" y="317" width="2" height="4" fill="#A77C68" />
<rect x="15" y="317" width="3" height="4" fill="#A77C68" />
<rect x="24" y="317" width="4" height="4" fill="#A77C68" />
<rect x="29" y="317" width="7" height="4" fill="#A77C68" />
<rect x="37" y="317" width="3" height="4" fill="#A77C68" />
<rect x="41" y="317" width="3" height="4" fill="#A77C68" />
<rect x="56" y="317" width="11" height="4" fill="#A77C68" />
<rect x="69" y="317" width="7" height="4" fill="#A77C68" />
<rect x="77" y="317" width="10" height="4" fill="#A77C68" />
<rect x="94" y="317" width="7" height="4" fill="#A77C68" />
<rect x="102" y="317" width="8" height="4" fill="#A77C68" />
<rect x="111" y="317" width="10" height="4" fill="#A77C68" />
<rect x="133" y="317" width="5" height="4" fill="#A77C68" />
<rect x="139" y="317" width="10" height="4" fill="#A77C68" />
<rect x="150" y="317" width="7" height="4" fill="#A77C68" />
<rect x="162" y="317" width="2" height="4" fill="#A77C68" />
<rect x="165" y="317" width="4" height="4" fill="#A77C68" />
<rect x="37" y="321" width="1" height="39" fill="#A77C68" />
</svg>