<?xml version="1.0" encoding="UTF-8" ?>
<svg version="1.1" width="320" height="180" xmlns="http://www.w3.org/2000/svg" shape-rendering="crispEdges">
<rect x="203" y="25" width="1" height="16" fill="#665054" />
<rect x="118" y="26" width="1" height="15" fill="#665054" />
<rect x="134" y="26" width="1" height="9" fill="#665054" />
<rect x="150" y="26" width="1" height="15" fill="#665054" />
<rect x="117" y="32" width="1" height="9" fill="#665054" />
<rect x="133" y="32" width="1" height="3" fill="#665054" />
<rect x="176" y="34" width="13" height="3" fill="#A77C68" />
<rect x="62" y="35" width="12" height="2" fill="#A77C68" />
<rect x="94" y="35" width="13" height="2" fill="#A77C68" />
<rect x="132" y="35" width="13" height="2" fill="#A77C68" />
<rect x="218" y="35" width="13" height="2" fill="#A77C68" />
<rect x="252" y="35" width="12" height="2" fill="#A77C68" />
<rect x="264" y="36" width="1" height="5" fill="#A77C68" />
<rect x="62" y="37" width="2" height="4" fill="#A77C68" />
<rect x="64" y="37" width="4" height="4" fill="#F2E9D8" />
<rect x="68" y="37" width="1" height="4" fill="#A77C68" />
<rect x="69" y="37" width="4" height="4" fill="#F2E9D8" />
<rect x="73" y="37" width="1" height="4" fill="#A77C68" />
<rect x="94" y="37" width="3" height="4" fill="#A77C68" />
<rect x="97" y="37" width="4" height="4" fill="#F2E9D8" />
<rect x="101" y="37" width="1" height="4" fill="#A77C68" />
<rect x="102" y="37" width="4" height="4" fill="#F2E9D8" />
<rect x="106" y="37" width="1" height="4" fill="#A77C68" />
<rect x="132" y="37" width="3" height="4" fill="#A77C68" />
<rect x="135" y="37" width="4" height="4" fill="#F2E9D8" />
<rect x="139" y="37" width="1" height="4" fill="#A77C68" />
<rect x="140" y="37" width="4" height="4" fill="#F2E9D8" />
<rect x="144" y="37" width="1" height="4" fill="#A77C68" />
<rect x="176" y="37" width="2" height="4" fill="#A77C68" />
<rect x="178" y="37" width="4" height="4" fill="#F2E9D8" />
<rect x="182" y="37" width="1" height="4" fill="#A77C68" />
<rect x="183" y="37" width="4" height="4" fill="#F2E9D8" />
<rect x="187" y="37" width="2" height="4" fill="#A77C68" />
<rect x="218" y="37" width="2" height="4" fill="#A77C68" />
<rect x="220" y="37" width="4" height="4" fill="#F2E9D8" />
<rect x="224" y="37" width="1" height="4" fill="#A77C68" />
<rect x="225" y="37" width="4" height="4" fill="#F2E9D8" />
<rect x="229" y="37" width="2" height="4" fill="#A77C68" />
<rect x="252" y="37" width="1" height="4" fill="#A77C68" />
<rect x="253" y="37" width="4" height="4" fill="#F2E9D8" />
<rect x="257" y="37" width="1" height="4" fill="#A77C68" />
<rect x="258" y="37" width="4" height="4" fill="#F2E9D8" />
<rect x="262" y="37" width="2" height="4" fill="#A77C68" />
<rect x="119" y="39" width="2" height="2" fill="#665054" />
<rect x="174" y="39" width="2" height="2" fill="#665054" />
<rect x="31" y="41" width="258" height="6" fill="#E8A87C" />
<rect x="31" y="47" width="3" height="88" fill="#E8A87C" />
<rect x="34" y="47" width="253" height="13" fill="#665054" />
<rect x="287" y="47" width="2" height="88" fill="#E8A87C" />
<rect x="34" y="60" width="6" height="72" fill="#665054" />
<rect x="40" y="60" width="240" height="65" fill="#252540" />
<rect x="280" y="60" width="7" height="72" fill="#665054" />
<rect x="25" y="98" width="6" height="7" fill="#A77C68" />
<rect x="25" y="105" width="1" height="4" fill="#A77C68" />
<rect x="27" y="105" width="2" height="4" fill="#A77C68" />
<rect x="26" y="107" width="1" height="2" fill="#A77C68" />
<rect x="29" y="107" width="2" height="2" fill="#A77C68" />
<rect x="289" y="110" width="4" height="15" fill="#665054" />
<rect x="293" y="111" width="1" height="14" fill="#665054" />
<rect x="40" y="125" width="240" height="7" fill="#665054" />
<rect x="292" y="125" width="1" height="1" fill="#665054" />
<rect x="291" y="126" width="1" height="1" fill="#665054" />
<rect x="290" y="127" width="1" height="1" fill="#665054" />
<rect x="289" y="128" width="1" height="1" fill="#665054" />
<rect x="34" y="132" width="253" height="3" fill="#E8A87C" />
<rect x="34" y="135" width="258" height="2" fill="#A77C68" />
<rect x="27" y="137" width="1" height="14" fill="#A77C68" />
<rect x="34" y="137" width="255" height="7" fill="#A77C68" />
<rect x="291" y="139" width="1" height="11" fill="#A77C68" />
<rect x="295" y="139" width="1" height="11" fill="#A77C68" />
<rect x="30" y="143" width="4" height="1" fill="#A77C68" />
<rect x="289" y="143" width="1" height="8" fill="#A77C68" />
<rect x="30" y="144" width="259" height="5" fill="#E8A87C" />
<rect x="28" y="149" width="261" height="2" fill="#A77C68" />
<rect x="290" y="149" width="1" height="1" fill="#A77C68" />
<rect x="292" y="149" width="3" height="1" fill="#A77C68" />
<rect x="296" y="149" width="1" height="1" fill="#A77C68" />
<rect x="62" y="151" width="1" height="26" fill="#A77C68" />
<rect x="68" y="151" width="1" height="26" fill="#A77C68" />
<rect x="101" y="151" width="1" height="29" fill="#A77C68" />
<rect x="109" y="151" width="12" height="10" fill="#A77C68" />
<rect x="154" y="151" width="7" height="26" fill="#A77C68" />
<rect x="192" y="151" width="12" height="18" fill="#A77C68" />
<rect x="209" y="151" width="1" height="29" fill="#A77C68" />
<rect x="245" y="151" width="1" height="26" fill="#A77C68" />
<rect x="251" y="151" width="1" height="26" fill="#A77C68" />
<rect x="121" y="153" width="12" height="2" fill="#A77C68" />
<rect x="133" y="154" width="1" height="26" fill="#A77C68" />
<rect x="132" y="155" width="1" height="25" fill="#A77C68" />
<rect x="121" y="157" width="11" height="1" fill="#A77C68" />
<rect x="134" y="157" width="1" height="3" fill="#A77C68" />
<rect x="122" y="158" width="1" height="2" fill="#A77C68" />
<rect x="127" y="158" width="1" height="2" fill="#A77C68" />
<rect x="109" y="161" width="1" height="5" fill="#665054" />
<rect x="110" y="161" width="11" height="2" fill="#A77C68" />
<rect x="102" y="163" width="7" height="2" fill="#A77C68" />
<rect x="110" y="163" width="1" height="3" fill="#665054" />
<rect x="111" y="163" width="10" height="2" fill="#A77C68" />
<rect x="111" y="165" width="1" height="1" fill="#665054" />
<rect x="112" y="165" width="9" height="2" fill="#A77C68" />
<rect x="53" y="166" width="9" height="1" fill="#A77C68" />
<rect x="63" y="166" width="5" height="11" fill="#A77C68" />
<rect x="69" y="166" width="32" height="1" fill="#A77C68" />
<rect x="102" y="166" width="10" height="1" fill="#A77C68" />
<rect x="121" y="166" width="11" height="1" fill="#A77C68" />
<rect x="134" y="166" width="20" height="1" fill="#A77C68" />
<rect x="161" y="166" width="31" height="1" fill="#A77C68" />
<rect x="204" y="166" width="5" height="1" fill="#A77C68" />
<rect x="210" y="166" width="35" height="1" fill="#A77C68" />
<rect x="246" y="166" width="5" height="11" fill="#A77C68" />
<rect x="252" y="166" width="9" height="1" fill="#A77C68" />
<rect x="52" y="167" width="1" height="3" fill="#A77C68" />
<rect x="54" y="167" width="1" height="4" fill="#A77C68" />
<rect x="57" y="167" width="1" height="10" fill="#A77C68" />
<rect x="61" y="167" width="1" height="10" fill="#A77C68" />
<rect x="69" y="167" width="1" height="10" fill="#A77C68" />
<rect x="74" y="167" width="1" height="10" fill="#A77C68" />
<rect x="84" y="167" width="1" height="10" fill="#A77C68" />
<rect x="93" y="167" width="1" height="10" fill="#A77C68" />
<rect x="105" y="167" width="1" height="10" fill="#A77C68" />
<rect x="109" y="167" width="4" height="13" fill="#665054" />
<rect x="113" y="167" width="8" height="13" fill="#A77C68" />
<rect x="146" y="167" width="1" height="10" fill="#A77C68" />
<rect x="165" y="167" width="1" height="10" fill="#A77C68" />
<rect x="175" y="167" width="1" height="10" fill="#A77C68" />
<rect x="184" y="167" width="1" height="10" fill="#A77C68" />
<rect x="220" y="167" width="1" height="10" fill="#A77C68" />
<rect x="228" y="167" width="1" height="10" fill="#A77C68" />
<rect x="237" y="167" width="1" height="10" fill="#A77C68" />
<rect x="252" y="167" width="1" height="10" fill="#A77C68" />
<rect x="255" y="167" width="1" height="10" fill="#A77C68" />
<rect x="258" y="167" width="1" height="4" fill="#A77C68" />
<rect x="261" y="167" width="1" height="3" fill="#A77C68" />
<rect x="192" y="169" width="1" height="11" fill="#665054" />
<rect x="193" y="169" width="11" height="3" fill="#A77C68" />
<rect x="53" y="170" width="1" height="1" fill="#A77C68" />
<rect x="55" y="170" width="2" height="1" fill="#A77C68" />
<rect x="58" y="170" width="3" height="1" fill="#A77C68" />
<rect x="70" y="170" width="4" height="1" fill="#A77C68" />
<rect x="75" y="170" width="9" height="1" fill="#A77C68" />
<rect x="85" y="170" width="8" height="1" fill="#A77C68" />
<rect x="94" y="170" width="7" height="1" fill="#A77C68" />
<rect x="102" y="170" width="3" height="1" fill="#A77C68" />
<rect x="106" y="170" width="3" height="1" fill="#A77C68" />
<rect x="121" y="170" width="11" height="1" fill="#A77C68" />
<rect x="134" y="170" width="12" height="1" fill="#A77C68" />
<rect x="147" y="170" width="7" height="1" fill="#A77C68" />
<rect x="161" y="170" width="4" height="1" fill="#A77C68" />
<rect x="166" y="170" width="9" height="1" fill="#A77C68" />
<rect x="176" y="170" width="8" height="1" fill="#A77C68" />
<rect x="185" y="170" width="7" height="1" fill="#A77C68" />
<rect x="204" y="170" width="5" height="1" fill="#A77C68" />
<rect x="210" y="170" width="10" height="1" fill="#A77C68" />
<rect x="221" y="170" width="7" height="1" fill="#A77C68" />
<rect x="229" y="170" width="8" height="1" fill="#A77C68" />
<rect x="238" y="170" width="7" height="1" fill="#A77C68" />
<rect x="253" y="170" width="2" height="1" fill="#A77C68" />
<rect x="256" y="170" width="2" height="1" fill="#A77C68" />
<rect x="259" y="170" width="2" height="1" fill="#A77C68" />
<rect x="193" y="172" width="1" height="8" fill="#665054" />
<rect x="194" y="172" width="10" height="8" fill="#A77C68" />
<rect x="55" y="173" width="2" height="4" fill="#A77C68" />
<rect x="58" y="173" width="3" height="4" fill="#A77C68" />
<rect x="70" y="173" width="4" height="4" fill="#A77C68" />
<rect x="75" y="173" width="9" height="4" fill="#A77C68" />
<rect x="85" y="173" width="8" height="4" fill="#A77C68" />
<rect x="94" y="173" width="7" height="4" fill="#A77C68" />
<rect x="102" y="173" width="3" height="4" fill="#A77C68" />
<rect x="106" y="173" width="3" height="4" fill="#A77C68" />
<rect x="121" y="173" width="11" height="4" fill="#A77C68" />
<rect x="134" y="173" width="12" height="4" fill="#A77C68" />
<rect x="147" y="173" width="7" height="4" fill="#A77C68" />
<rect x="161" y="173" width="4" height="4" fill="#A77C68" />
<rect x="166" y="173" width="9" height="4" fill="#A77C68" />
<rect x="176" y="173" width="8" height="4" fill="#A77C68" />
<rect x="185" y="173" width="7" height="4" fill="#A77C68" />
<rect x="204" y="173" width="5" height="4" fill="#A77C68" />
<rect x="210" y="173" width="10" height="4" fill="#A77C68" />
<rect x="221" y="173" width="7" height="4" fill="#A77C68" />
<rect x="229" y="173" width="8" height="4" fill="#A77C68" />
<rect x="238" y="173" width="7" height="4" fill="#A77C68" />
<rect x="253" y="173" width="2" height="4" fill="#A77C68" />
<rect x="256" y="173" width="4" height="4" fill="#A77C68" />
<rect x="102" y="177" width="1" height="3" fill="#A77C68" />
</svg>