<?xml version="1.0" encoding="UTF-8" ?>
<svg version="1.1" width="320" height="180" xmlns="http://www.w3.org/2000/svg" shape-rendering="crispEdges">
<rect x="176" y="15" width="13" height="3" fill="#A77C68" />
<rect x="62" y="16" width="12" height="2" fill="#A77C68" />
<rect x="94" y="16" width="13" height="2" fill="#A77C68" />
<rect x="132" y="16" width="13" height="2" fill="#A77C68" />
<rect x="218" y="16" width="13" height="2" fill="#A77C68" />
<rect x="252" y="16" width="12" height="2" fill="#A77C68" />
<rect x="264" y="17" width="1" height="5" fill="#A77C68" />
<rect x="62" y="18" width="2" height="4" fill="#A77C68" />
<rect x="64" y="18" width="4" height="4" fill="#F2E9D8" />
<rect x="68" y="18" width="1" height="4" fill="#A77C68" />
<rect x="69" y="18" width="4" height="4" fill="#F2E9D8" />
<rect x="73" y="18" width="1" height="4" fill="#A77C68" />
<rect x="94" y="18" width="3" height="4" fill="#A77C68" />
<rect x="97" y="18" width="4" height="4" fill="#F2E9D8" />
<rect x="101" y="18" width="1" height="4" fill="#A77C68" />
<rect x="102" y="18" width="4" height="4" fill="#F2E9D8" />
<rect x="106" y="18" width="1" height="4" fill="#A77C68" />
<rect x="132" y="18" width="3" height="4" fill="#A77C68" />
<rect x="135" y="18" width="4" height="4" fill="#F2E9D8" />
<rect x="139" y="18" width="1" height="4" fill="#A77C68" />
<rect x="140" y="18" width="4" height="4" fill="#F2E9D8" />
<rect x="144" y="18" width="1" height="4" fill="#A77C68" />
<rect x="176" y="18" width="2" height="4" fill="#A77C68" />
<rect x="178" y="18" width="4" height="4" fill="#F2E9D8" />
<rect x="182" y="18" width="1" height="4" fill="#A77C68" />
<rect x="183" y="18" width="4" height="4" fill="#F2E9D8" />
<rect x="187" y="18" width="2" height="4" fill="#A77C68" />
<rect x="218" y="18" width="2" height="4" fill="#A77C68" />
<rect x="220" y="18" width="4" height="4" fill="#F2E9D8" />
<rect x="224" y="18" width="1" height="4" fill="#A77C68" />
<rect x="225" y="18" width="4" height="4" fill="#F2E9D8" />
<rect x="229" y="18" width="2" height="4" fill="#A77C68" />
<rect x="252" y="18" width="1" height="4" fill="#A77C68" />
<rect x="253" y="18" width="4" height="4" fill="#F2E9D8" />
<rect x="257" y="18" width="1" height="4" fill="#A77C68" />
<rect x="258" y="18" width="4" height="4" fill="#F2E9D8" />
<rect x="262" y="18" width="2" height="4" fill="#A77C68" />
<rect x="31" y="22" width="258" height="6" fill="#E8A87C" />
<rect x="31" y="28" width="3" height="88" fill="#E8A87C" />
<rect x="34" y="28" width="253" height="2" fill="#665054" />
<rect x="287" y="28" width="2" height="88" fill="#E8A87C" />
<rect x="34" y="30" width="6" height="83" fill="#665054" />
<rect x="40" y="30" width="240" height="80" fill="#252540" />
<rect x="280" y="30" width="7" height="83" fill="#665054" />
<rect x="25" y="79" width="6" height="7" fill="#A77C68" />
<rect x="25" y="86" width="1" height="4" fill="#A77C68" />
<rect x="27" y="86" width="2" height="4" fill="#A77C68" />
<rect x="26" y="88" width="1" height="2" fill="#A77C68" />
<rect x="29" y="88" width="2" height="2" fill="#A77C68" />
<rect x="289" y="91" width="4" height="15" fill="#665054" />
<rect x="293" y="92" width="1" height="14" fill="#665054" />
<rect x="292" y="106" width="1" height="1" fill="#665054" />
<rect x="291" y="107" width="1" height="1" fill="#665054" />
<rect x="290" y="108" width="1" height="1" fill="#665054" />
<rect x="289" y="109" width="1" height="1" fill="#665054" />
<rect x="40" y="110" width="240" height="3" fill="#665054" />
<rect x="34" y="113" width="253" height="3" fill="#E8A87C" />
<rect x="34" y="116" width="258" height="2" fill="#A77C68" />
<rect x="27" y="117" width="1" height="12" fill="#A77C68" />
<rect x="34" y="118" width="255" height="4" fill="#A77C68" />
<rect x="291" y="119" width="1" height="9" fill="#A77C68" />
<rect x="295" y="119" width="1" height="9" fill="#A77C68" />
<rect x="30" y="121" width="4" height="1" fill="#A77C68" />
<rect x="289" y="121" width="1" height="8" fill="#A77C68" />
<rect x="30" y="122" width="259" height="5" fill="#E8A87C" />
<rect x="28" y="127" width="261" height="2" fill="#A77C68" />
<rect x="290" y="127" width="1" height="1" fill="#A77C68" />
<rect x="292" y="127" width="3" height="1" fill="#A77C68" />
<rect x="296" y="127" width="1" height="1" fill="#A77C68" />
<rect x="62" y="129" width="1" height="22" fill="#A77C68" />
<rect x="68" y="129" width="1" height="22" fill="#A77C68" />
<rect x="101" y="129" width="1" height="46" fill="#A77C68" />
<rect x="109" y="129" width="12" height="6" fill="#A77C68" />
<rect x="154" y="129" width="7" height="22" fill="#A77C68" />
<rect x="192" y="129" width="12" height="14" fill="#A77C68" />
<rect x="209" y="129" width="1" height="46" fill="#A77C68" />
<rect x="245" y="129" width="1" height="22" fill="#A77C68" />
<rect x="251" y="129" width="1" height="22" fill="#A77C68" />
<rect x="121" y="131" width="12" height="2" fill="#A77C68" />
<rect x="133" y="132" width="1" height="43" fill="#A77C68" />
<rect x="132" y="133" width="1" height="42" fill="#A77C68" />
<rect x="109" y="135" width="1" height="5" fill="#665054" />
<rect x="110" y="135" width="22" height="1" fill="#A77C68" />
<rect x="134" y="135" width="1" height="3" fill="#A77C68" />
<rect x="110" y="136" width="11" height="1" fill="#A77C68" />
<rect x="122" y="136" width="1" height="2" fill="#A77C68" />
<rect x="127" y="136" width="1" height="2" fill="#A77C68" />
<rect x="102" y="137" width="7" height="2" fill="#A77C68" />
<rect x="110" y="137" width="1" height="3" fill="#665054" />
<rect x="111" y="137" width="10" height="2" fill="#A77C68" />
<rect x="111" y="139" width="1" height="1" fill="#665054" />
<rect x="112" y="139" width="9" height="2" fill="#A77C68" />
<rect x="53" y="140" width="9" height="1" fill="#A77C68" />
<rect x="63" y="140" width="5" height="11" fill="#A77C68" />
<rect x="69" y="140" width="32" height="1" fill="#A77C68" />
<rect x="102" y="140" width="10" height="1" fill="#A77C68" />
<rect x="121" y="140" width="11" height="1" fill="#A77C68" />
<rect x="134" y="140" width="20" height="1" fill="#A77C68" />
<rect x="161" y="140" width="31" height="1" fill="#A77C68" />
<rect x="204" y="140" width="5" height="1" fill="#A77C68" />
<rect x="210" y="140" width="35" height="1" fill="#A77C68" />
<rect x="246" y="140" width="5" height="11" fill="#A77C68" />
<rect x="252" y="140" width="9" height="1" fill="#A77C68" />
<rect x="52" y="141" width="1" height="3" fill="#A77C68" />
<rect x="54" y="141" width="1" height="4" fill="#A77C68" />
<rect x="57" y="141" width="1" height="10" fill="#A77C68" />
<rect x="61" y="141" width="1" height="10" fill="#A77C68" />
<rect x="69" y="141" width="1" height="10" fill="#A77C68" />
<rect x="74" y="141" width="1" height="10" fill="#A77C68" />
<rect x="84" y="141" width="1" height="10" fill="#A77C68" />
<rect x="93" y="141" width="1" height="10" fill="#A77C68" />
<rect x="105" y="141" width="1" height="10" fill="#A77C68" />
<rect x="109" y="141" width="4" height="34" fill="#665054" />
<rect x="113" y="141" width="8" height="34" fill="#A77C68" />
<rect x="146" y="141" width="1" height="10" fill="#A77C68" />
<rect x="165" y="141" width="1" height="10" fill="#A77C68" />
<rect x="175" y="141" width="1" height="10" fill="#A77C68" />
<rect x="184" y="141" width="1" height="10" fill="#A77C68" />
<rect x="220" y="141" width="1" height="10" fill="#A77C68" />
<rect x="228" y="141" width="1" height="10" fill="#A77C68" />
<rect x="237" y="141" width="1" height="10" fill="#A77C68" />
<rect x="252" y="141" width="1" height="10" fill="#A77C68" />
<rect x="255" y="141" width="1" height="10" fill="#A77C68" />
<rect x="258" y="141" width="1" height="4" fill="#A77C68" />
<rect x="261" y="141" width="1" height="3" fill="#A77C68" />
<rect x="192" y="143" width="1" height="32" fill="#665054" />
<rect x="193" y="143" width="11" height="3" fill="#A77C68" />
<rect x="53" y="144" width="1" height="1" fill="#A77C68" />
<rect x="55" y="144" width="2" height="1" fill="#A77C68" />
<rect x="58" y="144" width="3" height="1" fill="#A77C68" />
<rect x="70" y="144" width="4" height="1" fill="#A77C68" />
<rect x="75" y="144" width="9" height="1" fill="#A77C68" />
<rect x="85" y="144" width="8" height="1" fill="#A77C68" />
<rect x="94" y="144" width="7" height="1" fill="#A77C68" />
<rect x="102" y="144" width="3" height="1" fill="#A77C68" />
<rect x="106" y="144" width="3" height="1" fill="#A77C68" />
<rect x="121" y="144" width="11" height="1" fill="#A77C68" />
<rect x="134" y="144" width="12" height="1" fill="#A77C68" />
<rect x="147" y="144" width="7" height="1" fill="#A77C68" />
<rect x="161" y="144" width="4" height="1" fill="#A77C68" />
<rect x="166" y="144" width="9" height="1" fill="#A77C68" />
<rect x="176" y="144" width="8" height="1" fill="#A77C68" />
<rect x="185" y="144" width="7" height="1" fill="#A77C68" />
<rect x="204" y="144" width="5" height="1" fill="#A77C68" />
<rect x="210" y="144" width="10" height="1" fill="#A77C68" />
<rect x="221" y="144" width="7" height="1" fill="#A77C68" />
<rect x="229" y="144" width="8" height="1" fill="#A77C68" />
<rect x="238" y="144" width="7" height="1" fill="#A77C68" />
<rect x="253" y="144" width="2" height="1" fill="#A77C68" />
<rect x="256" y="144" width="2" height="1" fill="#A77C68" />
<rect x="259" y="144" width="2" height="1" fill="#A77C68" />
<rect x="193" y="146" width="1" height="29" fill="#665054" />
<rect x="194" y="146" width="10" height="29" fill="#A77C68" />
<rect x="55" y="147" width="2" height="4" fill="#A77C68" />
<rect x="58" y="147" width="3" height="4" fill="#A77C68" />
<rect x="70" y="147" width="4" height="4" fill="#A77C68" />
<rect x="75" y="147" width="9" height="4" fill="#A77C68" />
<rect x="85" y="147" width="8" height="4" fill="#A77C68" />
<rect x="94" y="147" width="7" height="4" fill="#A77C68" />
<rect x="102" y="147" width="3" height="4" fill="#A77C68" />
<rect x="106" y="147" width="3" height="4" fill="#A77C68" />
<rect x="121" y="147" width="11" height="4" fill="#A77C68" />
<rect x="134" y="147" width="12" height="4" fill="#A77C68" />
<rect x="147" y="147" width="7" height="4" fill="#A77C68" />
<rect x="161" y="147" width="4" height="4" fill="#A77C68" />
<rect x="166" y="147" width="9" height="4" fill="#A77C68" />
<rect x="176" y="147" width="8" height="4" fill="#A77C68" />
<rect x="185" y="147" width="7" height="4" fill="#A77C68" />
<rect x="204" y="147" width="5" height="4" fill="#A77C68" />
<rect x="210" y="147" width="10" height="4" fill="#A77C68" />
<rect x="221" y="147" width="7" height="4" fill="#A77C68" />
<rect x="229" y="147" width="8" height="4" fill="#A77C68" />
<rect x="238" y="147" width="7" height="4" fill="#A77C68" />
<rect x="253" y="147" width="2" height="4" fill="#A77C68" />
<rect x="256" y="147" width="4" height="4" fill="#A77C68" />
<rect x="102" y="151" width="1" height="24" fill="#A77C68" />
</svg>