<?xml version="1.0" encoding="UTF-8" ?>
<svg version="1.1" width="32" height="34" xmlns="http://www.w3.org/2000/svg" shape-rendering="crispEdges">
<rect x="7" y="0" width="4" height="2" fill="#E8A87C" />
<rect x="6" y="1" width="1" height="32" fill="#E8A87C" />
<rect x="11" y="1" width="1" height="2" fill="#E8A87C" />
<rect x="5" y="2" width="1" height="30" fill="#E8A87C" />
<rect x="7" y="2" width="4" height="2" fill="#252540" />
<rect x="12" y="2" width="1" height="2" fill="#E8A87C" />
<rect x="11" y="3" width="1" height="3" fill="#252540" />
<rect x="13" y="3" width="1" height="2" fill="#E8A87C" />
<rect x="7" y="4" width="2" height="28" fill="#252540" />
<rect x="9" y="4" width="1" height="26" fill="#E8A87C" />
<rect x="10" y="4" width="1" height="1" fill="#252540" />
<rect x="12" y="4" width="1" height="3" fill="#252540" />
<rect x="14" y="4" width="1" height="2" fill="#E8A87C" />
<rect x="10" y="5" width="1" height="24" fill="#E8A87C" />
<rect x="13" y="5" width="1" height="3" fill="#252540" />
<rect x="15" y="5" width="1" height="2" fill="#E8A87C" />
<rect x="11" y="6" width="1" height="22" fill="#E8A87C" />
<rect x="14" y="6" width="1" height="3" fill="#252540" />
<rect x="16" y="6" width="1" height="2" fill="#E8A87C" />
<rect x="12" y="7" width="1" height="20" fill="#E8A87C" />
<rect x="15" y="7" width="1" height="3" fill="#252540" />
<rect x="17" y="7" width="1" height="2" fill="#E8A87C" />
<rect x="13" y="8" width="1" height="18" fill="#E8A87C" />
<rect x="16" y="8" width="1" height="3" fill="#252540" />
<rect x="18" y="8" width="1" height="2" fill="#E8A87C" />
<rect x="14" y="9" width="1" height="16" fill="#E8A87C" />
<rect x="17" y="9" width="1" height="3" fill="#252540" />
<rect x="19" y="9" width="1" height="2" fill="#E8A87C" />
<rect x="15" y="10" width="1" height="14" fill="#E8A87C" />
<rect x="18" y="10" width="1" height="3" fill="#252540" />
<rect x="20" y="10" width="1" height="2" fill="#E8A87C" />
<rect x="16" y="11" width="1" height="12" fill="#E8A87C" />
<rect x="19" y="11" width="1" height="3" fill="#252540" />
<rect x="21" y="11" width="1" height="2" fill="#E8A87C" />
<rect x="17" y="12" width="1" height="10" fill="#E8A87C" />
<rect x="20" y="12" width="1" height="3" fill="#252540" />
<rect x="22" y="12" width="1" height="2" fill="#E8A87C" />
<rect x="18" y="13" width="1" height="8" fill="#E8A87C" />
<rect x="21" y="13" width="1" height="3" fill="#252540" />
<rect x="23" y="13" width="1" height="2" fill="#E8A87C" />
<rect x="19" y="14" width="1" height="6" fill="#E8A87C" />
<rect x="22" y="14" width="1" height="6" fill="#252540" />
<rect x="24" y="14" width="1" height="2" fill="#E8A87C" />
<rect x="20" y="15" width="1" height="4" fill="#E8A87C" />
<rect x="23" y="15" width="1" height="4" fill="#252540" />
<rect x="25" y="15" width="1" height="4" fill="#E8A87C" />
<rect x="21" y="16" width="1" height="2" fill="#E8A87C" />
<rect x="24" y="16" width="1" height="2" fill="#252540" />
<rect x="26" y="16" width="1" height="2" fill="#E8A87C" />
<rect x="21" y="18" width="1" height="3" fill="#252540" />
<rect x="24" y="18" width="1" height="2" fill="#E8A87C" />
<rect x="20" y="19" width="1" height="3" fill="#252540" />
<rect x="23" y="19" width="1" height="2" fill="#E8A87C" />
<rect x="19" y="20" width="1" height="3" fill="#252540" />
<rect x="22" y="20" width="1" height="2" fill="#E8A87C" />
<rect x="18" y="21" width="1" height="3" fill="#252540" />
<rect x="21" y="21" width="1" height="2" fill="#E8A87C" />
<rect x="17" y="22" width="1" height="3" fill="#252540" />
<rect x="20" y="22" width="1" height="2" fill="#E8A87C" />
<rect x="16" y="23" width="1" height="3" fill="#252540" />
<rect x="19" y="23" width="1" height="2" fill="#E8A87C" />
<rect x="15" y="24" width="1" height="3" fill="#252540" />
<rect x="18" y="24" width="1" height="2" fill="#E8A87C" />
<rect x="14" y="25" width="1" height="3" fill="#252540" />
<rect x="17" y="25" width="1" height="2" fill="#E8A87C" />
<rect x="13" y="26" width="1" height="3" fill="#252540" />
<rect x="16" y="26" width="1" height="2" fill="#E8A87C" />
<rect x="12" y="27" width="1" height="3" fill="#252540" />
<rect x="15" y="27" width="1" height="2" fill="#E8A87C" />
<rect x="11" y="28" width="1" height="3" fill="#252540" />
<rect x="14" y="28" width="1" height="2" fill="#E8A87C" />
<rect x="10" y="29" width="1" height="3" fill="#252540" />
<rect x="13" y="29" width="1" height="2" fill="#E8A87C" />
<rect x="9" y="30" width="1" height="2" fill="#252540" />
<rect x="12" y="30" width="1" height="2" fill="#E8A87C" />
<rect x="11" y="31" width="1" height="2" fill="#E8A87C" />
<rect x="7" y="32" width="4" height="2" fill="#E8A87C" />
</svg>