<?xml version="1.0" encoding="UTF-8" ?>
<svg version="1.1" width="320" height="240" xmlns="http://www.w3.org/2000/svg" shape-rendering="crispEdges">
<rect x="94" y="54" width="13" height="2" fill="#A77C68" />
<rect x="132" y="54" width="13" height="2" fill="#A77C68" />
<rect x="176" y="54" width="13" height="2" fill="#A77C68" />
<rect x="219" y="54" width="12" height="2" fill="#A77C68" />
<rect x="231" y="55" width="1" height="5" fill="#A77C68" />
<rect x="94" y="56" width="3" height="4" fill="#A77C68" />
<rect x="97" y="56" width="4" height="4" fill="#F2E9D8" />
<rect x="101" y="56" width="1" height="4" fill="#A77C68" />
<rect x="102" y="56" width="4" height="4" fill="#F2E9D8" />
<rect x="106" y="56" width="1" height="4" fill="#A77C68" />
<rect x="132" y="56" width="3" height="4" fill="#A77C68" />
<rect x="135" y="56" width="4" height="4" fill="#F2E9D8" />
<rect x="139" y="56" width="1" height="4" fill="#A77C68" />
<rect x="140" y="56" width="4" height="4" fill="#F2E9D8" />
<rect x="144" y="56" width="1" height="4" fill="#A77C68" />
<rect x="176" y="56" width="2" height="4" fill="#A77C68" />
<rect x="178" y="56" width="4" height="4" fill="#F2E9D8" />
<rect x="182" y="56" width="1" height="4" fill="#A77C68" />
<rect x="183" y="56" width="4" height="4" fill="#F2E9D8" />
<rect x="187" y="56" width="2" height="4" fill="#A77C68" />
<rect x="219" y="56" width="1" height="4" fill="#A77C68" />
<rect x="220" y="56" width="4" height="4" fill="#F2E9D8" />
<rect x="224" y="56" width="1" height="4" fill="#A77C68" />
<rect x="225" y="56" width="4" height="4" fill="#F2E9D8" />
<rect x="229" y="56" width="2" height="4" fill="#A77C68" />
<rect x="61" y="60" width="198" height="4" fill="#E8A87C" />
<rect x="61" y="64" width="3" height="85" fill="#E8A87C" />
<rect x="64" y="64" width="193" height="1" fill="#665054" />
<rect x="257" y="64" width="2" height="85" fill="#E8A87C" />
<rect x="64" y="65" width="6" height="82" fill="#665054" />
<rect x="70" y="65" width="180" height="80" fill="#252540" />
<rect x="250" y="65" width="7" height="82" fill="#665054" />
<rect x="55" y="114" width="6" height="7" fill="#A77C68" />
<rect x="55" y="121" width="1" height="4" fill="#A77C68" />
<rect x="57" y="121" width="2" height="4" fill="#A77C68" />
<rect x="56" y="123" width="1" height="2" fill="#A77C68" />
<rect x="59" y="123" width="2" height="2" fill="#A77C68" />
<rect x="259" y="126" width="4" height="15" fill="#665054" />
<rect x="263" y="127" width="1" height="14" fill="#665054" />
<rect x="262" y="141" width="1" height="1" fill="#665054" />
<rect x="261" y="142" width="1" height="1" fill="#665054" />
<rect x="260" y="143" width="1" height="1" fill="#665054" />
<rect x="259" y="144" width="1" height="1" fill="#665054" />
<rect x="70" y="145" width="180" height="2" fill="#665054" />
<rect x="64" y="147" width="193" height="2" fill="#E8A87C" />
<rect x="64" y="149" width="198" height="2" fill="#A77C68" />
<rect x="57" y="151" width="1" height="9" fill="#A77C68" />
<rect x="64" y="151" width="195" height="3" fill="#A77C68" />
<rect x="60" y="153" width="4" height="1" fill="#A77C68" />
<rect x="259" y="153" width="1" height="7" fill="#A77C68" />
<rect x="261" y="153" width="1" height="6" fill="#A77C68" />
<rect x="265" y="153" width="1" height="6" fill="#A77C68" />
<rect x="60" y="154" width="199" height="4" fill="#E8A87C" />
<rect x="58" y="158" width="201" height="2" fill="#A77C68" />
<rect x="260" y="158" width="1" height="1" fill="#A77C68" />
<rect x="262" y="158" width="3" height="1" fill="#A77C68" />
<rect x="266" y="158" width="1" height="1" fill="#A77C68" />
<rect x="77" y="160" width="1" height="21" fill="#A77C68" />
<rect x="83" y="160" width="1" height="21" fill="#A77C68" />
<rect x="101" y="160" width="1" height="80" fill="#A77C68" />
<rect x="109" y="160" width="12" height="5" fill="#A77C68" />
<rect x="154" y="160" width="7" height="21" fill="#A77C68" />
<rect x="192" y="160" width="12" height="13" fill="#A77C68" />
<rect x="209" y="160" width="1" height="80" fill="#A77C68" />
<rect x="230" y="160" width="1" height="21" fill="#A77C68" />
<rect x="236" y="160" width="1" height="21" fill="#A77C68" />
<rect x="121" y="162" width="12" height="2" fill="#A77C68" />
<rect x="133" y="163" width="1" height="77" fill="#A77C68" />
<rect x="132" y="164" width="1" height="76" fill="#A77C68" />
<rect x="109" y="165" width="1" height="5" fill="#665054" />
<rect x="110" y="165" width="11" height="2" fill="#A77C68" />
<rect x="121" y="166" width="11" height="1" fill="#A77C68" />
<rect x="134" y="166" width="1" height="3" fill="#A77C68" />
<rect x="102" y="167" width="7" height="2" fill="#A77C68" />
<rect x="110" y="167" width="1" height="3" fill="#665054" />
<rect x="111" y="167" width="10" height="2" fill="#A77C68" />
<rect x="122" y="167" width="1" height="2" fill="#A77C68" />
<rect x="127" y="167" width="1" height="2" fill="#A77C68" />
<rect x="111" y="169" width="1" height="1" fill="#665054" />
<rect x="112" y="169" width="9" height="2" fill="#A77C68" />
<rect x="68" y="170" width="9" height="1" fill="#A77C68" />
<rect x="78" y="170" width="5" height="11" fill="#A77C68" />
<rect x="84" y="170" width="17" height="1" fill="#A77C68" />
<rect x="102" y="170" width="10" height="1" fill="#A77C68" />
<rect x="121" y="170" width="11" height="1" fill="#A77C68" />
<rect x="134" y="170" width="20" height="1" fill="#A77C68" />
<rect x="161" y="170" width="31" height="1" fill="#A77C68" />
<rect x="204" y="170" width="5" height="1" fill="#A77C68" />
<rect x="210" y="170" width="20" height="1" fill="#A77C68" />
<rect x="231" y="170" width="5" height="11" fill="#A77C68" />
<rect x="237" y="170" width="9" height="1" fill="#A77C68" />
<rect x="67" y="171" width="1" height="3" fill="#A77C68" />
<rect x="69" y="171" width="1" height="4" fill="#A77C68" />
<rect x="72" y="171" width="1" height="10" fill="#A77C68" />
<rect x="76" y="171" width="1" height="10" fill="#A77C68" />
<rect x="84" y="171" width="1" height="10" fill="#A77C68" />
<rect x="89" y="171" width="1" height="10" fill="#A77C68" />
<rect x="95" y="171" width="1" height="10" fill="#A77C68" />
<rect x="105" y="171" width="1" height="10" fill="#A77C68" />
<rect x="109" y="171" width="4" height="69" fill="#665054" />
<rect x="113" y="171" width="8" height="69" fill="#A77C68" />
<rect x="146" y="171" width="1" height="10" fill="#A77C68" />
<rect x="165" y="171" width="1" height="10" fill="#A77C68" />
<rect x="175" y="171" width="1" height="10" fill="#A77C68" />
<rect x="184" y="171" width="1" height="10" fill="#A77C68" />
<rect x="220" y="171" width="1" height="10" fill="#A77C68" />
<rect x="237" y="171" width="1" height="10" fill="#A77C68" />
<rect x="240" y="171" width="1" height="10" fill="#A77C68" />
<rect x="243" y="171" width="1" height="4" fill="#A77C68" />
<rect x="246" y="171" width="1" height="3" fill="#A77C68" />
<rect x="192" y="173" width="1" height="67" fill="#665054" />
<rect x="193" y="173" width="11" height="3" fill="#A77C68" />
<rect x="68" y="174" width="1" height="1" fill="#A77C68" />
<rect x="70" y="174" width="2" height="1" fill="#A77C68" />
<rect x="73" y="174" width="3" height="1" fill="#A77C68" />
<rect x="85" y="174" width="4" height="1" fill="#A77C68" />
<rect x="90" y="174" width="5" height="1" fill="#A77C68" />
<rect x="96" y="174" width="5" height="1" fill="#A77C68" />
<rect x="102" y="174" width="3" height="1" fill="#A77C68" />
<rect x="106" y="174" width="3" height="1" fill="#A77C68" />
<rect x="121" y="174" width="11" height="1" fill="#A77C68" />
<rect x="134" y="174" width="12" height="1" fill="#A77C68" />
<rect x="147" y="174" width="7" height="1" fill="#A77C68" />
<rect x="161" y="174" width="4" height="1" fill="#A77C68" />
<rect x="166" y="174" width="9" height="1" fill="#A77C68" />
<rect x="176" y="174" width="8" height="1" fill="#A77C68" />
<rect x="185" y="174" width="7" height="1" fill="#A77C68" />
<rect x="204" y="174" width="5" height="1" fill="#A77C68" />
<rect x="210" y="174" width="10" height="1" fill="#A77C68" />
<rect x="221" y="174" width="9" height="1" fill="#A77C68" />
<rect x="238" y="174" width="2" height="1" fill="#A77C68" />
<rect x="241" y="174" width="2" height="1" fill="#A77C68" />
<rect x="244" y="174" width="2" height="1" fill="#A77C68" />
<rect x="193" y="176" width="1" height="64" fill="#665054" />
<rect x="194" y="176" width="10" height="64" fill="#A77C68" />
<rect x="70" y="177" width="2" height="4" fill="#A77C68" />
<rect x="73" y="177" width="3" height="4" fill="#A77C68" />
<rect x="85" y="177" width="4" height="4" fill="#A77C68" />
<rect x="90" y="177" width="5" height="4" fill="#A77C68" />
<rect x="96" y="177" width="5" height="4" fill="#A77C68" />
<rect x="102" y="177" width="3" height="4" fill="#A77C68" />
<rect x="106" y="177" width="3" height="4" fill="#A77C68" />
<rect x="121" y="177" width="11" height="4" fill="#A77C68" />
<rect x="134" y="177" width="12" height="4" fill="#A77C68" />
<rect x="147" y="177" width="7" height="4" fill="#A77C68" />
<rect x="161" y="177" width="4" height="4" fill="#A77C68" />
<rect x="166" y="177" width="9" height="4" fill="#A77C68" />
<rect x="176" y="177" width="8" height="4" fill="#A77C68" />
<rect x="185" y="177" width="7" height="4" fill="#A77C68" />
<rect x="204" y="177" width="5" height="4" fill="#A77C68" />
<rect x="210" y="177" width="10" height="4" fill="#A77C68" />
<rect x="221" y="177" width="9" height="4" fill="#A77C68" />
<rect x="238" y="177" width="2" height="4" fill="#A77C68" />
<rect x="241" y="177" width="4" height="4" fill="#A77C68" />
<rect x="102" y="181" width="1" height="59" fill="#A77C68" />
</svg>