<?xml version="1.0" encoding="UTF-8" ?>
<svg version="1.1" width="240" height="320" xmlns="http://www.w3.org/2000/svg" shape-rendering="crispEdges">
<rect x="171" y="40" width="1" height="1" fill="#E8A87C" />
<rect x="172" y="40" width="1" height="1" fill="#A77C68" />
<rect x="173" y="40" width="1" height="1" fill="#E8A87C" />
<rect x="174" y="40" width="1" height="1" fill="#A77C68" />
<rect x="169" y="41" width="2" height="1" fill="#E8A87C" />
<rect x="171" y="41" width="1" height="1" fill="#A77C68" />
<rect x="172" y="41" width="1" height="1" fill="#E8A87C" />
<rect x="173" y="41" width="1" height="1" fill="#A77C68" />
<rect x="168" y="42" width="2" height="1" fill="#E8A87C" />
<rect x="170" y="42" width="1" height="1" fill="#A77C68" />
<rect x="171" y="42" width="1" height="1" fill="#E8A87C" />
<rect x="172" y="42" width="1" height="1" fill="#A77C68" />
<rect x="167" y="43" width="1" height="1" fill="#EDBD9C" />
<rect x="168" y="43" width="1" height="4" fill="#E8A87C" />
<rect x="169" y="43" width="1" height="1" fill="#A77C68" />
<rect x="170" y="43" width="1" height="1" fill="#E8A87C" />
<rect x="171" y="43" width="1" height="3" fill="#A77C68" />
<rect x="172" y="43" width="1" height="1" fill="#665054" />
<rect x="166" y="44" width="1" height="1" fill="#EDBD9C" />
<rect x="167" y="44" width="1" height="3" fill="#E8A87C" />
<rect x="169" y="44" width="1" height="2" fill="#E8A87C" />
<rect x="170" y="44" width="1" height="2" fill="#A77C68" />
<rect x="165" y="45" width="1" height="1" fill="#EDBD9C" />
<rect x="166" y="45" width="1" height="5" fill="#E8A87C" />
<rect x="164" y="46" width="1" height="2" fill="#EDBD9C" />
<rect x="165" y="46" width="1" height="7" fill="#E8A87C" />
<rect x="169" y="46" width="1" height="1" fill="#A77C68" />
<rect x="170" y="46" width="2" height="1" fill="#665054" />
<rect x="163" y="47" width="1" height="2" fill="#EDBD9C" />
<rect x="167" y="47" width="2" height="5" fill="#A77C68" />
<rect x="169" y="47" width="2" height="5" fill="#665054" />
<rect x="164" y="48" width="1" height="4" fill="#E8A87C" />
<rect x="162" y="49" width="1" height="7" fill="#EDBD9C" />
<rect x="163" y="49" width="1" height="1" fill="#E8A87C" />
<rect x="163" y="50" width="1" height="2" fill="#EDBD9C" />
<rect x="166" y="50" width="1" height="2" fill="#A77C68" />
<rect x="161" y="51" width="1" height="11" fill="#EDBD9C" />
<rect x="163" y="52" width="1" height="8" fill="#E8A87C" />
<rect x="164" y="52" width="1" height="2" fill="#A77C68" />
<rect x="166" y="52" width="2" height="1" fill="#E8A87C" />
<rect x="168" y="52" width="2" height="7" fill="#A77C68" />
<rect x="170" y="52" width="1" height="1" fill="#665054" />
<rect x="165" y="53" width="2" height="2" fill="#A77C68" />
<rect x="167" y="53" width="1" height="1" fill="#E8A87C" />
<rect x="170" y="53" width="1" height="1" fill="#A77C68" />
<rect x="171" y="53" width="1" height="1" fill="#665054" />
<rect x="164" y="54" width="1" height="6" fill="#E8A87C" />
<rect x="167" y="54" width="1" height="1" fill="#A77C68" />
<rect x="170" y="54" width="1" height="1" fill="#665054" />
<rect x="171" y="54" width="1" height="1" fill="#A77C68" />
<rect x="165" y="55" width="1" height="5" fill="#E8A87C" />
<rect x="166" y="55" width="1" height="3" fill="#A77C68" />
<rect x="167" y="55" width="1" height="1" fill="#E8A87C" />
<rect x="170" y="55" width="1" height="1" fill="#A77C68" />
<rect x="171" y="55" width="1" height="1" fill="#665054" />
<rect x="162" y="56" width="1" height="1" fill="#E8A87C" />
<rect x="167" y="56" width="1" height="1" fill="#A77C68" />
<rect x="170" y="56" width="1" height="1" fill="#665054" />
<rect x="171" y="56" width="1" height="1" fill="#A77C68" />
<rect x="162" y="57" width="1" height="1" fill="#EDBD9C" />
<rect x="167" y="57" width="1" height="1" fill="#E8A87C" />
<rect x="170" y="57" width="1" height="4" fill="#A77C68" />
<rect x="171" y="57" width="1" height="1" fill="#665054" />
<rect x="172" y="57" width="1" height="1" fill="#A77C68" />
<rect x="162" y="58" width="1" height="1" fill="#E8A87C" />
<rect x="166" y="58" width="1" height="2" fill="#E8A87C" />
<rect x="167" y="58" width="1" height="1" fill="#A77C68" />
<rect x="171" y="58" width="1" height="1" fill="#A77C68" />
<rect x="172" y="58" width="1" height="1" fill="#665054" />
<rect x="199" y="58" width="1" height="1" fill="#A77C68" />
<rect x="162" y="59" width="1" height="1" fill="#EDBD9C" />
<rect x="167" y="59" width="2" height="1" fill="#E8A87C" />
<rect x="169" y="59" width="1" height="1" fill="#A77C68" />
<rect x="171" y="59" width="1" height="1" fill="#665054" />
<rect x="172" y="59" width="1" height="1" fill="#A77C68" />
<rect x="173" y="59" width="1" height="1" fill="#665054" />
<rect x="198" y="59" width="1" height="1" fill="#A77C68" />
<rect x="199" y="59" width="1" height="2" fill="#E8A87C" />
<rect x="162" y="60" width="1" height="1" fill="#E8A87C" />
<rect x="163" y="60" width="1" height="1" fill="#EDBD9C" />
<rect x="164" y="60" width="4" height="1" fill="#A77C68" />
<rect x="168" y="60" width="2" height="1" fill="#E8A87C" />
<rect x="171" y="60" width="1" height="7" fill="#A77C68" />
<rect x="172" y="60" width="1" height="1" fill="#665054" />
<rect x="173" y="60" width="1" height="1" fill="#A77C68" />
<rect x="174" y="60" width="1" height="1" fill="#665054" />
<rect x="197" y="60" width="1" height="2" fill="#A77C68" />
<rect x="198" y="60" width="1" height="2" fill="#E8A87C" />
<rect x="162" y="61" width="1" height="1" fill="#EDBD9C" />
<rect x="163" y="61" width="1" height="1" fill="#A77C68" />
<rect x="164" y="61" width="1" height="1" fill="#E8A87C" />
<rect x="165" y="61" width="1" height="3" fill="#A77C68" />
<rect x="166" y="61" width="1" height="1" fill="#E8A87C" />
<rect x="167" y="61" width="2" height="1" fill="#A77C68" />
<rect x="169" y="61" width="2" height="2" fill="#E8A87C" />
<rect x="172" y="61" width="1" height="2" fill="#A77C68" />
<rect x="173" y="61" width="1" height="1" fill="#665054" />
<rect x="174" y="61" width="1" height="1" fill="#A77C68" />
<rect x="175" y="61" width="1" height="1" fill="#665054" />
<rect x="196" y="61" width="1" height="1" fill="#665054" />
<rect x="199" y="61" width="1" height="1" fill="#A77C68" />
<rect x="162" y="62" width="1" height="1" fill="#E8A87C" />
<rect x="163" y="62" width="1" height="1" fill="#EDBD9C" />
<rect x="164" y="62" width="1" height="1" fill="#A77C68" />
<rect x="166" y="62" width="1" height="1" fill="#A77C68" />
<rect x="167" y="62" width="1" height="1" fill="#E8A87C" />
<rect x="168" y="62" width="1" height="1" fill="#A77C68" />
<rect x="173" y="62" width="1" height="5" fill="#A77C68" />
<rect x="174" y="62" width="1" height="3" fill="#665054" />
<rect x="175" y="62" width="2" height="1" fill="#A77C68" />
<rect x="195" y="62" width="1" height="1" fill="#665054" />
<rect x="196" y="62" width="1" height="1" fill="#A77C68" />
<rect x="197" y="62" width="1" height="1" fill="#E8A87C" />
<rect x="198" y="62" width="1" height="1" fill="#A77C68" />
<rect x="199" y="62" width="1" height="1" fill="#E8A87C" />
<rect x="162" y="63" width="1" height="2" fill="#EDBD9C" />
<rect x="163" y="63" width="1" height="2" fill="#E8A87C" />
<rect x="164" y="63" width="1" height="2" fill="#EDBD9C" />
<rect x="166" y="63" width="1" height="1" fill="#E8A87C" />
<rect x="167" y="63" width="1" height="1" fill="#A77C68" />
<rect x="168" y="63" width="1" height="1" fill="#E8A87C" />
<rect x="169" y="63" width="1" height="1" fill="#A77C68" />
<rect x="170" y="63" width="1" height="1" fill="#E8A87C" />
<rect x="172" y="63" width="1" height="4" fill="#E8A87C" />
<rect x="175" y="63" width="1" height="3" fill="#665054" />
<rect x="176" y="63" width="2" height="1" fill="#A77C68" />
<rect x="194" y="63" width="1" height="1" fill="#665054" />
<rect x="195" y="63" width="1" height="1" fill="#A77C68" />
<rect x="196" y="63" width="1" height="1" fill="#E8A87C" />
<rect x="197" y="63" width="1" height="1" fill="#A77C68" />
<rect x="198" y="63" width="1" height="1" fill="#E8A87C" />
<rect x="199" y="63" width="1" height="1" fill="#A77C68" />
<rect x="165" y="64" width="1" height="1" fill="#E8A87C" />
<rect x="166" y="64" width="1" height="1" fill="#A77C68" />
<rect x="167" y="64" width="1" height="1" fill="#E8A87C" />
<rect x="168" y="64" width="1" height="2" fill="#A77C68" />
<rect x="169" y="64" width="1" height="1" fill="#E8A87C" />
<rect x="170" y="64" width="1" height="2" fill="#A77C68" />
<rect x="176" y="64" width="1" height="3" fill="#665054" />
<rect x="177" y="64" width="2" height="1" fill="#A77C68" />
<rect x="179" y="64" width="1" height="4" fill="#665054" />
<rect x="180" y="64" width="1" height="1" fill="#A77C68" />
<rect x="192" y="64" width="1" height="1" fill="#A77C68" />
<rect x="193" y="64" width="1" height="1" fill="#665054" />
<rect x="194" y="64" width="1" height="1" fill="#A77C68" />
<rect x="195" y="64" width="1" height="1" fill="#E8A87C" />
<rect x="196" y="64" width="1" height="1" fill="#A77C68" />
<rect x="197" y="64" width="1" height="1" fill="#E8A87C" />
<rect x="198" y="64" width="1" height="1" fill="#A77C68" />
<rect x="199" y="64" width="1" height="1" fill="#E8A87C" />
<rect x="163" y="65" width="1" height="2" fill="#EDBD9C" />
<rect x="164" y="65" width="1" height="1" fill="#E8A87C" />
<rect x="165" y="65" width="1" height="1" fill="#EDBD9C" />
<rect x="166" y="65" width="1" height="1" fill="#E8A87C" />
<rect x="167" y="65" width="1" height="1" fill="#A77C68" />
<rect x="169" y="65" width="1" height="1" fill="#A77C68" />
<rect x="174" y="65" width="1" height="3" fill="#A77C68" />
<rect x="177" y="65" width="2" height="2" fill="#665054" />
<rect x="180" y="65" width="1" height="1" fill="#665054" />
<rect x="181" y="65" width="2" height="1" fill="#A77C68" />
<rect x="190" y="65" width="2" height="1" fill="#A77C68" />
<rect x="192" y="65" width="1" height="1" fill="#665054" />
<rect x="193" y="65" width="1" height="1" fill="#A77C68" />
<rect x="194" y="65" width="1" height="1" fill="#E8A87C" />
<rect x="195" y="65" width="1" height="1" fill="#A77C68" />
<rect x="196" y="65" width="1" height="1" fill="#E8A87C" />
<rect x="197" y="65" width="1" height="1" fill="#A77C68" />
<rect x="198" y="65" width="1" height="2" fill="#E8A87C" />
<rect x="164" y="66" width="1" height="3" fill="#EDBD9C" />
<rect x="165" y="66" width="1" height="1" fill="#E8A87C" />
<rect x="166" y="66" width="1" height="1" fill="#EDBD9C" />
<rect x="167" y="66" width="4" height="1" fill="#E8A87C" />
<rect x="175" y="66" width="1" height="3" fill="#A77C68" />
<rect x="180" y="66" width="1" height="5" fill="#A77C68" />
<rect x="181" y="66" width="1" height="1" fill="#665054" />
<rect x="182" y="66" width="1" height="1" fill="#A77C68" />
<rect x="183" y="66" width="1" height="1" fill="#665054" />
<rect x="184" y="66" width="1" height="1" fill="#A77C68" />
<rect x="185" y="66" width="1" height="1" fill="#665054" />
<rect x="186" y="66" width="1" height="1" fill="#A77C68" />
<rect x="187" y="66" width="1" height="1" fill="#665054" />
<rect x="188" y="66" width="1" height="1" fill="#A77C68" />
<rect x="189" y="66" width="1" height="1" fill="#665054" />
<rect x="190" y="66" width="1" height="1" fill="#A77C68" />
<rect x="191" y="66" width="1" height="1" fill="#665054" />
<rect x="192" y="66" width="1" height="1" fill="#A77C68" />
<rect x="193" y="66" width="1" height="1" fill="#E8A87C" />
<rect x="194" y="66" width="1" height="1" fill="#A77C68" />
<rect x="195" y="66" width="1" height="1" fill="#E8A87C" />
<rect x="196" y="66" width="1" height="1" fill="#A77C68" />
<rect x="197" y="66" width="1" height="3" fill="#E8A87C" />
<rect x="165" y="67" width="1" height="1" fill="#EDBD9C" />
<rect x="166" y="67" width="1" height="1" fill="#E8A87C" />
<rect x="167" y="67" width="1" height="1" fill="#EDBD9C" />
<rect x="168" y="67" width="4" height="1" fill="#E8A87C" />
<rect x="172" y="67" width="1" height="1" fill="#A77C68" />
<rect x="173" y="67" width="1" height="1" fill="#E8A87C" />
<rect x="176" y="67" width="3" height="3" fill="#A77C68" />
<rect x="181" y="67" width="1" height="3" fill="#A77C68" />
<rect x="182" y="67" width="1" height="1" fill="#665054" />
<rect x="183" y="67" width="1" height="3" fill="#A77C68" />
<rect x="184" y="67" width="1" height="1" fill="#665054" />
<rect x="185" y="67" width="1" height="3" fill="#A77C68" />
<rect x="186" y="67" width="1" height="1" fill="#665054" />
<rect x="187" y="67" width="1" height="3" fill="#A77C68" />
<rect x="188" y="67" width="1" height="1" fill="#665054" />
<rect x="189" y="67" width="1" height="3" fill="#A77C68" />
<rect x="190" y="67" width="1" height="1" fill="#665054" />
<rect x="191" y="67" width="1" height="1" fill="#A77C68" />
<rect x="192" y="67" width="1" height="1" fill="#E8A87C" />
<rect x="193" y="67" width="1" height="1" fill="#A77C68" />
<rect x="194" y="67" width="1" height="1" fill="#E8A87C" />
<rect x="195" y="67" width="1" height="1" fill="#A77C68" />
<rect x="196" y="67" width="1" height="3" fill="#E8A87C" />
<rect x="165" y="68" width="1" height="1" fill="#E8A87C" />
<rect x="166" y="68" width="1" height="1" fill="#EDBD9C" />
<rect x="167" y="68" width="1" height="1" fill="#E8A87C" />
<rect x="168" y="68" width="1" height="1" fill="#EDBD9C" />
<rect x="169" y="68" width="4" height="1" fill="#E8A87C" />
<rect x="173" y="68" width="1" height="1" fill="#A77C68" />
<rect x="174" y="68" width="1" height="1" fill="#E8A87C" />
<rect x="179" y="68" width="1" height="3" fill="#A77C68" />
<rect x="182" y="68" width="1" height="3" fill="#A77C68" />
<rect x="184" y="68" width="1" height="3" fill="#A77C68" />
<rect x="186" y="68" width="1" height="3" fill="#A77C68" />
<rect x="188" y="68" width="1" height="1" fill="#A77C68" />
<rect x="190" y="68" width="1" height="1" fill="#A77C68" />
<rect x="191" y="68" width="1" height="1" fill="#E8A87C" />
<rect x="192" y="68" width="1" height="1" fill="#A77C68" />
<rect x="193" y="68" width="1" height="1" fill="#E8A87C" />
<rect x="194" y="68" width="1" height="1" fill="#A77C68" />
<rect x="195" y="68" width="1" height="3" fill="#E8A87C" />
<rect x="165" y="69" width="1" height="1" fill="#EDBD9C" />
<rect x="166" y="69" width="1" height="1" fill="#E8A87C" />
<rect x="167" y="69" width="1" height="1" fill="#EDBD9C" />
<rect x="168" y="69" width="1" height="1" fill="#E8A87C" />
<rect x="169" y="69" width="1" height="1" fill="#EDBD9C" />
<rect x="170" y="69" width="4" height="1" fill="#E8A87C" />
<rect x="174" y="69" width="1" height="1" fill="#A77C68" />
<rect x="175" y="69" width="1" height="1" fill="#E8A87C" />
<rect x="188" y="69" width="1" height="1" fill="#E8A87C" />
<rect x="190" y="69" width="1" height="1" fill="#E8A87C" />
<rect x="191" y="69" width="1" height="1" fill="#A77C68" />
<rect x="192" y="69" width="1" height="1" fill="#E8A87C" />
<rect x="193" y="69" width="1" height="1" fill="#A77C68" />
<rect x="194" y="69" width="1" height="3" fill="#E8A87C" />
<rect x="166" y="70" width="1" height="1" fill="#EDBD9C" />
<rect x="167" y="70" width="1" height="1" fill="#E8A87C" />
<rect x="168" y="70" width="1" height="1" fill="#EDBD9C" />
<rect x="169" y="70" width="1" height="1" fill="#E8A87C" />
<rect x="170" y="70" width="1" height="1" fill="#EDBD9C" />
<rect x="171" y="70" width="4" height="1" fill="#E8A87C" />
<rect x="175" y="70" width="1" height="1" fill="#A77C68" />
<rect x="176" y="70" width="1" height="4" fill="#E8A87C" />
<rect x="177" y="70" width="1" height="1" fill="#A77C68" />
<rect x="178" y="70" width="1" height="1" fill="#E8A87C" />
<rect x="181" y="70" width="1" height="1" fill="#E8A87C" />
<rect x="183" y="70" width="1" height="1" fill="#E8A87C" />
<rect x="185" y="70" width="1" height="1" fill="#E8A87C" />
<rect x="187" y="70" width="1" height="1" fill="#E8A87C" />
<rect x="188" y="70" width="1" height="1" fill="#A77C68" />
<rect x="189" y="70" width="1" height="1" fill="#E8A87C" />
<rect x="190" y="70" width="1" height="1" fill="#A77C68" />
<rect x="191" y="70" width="1" height="4" fill="#E8A87C" />
<rect x="192" y="70" width="1" height="1" fill="#A77C68" />
<rect x="193" y="70" width="1" height="2" fill="#E8A87C" />
<rect x="167" y="71" width="1" height="1" fill="#EDBD9C" />
<rect x="168" y="71" width="1" height="1" fill="#E8A87C" />
<rect x="169" y="71" width="1" height="1" fill="#EDBD9C" />
<rect x="170" y="71" width="1" height="1" fill="#E8A87C" />
<rect x="171" y="71" width="1" height="1" fill="#EDBD9C" />
<rect x="172" y="71" width="4" height="1" fill="#E8A87C" />
<rect x="177" y="71" width="1" height="1" fill="#E8A87C" />
<rect x="178" y="71" width="1" height="1" fill="#EDBD9C" />
<rect x="179" y="71" width="2" height="1" fill="#E8A87C" />
<rect x="181" y="71" width="1" height="1" fill="#A77C68" />
<rect x="182" y="71" width="1" height="5" fill="#E8A87C" />
<rect x="183" y="71" width="1" height="1" fill="#A77C68" />
<rect x="184" y="71" width="1" height="5" fill="#E8A87C" />
<rect x="185" y="71" width="1" height="1" fill="#A77C68" />
<rect x="186" y="71" width="1" height="5" fill="#E8A87C" />
<rect x="187" y="71" width="1" height="1" fill="#A77C68" />
<rect x="188" y="71" width="1" height="4" fill="#E8A87C" />
<rect x="189" y="71" width="1" height="1" fill="#A77C68" />
<rect x="190" y="71" width="1" height="3" fill="#E8A87C" />
<rect x="192" y="71" width="1" height="2" fill="#E8A87C" />
<rect x="168" y="72" width="1" height="1" fill="#EDBD9C" />
<rect x="169" y="72" width="1" height="1" fill="#E8A87C" />
<rect x="170" y="72" width="1" height="1" fill="#EDBD9C" />
<rect x="171" y="72" width="1" height="1" fill="#E8A87C" />
<rect x="172" y="72" width="1" height="1" fill="#EDBD9C" />
<rect x="173" y="72" width="3" height="1" fill="#E8A87C" />
<rect x="177" y="72" width="2" height="1" fill="#A77C68" />
<rect x="179" y="72" width="1" height="1" fill="#EDBD9C" />
<rect x="180" y="72" width="2" height="3" fill="#E8A87C" />
<rect x="183" y="72" width="1" height="3" fill="#E8A87C" />
<rect x="185" y="72" width="1" height="3" fill="#E8A87C" />
<rect x="187" y="72" width="1" height="4" fill="#E8A87C" />
<rect x="189" y="72" width="1" height="3" fill="#E8A87C" />
<rect x="193" y="72" width="1" height="1" fill="#EDBD9C" />
<rect x="169" y="73" width="1" height="1" fill="#EDBD9C" />
<rect x="170" y="73" width="1" height="1" fill="#E8A87C" />
<rect x="171" y="73" width="1" height="2" fill="#EDBD9C" />
<rect x="172" y="73" width="1" height="1" fill="#E8A87C" />
<rect x="173" y="73" width="1" height="1" fill="#EDBD9C" />
<rect x="174" y="73" width="1" height="1" fill="#E8A87C" />
<rect x="175" y="73" width="1" height="1" fill="#EDBD9C" />
<rect x="177" y="73" width="1" height="2" fill="#E8A87C" />
<rect x="178" y="73" width="2" height="1" fill="#A77C68" />
<rect x="192" y="73" width="1" height="1" fill="#EDBD9C" />
<rect x="170" y="74" width="1" height="1" fill="#EDBD9C" />
<rect x="172" y="74" width="1" height="2" fill="#EDBD9C" />
<rect x="173" y="74" width="1" height="1" fill="#E8A87C" />
<rect x="174" y="74" width="1" height="1" fill="#EDBD9C" />
<rect x="175" y="74" width="1" height="1" fill="#E8A87C" />
<rect x="176" y="74" width="1" height="1" fill="#EDBD9C" />
<rect x="178" y="74" width="1" height="1" fill="#EDBD9C" />
<rect x="179" y="74" width="1" height="3" fill="#E8A87C" />
<rect x="190" y="74" width="2" height="1" fill="#EDBD9C" />
<rect x="173" y="75" width="1" height="1" fill="#EDBD9C" />
<rect x="174" y="75" width="1" height="1" fill="#E8A87C" />
<rect x="175" y="75" width="1" height="2" fill="#EDBD9C" />
<rect x="176" y="75" width="1" height="1" fill="#E8A87C" />
<rect x="177" y="75" width="1" height="1" fill="#EDBD9C" />
<rect x="178" y="75" width="1" height="1" fill="#E8A87C" />
<rect x="180" y="75" width="1" height="1" fill="#E8A87C" />
<rect x="181" y="75" width="1" height="1" fill="#EDBD9C" />
<rect x="183" y="75" width="1" height="1" fill="#EDBD9C" />
<rect x="185" y="75" width="1" height="1" fill="#EDBD9C" />
<rect x="188" y="75" width="2" height="1" fill="#EDBD9C" />
<rect x="174" y="76" width="1" height="1" fill="#EDBD9C" />
<rect x="176" y="76" width="1" height="1" fill="#EDBD9C" />
<rect x="177" y="76" width="1" height="1" fill="#E8A87C" />
<rect x="178" y="76" width="1" height="2" fill="#EDBD9C" />
<rect x="180" y="76" width="1" height="2" fill="#EDBD9C" />
<rect x="181" y="76" width="1" height="1" fill="#E8A87C" />
<rect x="182" y="76" width="1" height="2" fill="#EDBD9C" />
<rect x="183" y="76" width="1" height="1" fill="#E8A87C" />
<rect x="184" y="76" width="1" height="2" fill="#EDBD9C" />
<rect x="185" y="76" width="1" height="1" fill="#E8A87C" />
<rect x="186" y="76" width="2" height="1" fill="#EDBD9C" />
<rect x="177" y="77" width="1" height="1" fill="#EDBD9C" />
<rect x="179" y="77" width="1" height="1" fill="#EDBD9C" />
<rect x="181" y="77" width="1" height="1" fill="#EDBD9C" />
<rect x="183" y="77" width="1" height="1" fill="#EDBD9C" />
</svg>