<?xml version="1.0" encoding="UTF-8" ?>
<svg version="1.1" width="320" height="240" xmlns="http://www.w3.org/2000/svg" shape-rendering="crispEdges">
<rect x="206" y="60" width="7" height="1" fill="#FDE8B9" />
<rect x="204" y="61" width="2" height="1" fill="#FDE8B9" />
<rect x="206" y="61" width="7" height="1" fill="#FEEECB" />
<rect x="213" y="61" width="2" height="1" fill="#FDE8B9" />
<rect x="202" y="62" width="2" height="1" fill="#FDE8B9" />
<rect x="204" y="62" width="2" height="1" fill="#FEEECB" />
<rect x="206" y="62" width="7" height="2" fill="#FEF4DC" />
<rect x="213" y="62" width="2" height="1" fill="#FEEECB" />
<rect x="215" y="62" width="2" height="1" fill="#FDE8B9" />
<rect x="201" y="63" width="1" height="1" fill="#FDE8B9" />
<rect x="202" y="63" width="2" height="1" fill="#FEEECB" />
<rect x="204" y="63" width="2" height="2" fill="#FEF4DC" />
<rect x="213" y="63" width="2" height="2" fill="#FEF4DC" />
<rect x="215" y="63" width="2" height="1" fill="#FEEECB" />
<rect x="217" y="63" width="1" height="1" fill="#FDE8B9" />
<rect x="200" y="64" width="1" height="1" fill="#FDE8B9" />
<rect x="201" y="64" width="1" height="1" fill="#FEEECB" />
<rect x="202" y="64" width="2" height="2" fill="#FEF4DC" />
<rect x="206" y="64" width="7" height="5" fill="#FFFAEE" />
<rect x="215" y="64" width="2" height="2" fill="#FEF4DC" />
<rect x="217" y="64" width="1" height="1" fill="#FEEECB" />
<rect x="218" y="64" width="1" height="1" fill="#FDE8B9" />
<rect x="199" y="65" width="1" height="1" fill="#FDE8B9" />
<rect x="200" y="65" width="1" height="1" fill="#FEEECB" />
<rect x="201" y="65" width="1" height="2" fill="#FEF4DC" />
<rect x="204" y="65" width="2" height="14" fill="#FFFAEE" />
<rect x="213" y="65" width="2" height="2" fill="#FFFAEE" />
<rect x="217" y="65" width="1" height="1" fill="#FEF4DC" />
<rect x="218" y="65" width="1" height="1" fill="#FEEECB" />
<rect x="219" y="65" width="1" height="1" fill="#FDE8B9" />
<rect x="198" y="66" width="1" height="1" fill="#FDE8B9" />
<rect x="199" y="66" width="1" height="1" fill="#FEEECB" />
<rect x="200" y="66" width="1" height="2" fill="#FEF4DC" />
<rect x="202" y="66" width="2" height="14" fill="#FFFAEE" />
<rect x="215" y="66" width="5" height="9" fill="#F9E9DE" />
<rect x="220" y="66" width="1" height="1" fill="#FDE8B9" />
<rect x="197" y="67" width="1" height="1" fill="#FDE8B9" />
<rect x="198" y="67" width="1" height="1" fill="#FEEECB" />
<rect x="199" y="67" width="1" height="3" fill="#FEF4DC" />
<rect x="201" y="67" width="1" height="13" fill="#FFFAEE" />
<rect x="213" y="67" width="1" height="1" fill="#FFFAEE" />
<rect x="214" y="67" width="1" height="6" fill="#F9E9DE" />
<rect x="220" y="67" width="4" height="2" fill="#F9E9DE" />
<rect x="196" y="68" width="1" height="2" fill="#FDE8B9" />
<rect x="197" y="68" width="1" height="2" fill="#FEEECB" />
<rect x="198" y="68" width="1" height="4" fill="#FEF4DC" />
<rect x="200" y="68" width="1" height="13" fill="#FFFAEE" />
<rect x="213" y="68" width="1" height="5" fill="#F9E9DE" />
<rect x="224" y="68" width="1" height="1" fill="#F9E9DE" />
<rect x="206" y="69" width="6" height="6" fill="#FFFAEE" />
<rect x="212" y="69" width="1" height="3" fill="#F9E9DE" />
<rect x="220" y="69" width="3" height="1" fill="#F9E9DE" />
<rect x="223" y="69" width="2" height="1" fill="#F3D3BD" />
<rect x="225" y="69" width="2" height="7" fill="#F9E9DE" />
<rect x="195" y="70" width="1" height="2" fill="#FDE8B9" />
<rect x="196" y="70" width="1" height="2" fill="#FEEECB" />
<rect x="197" y="70" width="1" height="11" fill="#FEF4DC" />
<rect x="199" y="70" width="1" height="11" fill="#FFFAEE" />
<rect x="220" y="70" width="2" height="4" fill="#F9E9DE" />
<rect x="222" y="70" width="1" height="2" fill="#F3D3BD" />
<rect x="223" y="70" width="2" height="5" fill="#F9E9DE" />
<rect x="227" y="70" width="2" height="6" fill="#F9E9DE" />
<rect x="229" y="71" width="1" height="2" fill="#F9E9DE" />
<rect x="230" y="71" width="1" height="2" fill="#F3D3BD" />
<rect x="231" y="71" width="1" height="12" fill="#F9E9DE" />
<rect x="194" y="72" width="1" height="7" fill="#FDE8B9" />
<rect x="195" y="72" width="1" height="7" fill="#FEEECB" />
<rect x="196" y="72" width="1" height="7" fill="#FEF4DC" />
<rect x="198" y="72" width="1" height="7" fill="#FFFAEE" />
<rect x="212" y="72" width="1" height="1" fill="#F3D3BD" />
<rect x="222" y="72" width="1" height="2" fill="#F9E9DE" />
<rect x="232" y="72" width="2" height="4" fill="#F9E9DE" />
<rect x="212" y="73" width="1" height="1" fill="#FFFAEE" />
<rect x="213" y="73" width="2" height="1" fill="#F3D3BD" />
<rect x="229" y="73" width="1" height="1" fill="#F3D3BD" />
<rect x="230" y="73" width="1" height="12" fill="#F9E9DE" />
<rect x="234" y="73" width="1" height="4" fill="#F9E9DE" />
<rect x="212" y="74" width="1" height="1" fill="#F3D3BD" />
<rect x="213" y="74" width="2" height="5" fill="#F9E9DE" />
<rect x="220" y="74" width="1" height="3" fill="#F9E9DE" />
<rect x="221" y="74" width="1" height="2" fill="#F3D3BD" />
<rect x="222" y="74" width="1" height="3" fill="#EDBD9C" />
<rect x="229" y="74" width="1" height="11" fill="#F9E9DE" />
<rect x="235" y="74" width="2" height="3" fill="#F9E9DE" />
<rect x="206" y="75" width="5" height="1" fill="#FFFAEE" />
<rect x="211" y="75" width="1" height="1" fill="#F3D3BD" />
<rect x="212" y="75" width="1" height="6" fill="#F9E9DE" />
<rect x="215" y="75" width="1" height="2" fill="#F3D3BD" />
<rect x="216" y="75" width="4" height="1" fill="#F9E9DE" />
<rect x="223" y="75" width="1" height="2" fill="#EDBD9C" />
<rect x="224" y="75" width="1" height="1" fill="#F9E9DE" />
<rect x="237" y="75" width="1" height="3" fill="#F9E9DE" />
<rect x="206" y="76" width="4" height="1" fill="#FFFAEE" />
<rect x="210" y="76" width="1" height="1" fill="#F3D3BD" />
<rect x="211" y="76" width="1" height="5" fill="#F9E9DE" />
<rect x="216" y="76" width="2" height="1" fill="#F3D3BD" />
<rect x="218" y="76" width="2" height="1" fill="#F9E9DE" />
<rect x="221" y="76" width="1" height="10" fill="#F9E9DE" />
<rect x="224" y="76" width="3" height="1" fill="#EDBD9C" />
<rect x="227" y="76" width="1" height="2" fill="#F3D3BD" />
<rect x="228" y="76" width="1" height="2" fill="#F9E9DE" />
<rect x="232" y="76" width="1" height="7" fill="#F9E9DE" />
<rect x="233" y="76" width="1" height="2" fill="#F3D3BD" />
<rect x="238" y="76" width="2" height="1" fill="#F9E9DE" />
<rect x="206" y="77" width="3" height="1" fill="#FFFAEE" />
<rect x="209" y="77" width="1" height="1" fill="#F3D3BD" />
<rect x="210" y="77" width="1" height="4" fill="#F9E9DE" />
<rect x="215" y="77" width="3" height="1" fill="#EDBD9C" />
<rect x="218" y="77" width="3" height="1" fill="#F3D3BD" />
<rect x="222" y="77" width="1" height="1" fill="#F9E9DE" />
<rect x="223" y="77" width="4" height="1" fill="#F3D3BD" />
<rect x="234" y="77" width="2" height="1" fill="#F3D3BD" />
<rect x="236" y="77" width="1" height="1" fill="#F9E9DE" />
<rect x="238" y="77" width="1" height="1" fill="#F9E9DE" />
<rect x="239" y="77" width="1" height="2" fill="#F3D3BD" />
<rect x="240" y="77" width="1" height="1" fill="#F9E9DE" />
<rect x="206" y="78" width="2" height="1" fill="#FFFAEE" />
<rect x="208" y="78" width="1" height="1" fill="#F3D3BD" />
<rect x="209" y="78" width="1" height="8" fill="#F9E9DE" />
<rect x="215" y="78" width="3" height="1" fill="#F9E9DE" />
<rect x="218" y="78" width="2" height="1" fill="#EDBD9C" />
<rect x="220" y="78" width="1" height="3" fill="#F9E9DE" />
<rect x="222" y="78" width="1" height="1" fill="#F3D3BD" />
<rect x="223" y="78" width="5" height="6" fill="#F9E9DE" />
<rect x="228" y="78" width="1" height="1" fill="#F3D3BD" />
<rect x="233" y="78" width="2" height="4" fill="#F9E9DE" />
<rect x="235" y="78" width="4" height="1" fill="#F3D3BD" />
<rect x="240" y="78" width="1" height="1" fill="#F3D3BD" />
<rect x="195" y="79" width="1" height="3" fill="#FDE8B9" />
<rect x="196" y="79" width="1" height="2" fill="#FEEECB" />
<rect x="198" y="79" width="1" height="4" fill="#FEF4DC" />
<rect x="204" y="79" width="1" height="1" fill="#FFFAEE" />
<rect x="205" y="79" width="1" height="2" fill="#EDBD9C" />
<rect x="206" y="79" width="3" height="4" fill="#F9E9DE" />
<rect x="213" y="79" width="1" height="1" fill="#F9E9DE" />
<rect x="214" y="79" width="1" height="1" fill="#EDBD9C" />
<rect x="215" y="79" width="2" height="1" fill="#E8A87C" />
<rect x="217" y="79" width="3" height="3" fill="#F9E9DE" />
<rect x="222" y="79" width="1" height="7" fill="#F9E9DE" />
<rect x="228" y="79" width="1" height="6" fill="#F9E9DE" />
<rect x="235" y="79" width="1" height="1" fill="#F3D3BD" />
<rect x="236" y="79" width="6" height="4" fill="#F9E9DE" />
<rect x="201" y="80" width="3" height="6" fill="#F9E9DE" />
<rect x="204" y="80" width="1" height="1" fill="#F3D3BD" />
<rect x="213" y="80" width="1" height="2" fill="#EDBD9C" />
<rect x="214" y="80" width="1" height="1" fill="#E8A87C" />
<rect x="215" y="80" width="2" height="5" fill="#F9E9DE" />
<rect x="235" y="80" width="1" height="4" fill="#F9E9DE" />
<rect x="242" y="80" width="1" height="6" fill="#F9E9DE" />
<rect x="196" y="81" width="1" height="2" fill="#FDE8B9" />
<rect x="197" y="81" width="1" height="2" fill="#FEEECB" />
<rect x="199" y="81" width="1" height="1" fill="#FEF4DC" />
<rect x="200" y="81" width="1" height="4" fill="#F9E9DE" />
<rect x="204" y="81" width="2" height="1" fill="#F9E9DE" />
<rect x="210" y="81" width="3" height="1" fill="#EDBD9C" />
<rect x="214" y="81" width="1" height="5" fill="#F9E9DE" />
<rect x="220" y="81" width="1" height="1" fill="#F3D3BD" />
<rect x="243" y="81" width="1" height="4" fill="#F9E9DE" />
<rect x="199" y="82" width="1" height="2" fill="#EDBD9C" />
<rect x="204" y="82" width="1" height="1" fill="#F9E9DE" />
<rect x="205" y="82" width="1" height="2" fill="#EDBD9C" />
<rect x="210" y="82" width="2" height="3" fill="#F9E9DE" />
<rect x="212" y="82" width="1" height="4" fill="#EDBD9C" />
<rect x="213" y="82" width="1" height="3" fill="#F9E9DE" />
<rect x="217" y="82" width="1" height="1" fill="#F9E9DE" />
<rect x="218" y="82" width="2" height="1" fill="#F3D3BD" />
<rect x="220" y="82" width="1" height="4" fill="#F9E9DE" />
<rect x="233" y="82" width="1" height="1" fill="#F3D3BD" />
<rect x="234" y="82" width="1" height="1" fill="#F9E9DE" />
<rect x="244" y="82" width="1" height="2" fill="#F9E9DE" />
<rect x="197" y="83" width="1" height="1" fill="#FDE8B9" />
<rect x="198" y="83" width="1" height="1" fill="#EDBD9C" />
<rect x="204" y="83" width="1" height="1" fill="#EDBD9C" />
<rect x="206" y="83" width="2" height="1" fill="#EDBD9C" />
<rect x="208" y="83" width="1" height="1" fill="#F3D3BD" />
<rect x="217" y="83" width="3" height="1" fill="#EDBD9C" />
<rect x="231" y="83" width="1" height="1" fill="#F3D3BD" />
<rect x="232" y="83" width="2" height="1" fill="#EDBD9C" />
<rect x="234" y="83" width="1" height="1" fill="#F3D3BD" />
<rect x="236" y="83" width="2" height="1" fill="#F3D3BD" />
<rect x="238" y="83" width="4" height="1" fill="#F9E9DE" />
<rect x="195" y="84" width="1" height="2" fill="#F9E9DE" />
<rect x="196" y="84" width="2" height="1" fill="#EDBD9C" />
<rect x="198" y="84" width="2" height="2" fill="#F9E9DE" />
<rect x="204" y="84" width="5" height="1" fill="#F9E9DE" />
<rect x="217" y="84" width="2" height="1" fill="#E8A87C" />
<rect x="219" y="84" width="1" height="2" fill="#EDBD9C" />
<rect x="223" y="84" width="1" height="1" fill="#F9E9DE" />
<rect x="224" y="84" width="4" height="1" fill="#F3D3BD" />
<rect x="231" y="84" width="4" height="2" fill="#F9E9DE" />
<rect x="235" y="84" width="1" height="2" fill="#F3D3BD" />
<rect x="236" y="84" width="2" height="3" fill="#EDBD9C" />
<rect x="238" y="84" width="1" height="1" fill="#F3D3BD" />
<rect x="239" y="84" width="3" height="1" fill="#F9E9DE" />
<rect x="244" y="84" width="1" height="1" fill="#F3D3BD" />
<rect x="245" y="84" width="2" height="2" fill="#F9E9DE" />
<rect x="193" y="85" width="1" height="1" fill="#F9E9DE" />
<rect x="194" y="85" width="1" height="2" fill="#F3D3BD" />
<rect x="196" y="85" width="2" height="1" fill="#F9E9DE" />
<rect x="200" y="85" width="1" height="2" fill="#EDBD9C" />
<rect x="204" y="85" width="4" height="1" fill="#F9E9DE" />
<rect x="208" y="85" width="1" height="2" fill="#EDBD9C" />
<rect x="210" y="85" width="1" height="1" fill="#F9E9DE" />
<rect x="211" y="85" width="1" height="2" fill="#EDBD9C" />
<rect x="213" y="85" width="1" height="2" fill="#EDBD9C" />
<rect x="215" y="85" width="1" height="1" fill="#F9E9DE" />
<rect x="216" y="85" width="2" height="1" fill="#E8A87C" />
<rect x="218" y="85" width="1" height="2" fill="#F3D3BD" />
<rect x="223" y="85" width="4" height="1" fill="#EDBD9C" />
<rect x="227" y="85" width="4" height="1" fill="#F3D3BD" />
<rect x="238" y="85" width="1" height="2" fill="#EDBD9C" />
<rect x="239" y="85" width="1" height="1" fill="#F3D3BD" />
<rect x="240" y="85" width="2" height="1" fill="#F9E9DE" />
<rect x="243" y="85" width="1" height="1" fill="#F3D3BD" />
<rect x="244" y="85" width="1" height="2" fill="#EDBD9C" />
<rect x="247" y="85" width="1" height="2" fill="#F9E9DE" />
<rect x="193" y="86" width="1" height="1" fill="#F3D3BD" />
<rect x="195" y="86" width="5" height="1" fill="#EDBD9C" />
<rect x="201" y="86" width="5" height="1" fill="#EDBD9C" />
<rect x="206" y="86" width="1" height="2" fill="#F3D3BD" />
<rect x="207" y="86" width="1" height="1" fill="#EDBD9C" />
<rect x="209" y="86" width="2" height="1" fill="#EDBD9C" />
<rect x="212" y="86" width="1" height="2" fill="#F3D3BD" />
<rect x="214" y="86" width="2" height="1" fill="#EDBD9C" />
<rect x="216" y="86" width="1" height="1" fill="#E8A87C" />
<rect x="217" y="86" width="1" height="2" fill="#EDBD9C" />
<rect x="219" y="86" width="11" height="1" fill="#F3D3BD" />
<rect x="230" y="86" width="6" height="1" fill="#EDBD9C" />
<rect x="239" y="86" width="5" height="1" fill="#EDBD9C" />
<rect x="245" y="86" width="1" height="1" fill="#EDBD9C" />
<rect x="246" y="86" width="1" height="1" fill="#F9E9DE" />
<rect x="248" y="86" width="1" height="1" fill="#F9E9DE" />
<rect x="199" y="87" width="1" height="1" fill="#EDBD9C" />
<rect x="200" y="87" width="6" height="1" fill="#F3D3BD" />
<rect x="207" y="87" width="5" height="1" fill="#F3D3BD" />
<rect x="213" y="87" width="2" height="1" fill="#F3D3BD" />
<rect x="215" y="87" width="2" height="1" fill="#EDBD9C" />
<rect x="218" y="87" width="6" height="1" fill="#E8A87C" />
<rect x="224" y="87" width="6" height="1" fill="#EDBD9C" />
<rect x="230" y="87" width="1" height="1" fill="#F3D3BD" />
<rect x="231" y="87" width="4" height="1" fill="#EDBD9C" />
<rect x="235" y="87" width="15" height="1" fill="#F3D3BD" />
<rect x="215" y="88" width="3" height="1" fill="#F3D3BD" />
<rect x="218" y="88" width="6" height="1" fill="#EDBD9C" />
<rect x="224" y="88" width="6" height="1" fill="#F3D3BD" />
<rect x="231" y="88" width="4" height="1" fill="#F3D3BD" />
<rect x="218" y="89" width="6" height="1" fill="#F3D3BD" />
</svg>